<?xml version="1.0" encoding="UTF-8"?>
<svg xmlns="http://www.w3.org/2000/svg" xmlns:xlink="http://www.w3.org/1999/xlink" version="1.2" >
<font id="Klast">
<font-face  font-family="Klast" units-per-em="1000" ascent="750" descent="-250" font-style="normal" font-weight="400" font-stretch="normal" cap-height="700" x-height="500" underline-position="-75" underline-thickness="50" />
<missing-glyph  horiz-adv-x="640" d="" />
<glyph glyph-name="NULL" d="" />
<glyph glyph-name="nonmarkingreturn" unicode="&#xd;" horiz-adv-x="640" d="" />
<glyph glyph-name="space" unicode="&#x20;" horiz-adv-x="640" d="" />
<glyph glyph-name="e" unicode="e" horiz-adv-x="505" d="M505 381 Q508 378 505 376 Q501 376 495 374 Q472 368 449.5 361.5 Q427 355 404 348 Q353 332 302.5 315.5 Q252 299 201 280 Q168 268 135 255.5 Q102 243 69 231 Q55 226 40.5 222 Q26 218 12 213 Q0 210 -12 208 Q-24 206 -35 208 Q-67 212 -70 246 Q-71 260 -67.5 274 Q-64 288 -58 302 Q-56 307 -54 311 Q-52 315 -50 320 Q-50 321 -49.5 321 Q-49 321 -49 322 Q-49 322 -48 324 Q-37 343 -26.5 355 Q-16 367 -11 372 Q-6 377 2 382 Q10 387 18 389 Q27 391 32 387 Q38 382 34 372 Q27 354 8 341 Q-5 331 -19 330 Q-21 330 -23 330.5 Q-25 331 -27 331 Q-29 332 -32 329 Q-38 318 -43 306.5 Q-48 295 -52 283 Q-59 260 -56 242 Q-54 227 -45 219 Q-39 214 -25 214 Q-11 213 1.5 216.5 Q14 220 28 224 Q55 233 82 243 Q109 253 135 263 Q170 277 205 289.5 Q240 302 275 313 Q304 322 331.5 331 Q359 340 387 348 Q405 353 423 358.5 Q441 364 458 369 Q470 373 482 375.5 Q494 378 505 381 Z M-24 341 Q-27 336 -22 336 L-20 336 Q-19 337 -16 337 Q12 347 25 374 Q26 376 26 377 Q26 378 27 380 Q27 387 22 384 Q12 380 8 377 Q-2 369 -9.5 360 Q-17 351 -24 341 Z " />
<glyph glyph-name="f" unicode="f" horiz-adv-x="474" d="M474 379 Q474 378 475 377 Q471 377 466 376.5 Q461 376 458 376 Q448 375 439 374.5 Q430 374 420 372 Q410 371 400 370 Q390 369 380 368 Q369 367 359 366 Q349 365 338 363 Q324 361 310 360 Q296 359 282 357 Q266 355 250 352.5 Q234 350 218 348 Q203 346 188.5 344 Q174 342 159 340 Q142 338 124.5 335.5 Q107 333 90 330 Q74 328 58 325.5 Q42 323 26 318 Q21 317 17 315 Q13 313 8 311 Q2 307 1 304 Q-1 300 1 298 Q3 293 5 288.5 Q7 284 9 279 Q20 257 27.5 234.5 Q35 212 37 186 Q40 166 38 140 Q37 131 36 121.5 Q35 112 33 102 Q28 74 18.5 47 Q9 20 -8 -6 Q-16 -17 -24.5 -27 Q-33 -37 -44 -45 Q-65 -60 -84 -57 Q-103 -54 -112 -37 Q-117 -28 -119 -18 Q-121 -8 -121 3 Q-122 18 -120 32.5 Q-118 47 -116 61 Q-114 75 -110.5 88 Q-107 101 -103 115 Q-98 137 -90.5 158 Q-83 179 -75 200 Q-58 245 -40 289 Q-22 333 -2 378 Q10 404 23 430.5 Q36 457 51 482 Q59 496 67.5 509 Q76 522 87 534 Q90 537 93 540 Q96 543 100 546 Q107 551 114 548 Q120 544 120 535 Q120 526 117 517 Q114 508 111 500 Q103 483 94.5 466.5 Q86 450 75 435 Q57 408 32 395 Q30 394 27 394 Q24 394 22 392 Q21 392 19 390 Q14 379 9 367.5 Q4 356 -1 345 Q-14 314 -26 284 Q-38 254 -50 223 Q-58 205 -64 186.5 Q-70 168 -76 150 Q-81 136 -84.5 123 Q-88 110 -92 97 Q-97 81 -100 65.5 Q-103 50 -105 34 Q-107 20 -107.5 7 Q-108 -6 -106 -19 Q-103 -33 -97 -41 Q-85 -56 -67 -50 Q-51 -44 -37 -30 Q-23 -16 -13 0 Q-3 16 5 33 Q10 45 14.5 57 Q19 69 22 82 Q37 142 28 201 Q25 222 18 241 Q11 260 2 278 L-7 296 Q-11 308 0 315 Q5 319 11.5 321 Q18 323 24 325 Q39 329 55 332 Q71 335 87 338 Q104 341 122 344 Q140 347 158 349 Q175 351 190.5 353 Q206 355 223 357 Q237 359 251 360 Q265 361 279 363 Q292 365 304.5 365.5 Q317 366 330 368 Q343 370 355.5 371 Q368 372 382 373 Q394 375 406.5 375.5 Q419 376 431 378 L467 381 L474 381 L474 379 Z M31 414 Q26 406 23 398 L23 397 Q24 398 24.5 398 Q25 398 26 399 Q51 412 66 433 Q77 447 85 461.5 Q93 476 100 491 Q105 502 108.5 512.5 Q112 523 113 534 Q114 536 113.5 538 Q113 540 113 542 Q109 541 103 535 Q86 517 72 493 Q49 455 31 414 Z " />
<glyph glyph-name="g" unicode="g" horiz-adv-x="573" d="M573 381 Q574 380 574 379 Q574 377 573 377 Q539 368 505 359 Q471 350 438 340 Q375 323 314 306 Q253 289 191 272 Q122 254 53 230 Q49 228 48 226 Q38 204 26.5 184 Q15 164 0 144 Q-15 124 -33 106.5 Q-51 89 -73 75 Q-83 69 -93 64 Q-103 59 -114 57 Q-119 56 -123.5 55.5 Q-128 55 -133 57 Q-152 61 -150 82 L-150 87 Q-149 89 -149 93 Q-147 96 -145 102 Q-139 117 -129.5 129.5 Q-120 142 -108 153 Q-92 169 -74 180 Q-56 191 -37 201 Q-1 217 35 231 Q38 232 40 236 Q45 250 50.5 264 Q56 278 60 292 Q65 305 68 317.5 Q71 330 74 343 Q76 348 76 353 Q76 358 77 363 Q77 364 76 366 Q74 364 70 362 Q68 360 66 358.5 Q64 357 62 355 Q58 353 57 350 Q56 347 55 344 Q55 341 53 341 Q51 342 50 342.5 Q49 343 47 344 L45 342 Q34 333 23.5 324.5 Q13 316 2 307 L-13 298 Q-18 296 -26 293.5 Q-34 291 -39 296 Q-39 296 -41 298 Q-48 306 -44.5 324 Q-41 342 -24 361 Q-13 373 -3 379.5 Q7 386 15 389 Q24 393 31 392 Q42 391 50.5 384.5 Q59 378 59 367 Q60 365 60 362 Q61 364 62 364.5 Q63 365 64 366 Q68 368 71 370 Q74 372 79 372 Q87 372 89 364 Q89 355 88 350 Q86 337 83 324.5 Q80 312 76 300 Q66 268 55 241 Q55 240 54.5 239.5 Q54 239 54 238 Q55 238 55.5 238.5 Q56 239 57 239 Q92 252 128 262.5 Q164 273 200 282 Q239 293 278 302.5 Q317 312 356 323 Q399 335 442 346.5 Q485 358 528 370 Q539 373 550.5 375.5 Q562 378 573 381 Z M54 366 Q54 383 39 387 Q29 391 15 382 Q7 377 0.5 370.5 Q-6 364 -11 357 Q-16 351 -20 344.5 Q-24 338 -27 331 Q-28 329 -31 320 Q-34 311 -33 302 Q-33 301 -32.5 300.5 Q-32 300 -32 299 Q-30 297 -25 298.5 Q-20 300 -16 302 Q-15 303 -14.5 303 Q-14 303 -13 304 Q-11 306 -8.5 306.5 Q-6 307 -4 309 Q10 319 22.5 330 Q35 341 48 352 Q52 355 54 364 L54 366 Z M31 214 Q33 220 35 223 Q33 223 32 222 Q11 214 -10 205 Q-31 196 -51 185 Q-69 174 -85.5 162 Q-102 150 -116 133 Q-125 122 -132 110.5 Q-139 99 -141 86 Q-143 75 -136.5 67 Q-130 59 -115 62 Q-96 66 -79 77 Q-39 102 -12 140 Q2 158 12 176.5 Q22 195 31 214 Z " />
<glyph glyph-name="h" unicode="h" horiz-adv-x="609" d="M609 381 Q610 380 610 378 Q610 376 609 376 Q591 375 572 372.5 Q553 370 536 366 Q481 356 427 345 Q373 334 319 320 Q285 312 252 302.5 Q219 293 186 284 Q169 279 152 275 Q135 271 118 268 Q111 267 104.5 266.5 Q98 266 91 268 Q73 271 73 292 Q75 310 80 325 Q87 346 97 371 Q98 373 98 375 Q98 377 99 379 Q99 379 98 380 L92 377 Q75 367 63 356 Q48 342 33.5 328.5 Q19 315 4 301 Q0 297 -4 293.5 Q-8 290 -12 287 Q-18 283 -24 285 Q-28 286 -28 291 Q-28 295 -26 303 Q-15 342 -2 377 Q12 414 27 450.5 Q42 487 57 523 Q70 552 82.5 580 Q95 608 109 636 Q112 641 115 645.5 Q118 650 121 655 Q124 659 127 655 Q124 650 117.5 636 Q111 622 103.5 605.5 Q96 589 89.5 574.5 Q83 560 81 554 Q74 537 67.5 521.5 Q61 506 54 489 Q42 458 30 427.5 Q18 397 7 366 Q2 352 -3 338.5 Q-8 325 -13 311 Q-14 307 -15 303 Q-16 299 -17 295 L-17 293 L-17 292 Q-14 294 -11.5 296.5 Q-9 299 -6 301 Q6 312 18 324 Q30 336 43 347 Q53 355 63 363.5 Q73 372 84 379 Q90 383 93 384 Q99 386 101 385 Q106 385 108.5 382 Q111 379 109 374 Q107 362 103 350 Q100 339 96 328.5 Q92 318 89 307 Q84 296 86 285 Q86 274 97 274 Q107 273 116 275 Q125 277 134 279 Q160 286 184.5 292.5 Q209 299 234 306 Q279 319 323 329 Q367 339 412 348 Q449 356 485.5 363.5 Q522 371 560 376 Q571 378 582 378.5 Q593 379 604 381 L609 381 L609 381 Z " />
<glyph glyph-name="i" unicode="i" horiz-adv-x="438" d="M49 465 Q50 467 53 470 Q57 472 57 468 Q57 467 56.5 467 Q56 467 56 466 Q54 464 52 463 L50 463 L49 465 Z M439 381 Q439 380 439.5 378 Q440 376 438 376 L437 376 Q428 374 418.5 373.5 Q409 373 399 371 Q367 366 335 360 Q303 354 271 349 Q227 341 184.5 331 Q142 321 99 310 L30 292 Q11 287 -3 288 Q-25 290 -25 313 Q-24 327 -19.5 339.5 Q-15 352 -9 365 Q-7 369 -4.5 373 Q-2 377 0 381 Q2 383 5.5 381 Q9 379 8 376 Q3 366 -1.5 355.5 Q-6 345 -10 335 Q-15 320 -15 308 L-15 303 Q-13 294 -4 293 Q4 293 10.5 294 Q17 295 24 297 L99 318 Q171 339 246 351 Q269 355 292 359 Q315 363 338 366 Q359 370 380 373 Q401 376 423 379 Q427 380 430.5 380 Q434 380 439 381 Z " />
<glyph glyph-name="j" unicode="j" horiz-adv-x="503" d="M28 458 Q27 459 27 460 Q28 462 29 463 Q30 464 31 466 Q33 467 34.5 466 Q36 465 35 464 Q35 464 34 462 Q32 460 30 459 Q30 459 28 458 Z M503 381 Q504 381 504 380 Q504 378 503 377 Q502 377 488.5 371 Q475 365 457.5 357 Q440 349 421.5 341 Q403 333 391 328 Q365 317 339 306.5 Q313 296 287 285 Q251 271 215 256 Q179 241 143 227 L8 176 L-76 146 Q-80 145 -82 141 Q-90 122 -99.5 104 Q-109 86 -121 69 Q-134 49 -148.5 30.5 Q-163 12 -182 -5 Q-204 -25 -230 -37 Q-240 -41 -249 -42 Q-258 -43 -266 -40 Q-281 -34 -283 -16 Q-284 -2 -278 12.5 Q-272 27 -262 41 Q-238 74 -199 97 Q-180 109 -160.5 118.5 Q-141 128 -121 136 Q-115 138 -109 141 Q-103 144 -96 146 Q-92 148 -91 151 Q-80 176 -70 201 Q-60 226 -50 252 Q-39 283 -27 313 Q-15 343 -3 374 Q-1 380 1 383 Q1 383 2 384 Q3 384 4 385 Q6 385 6 383 L-3 350 Q-11 323 -20.5 296.5 Q-30 270 -40 244 Q-48 222 -57 201 Q-66 180 -74 158 Q-74 158 -76 154 Q-70 156 -64.5 158 Q-59 160 -54 162 L60 204 Q117 225 172 246.5 Q227 268 283 291 Q324 307 364 323 Q404 339 445 356 Q450 358 459 361.5 Q468 365 478 370 Q489 375 503 381 Z M-106 119 Q-104 124 -101.5 128.5 Q-99 133 -97 138 Q-101 136 -101 136 Q-112 131 -122 127 Q-132 123 -143 118 Q-164 108 -184 97 Q-204 86 -222 70 Q-242 53 -254.5 35 Q-267 17 -272 -4 Q-275 -18 -269 -28 Q-261 -44 -236 -35 Q-221 -29 -206 -18 Q-189 -5 -175.5 10 Q-162 25 -150 42 Q-124 81 -106 119 Z " />
<glyph glyph-name="k" unicode="k" horiz-adv-x="557" d="M557 381 Q558 380 558 379 Q558 377 557 376 L553 373 Q550 371 547 368.5 Q544 366 540 364 L354 241 Q323 221 292.5 201 Q262 181 231 161 Q214 150 196.5 140.5 Q179 131 160 123 Q151 119 141.5 116.5 Q132 114 122 113 Q72 107 50 153 Q45 163 42 173.5 Q39 184 37 195 Q34 210 33 224.5 Q32 239 31 254 L28 299 Q27 304 26 309.5 Q25 315 24 320 Q22 324 20 326 L18 326 Q15 323 12.5 319.5 Q10 316 8 313 Q-2 299 -11.5 286.5 Q-21 274 -31 260 Q-34 256 -38 250 Q-41 246 -46 249 Q-48 250 -47 253 Q-46 256 -45.5 259.5 Q-45 263 -44 266 Q-36 286 -29 305.5 Q-22 325 -14 345 Q-2 377 10.5 407.5 Q23 438 36 470 Q50 504 64 537.5 Q78 571 94 603 Q103 621 112.5 638.5 Q122 656 131 673 Q132 675 133 676 Q134 677 135 679 Q139 681 140 679 L125 649 Q114 624 103 600 Q92 576 81 552 Q63 513 47 473.5 Q31 434 15 394 Q2 363 -9.5 332.5 Q-21 302 -33 271 Q-34 270 -34 268 Q-31 271 -27 277 Q-13 297 2 315.5 Q17 334 32 353 Q52 376 72 398.5 Q92 421 112 444 Q125 458 138 472 Q151 486 165 499 Q171 504 177 509 Q183 514 191 518 Q193 519 195 517 Q193 515 191 514 Q189 513 187 511 Q179 505 172 499 Q165 493 158 486 Q140 469 123.5 450 Q107 431 90 412 Q73 392 56 371.5 Q39 351 22 331 Q21 331 21 330 Q28 324 30 316.5 Q32 309 33 301 Q35 288 36.5 275 Q38 262 40 249 Q42 231 44 213.5 Q46 196 51 179 Q54 168 58.5 157 Q63 146 71 137 Q84 121 101 118 Q118 116 133 121 Q163 130 187 146 Q216 163 243.5 180 Q271 197 299 215 Q347 245 394.5 275.5 Q442 306 490 337 Q503 345 516 353.5 Q529 362 542 371 L557 381 L557 381 Z " />
<glyph glyph-name="l" unicode="l" horiz-adv-x="382" d="M272 334 Q255 326 239.5 319.5 Q224 313 207 305 Q186 295 165 285 Q144 275 123 265 Q103 256 83 247.5 Q63 239 42 232 Q24 227 10 227 Q4 227 -2 228 Q-8 229 -13 233 Q-26 242 -28 265 Q-28 283 -23 305 Q-18 331 -9.5 355 Q-1 379 8 403 Q28 457 51.5 508 Q75 559 101 610 Q113 633 125 654 Q137 675 151 696 Q154 699 155 701 Q157 703 160 701 Q161 700 160 697 Q158 694 156.5 690.5 Q155 687 153 684 Q133 649 114.5 614.5 Q96 580 79 544 Q41 463 10 381 Q4 364 -2 346.5 Q-8 329 -13 310 Q-15 299 -17 288.5 Q-19 278 -20 267 Q-20 261 -19.5 254.5 Q-19 248 -16 242 Q-12 234 -4 233 Q4 231 12 231.5 Q20 232 28 234 Q43 238 58.5 244 Q74 250 88 257 Q110 267 131.5 276.5 Q153 286 174 296 Q199 307 223 317.5 Q247 328 272 339 Q287 346 304 352.5 Q321 359 335 364 Q352 370 367 376 L382 381 Q383 380 382 379 L272 334 Z " />
<glyph glyph-name="m" unicode="m" horiz-adv-x="632" d="M633 380 L633 379 L565 358 Q547 352 528.5 346.5 Q510 341 492 335 Q453 322 415.5 307 Q378 292 340 275 Q317 266 294 256 Q271 246 248 237 Q241 234 234.5 232.5 Q228 231 221 229 Q211 227 205 231 Q198 234 198 244 Q199 251 201.5 257.5 Q204 264 207 270 Q216 287 225 303.5 Q234 320 243 337 Q250 350 256 362.5 Q262 375 269 388 Q271 392 273 403 Q274 407 269 406 Q256 403 243 395 Q228 386 213.5 376 Q199 366 185 355 Q148 327 111 293 Q100 283 89 273 Q78 263 67 253 Q64 250 58 246 Q55 243 51 243 Q41 244 44 253 Q48 261 51 268.5 Q54 276 58 284 Q67 302 76.5 319.5 Q86 337 95 354 Q98 360 100.5 366.5 Q103 373 106 379 Q106 381 106.5 382 Q107 383 107 384 Q107 388 105 386 Q99 384 95 382 Q85 377 76.5 370 Q68 363 59 356 Q39 339 20.5 321.5 Q2 304 -15 285 Q-19 281 -22 278 Q-25 275 -29 272 Q-34 267 -39 270 Q-43 273 -43 278 Q-41 283 -39.5 288.5 Q-38 294 -36 299 Q-34 307 -31 314 Q-28 321 -25 329 Q-18 346 -12 359 Q-7 370 -1 380 Q5 390 10 392 Q12 392 13 391 Q10 387 6 379 Q1 367 -4.5 355 Q-10 343 -15 330 Q-19 320 -22.5 310.5 Q-26 301 -30 290 Q-32 286 -34 278 Q-34 278 -33 277 Q-33 277 -31 279 Q-26 284 -20 289.5 Q-14 295 -9 300 Q19 331 52 358 Q62 366 71 373 Q80 380 91 386 Q93 388 96 388.5 Q99 389 101 390 Q107 392 111 388.5 Q115 385 113 379 Q110 367 104 355 Q94 335 84 315 Q74 295 63 275 Q61 270 59 265.5 Q57 261 55 256 Q55 255 54.5 254.5 Q54 254 54 253 L55 253 Q57 254 61 258 Q72 268 82 277 Q92 286 103 296 Q121 312 139 327.5 Q157 343 177 358 Q191 369 205.5 379 Q220 389 235 399 Q241 402 247 405.5 Q253 409 260 411 Q269 413 273 411 Q284 409 282 398 Q280 384 271 369 Q261 349 251 331 Q241 313 231 294 Q221 274 212 253 Q209 247 209 241 Q208 233 215 234 Q220 236 225 237 Q230 238 235 240 Q252 248 268.5 254.5 Q285 261 302 269 Q342 286 381.5 302 Q421 318 463 331 Q490 339 516.5 347.5 Q543 356 570 365 Q579 367 588 370 Q597 373 606 375 Q612 377 616.5 377.5 Q621 378 625 379 Q629 380 632 381 L633 380 Z " />
<glyph glyph-name="n" unicode="n" horiz-adv-x="478" d="M478 381 Q479 380 479 379 Q479 377 478 377 Q459 370 441 363 Q425 357 406.5 350 Q388 343 371 335 Q371 335 369 334 Q336 319 303.5 304 Q271 289 238 272 Q209 258 181.5 242.5 Q154 227 125 212 Q112 205 99 198.5 Q86 192 73 185 Q63 180 54 180 Q47 180 44 181 Q43 182 42 182 Q34 186 34.5 203 Q35 220 40.5 242.5 Q46 265 55 289 Q64 313 73 332 Q88 366 96.5 387.5 Q105 409 107 414 Q107 414 106 413 Q101 410 97 407 Q93 404 88 400 Q72 385 56.5 368.5 Q41 352 27 335 Q1 305 -25 271 Q-26 270 -27 269.5 Q-28 269 -29 267 Q-32 264 -36 266 Q-40 269 -39 275 Q-37 285 -35 290 Q-28 312 -20 333 Q-12 354 -3 375 Q2 384 6 393 Q10 402 14 411 Q15 415 18 418 Q20 420 21 420 Q28 420 24 414 L-24 291 Q-26 285 -28 280 L-27 280 Q-24 283 -23 285 Q-6 305 11.5 324.5 Q29 344 46 364 Q57 376 68 386.5 Q79 397 91 408 Q97 412 104 416 Q106 417 107 418 Q108 419 110 417 Q114 416 114 410 Q113 405 112 401 Q111 397 109 392 Q104 378 98 364 Q92 350 86 336 Q77 312 68 288 Q59 264 51 239 Q44 219 43 201 L43 194 Q44 183 53 184 Q58 186 62.5 187.5 Q67 189 72 191 Q86 198 99.5 205.5 Q113 213 127 221 Q166 244 206 264 Q246 284 287 303 Q310 314 333 323.5 Q356 333 379 344 Q390 349 406.5 355 Q423 361 439 367 Q457 374 478 381 Z " />
<glyph glyph-name="o" unicode="o" horiz-adv-x="392" d="M392 377 Q386 377 380 376.5 Q374 376 367 375 Q359 374 350 373.5 Q341 373 333 371 Q324 370 315.5 369.5 Q307 369 299 368 Q291 367 282.5 366.5 Q274 366 266 364 Q257 363 248 362.5 Q239 362 230 360 Q219 359 208.5 358 Q198 357 187 355 Q177 353 167.5 352.5 Q158 352 149 351 Q140 350 131.5 349.5 Q123 349 115 348 L77 348 Q52 350 33 355 L31 355 L31 354 Q44 336 38 314 Q27 276 -4 255 Q-15 248 -24 249 Q-41 251 -44 268 Q-45 282 -40 301 Q-29 341 -6 373 Q-2 378 2 383 Q6 388 12 391 L18 394 Q21 394 23 392 Q18 390 14.5 386.5 Q11 383 8 378 Q-9 352 -22 320 Q-26 310 -28.5 300 Q-31 290 -32 279 Q-34 269 -31 261 Q-29 254 -22 255 Q-9 260 -2 267 Q21 287 31 313 Q37 330 30 346 Q24 356 15 362 Q15 362 13 364 Q12 365 12 366 Q14 368 18 366 Q20 365 22.5 364 Q25 363 27 362 Q45 357 67 355 Q81 354 93.5 354.5 Q106 355 120 356 Q134 358 147.5 358.5 Q161 359 175 361 Q185 362 195 362.5 Q205 363 216 365 Q226 366 235.5 366.5 Q245 367 255 369 Q266 370 277 370.5 Q288 371 299 373 Q311 374 323.5 375 Q336 376 348 377 Q359 379 369.5 379.5 Q380 380 391 381 L392 381 Q393 380 393 379 Q393 377 392 377 Z " />
<glyph glyph-name="p" unicode="p" horiz-adv-x="547" d="M547 381 Q547 379 548 378.5 Q549 378 548 377 Q515 366 485 355 Q459 346 432 336 Q405 326 388 319 Q388 319 386 318 Q343 301 300 283 Q257 265 213 247 Q184 236 155 225 Q126 214 97 204 Q83 199 68.5 194.5 Q54 190 39 185 Q29 182 19.5 179.5 Q10 177 0 174 Q-1 173 -2 172.5 Q-3 172 -4 171 Q-22 154 -41 145 Q-55 138 -65 138 Q-72 138 -73 143 Q-74 149 -66 153 Q-61 158 -54.5 161.5 Q-48 165 -41 167 Q-32 171 -22.5 173.5 Q-13 176 -4 179 Q-2 180 0 182 Q14 196 26.5 210 Q39 224 50 240 Q61 256 70.5 271.5 Q80 287 88 304 Q92 312 94.5 320 Q97 328 98 336 Q98 343 97 345 Q95 353 90.5 353.5 Q86 354 79 352 Q66 348 52 336 Q41 328 32 318.5 Q23 309 15 299 Q-8 273 -27.5 246.5 Q-47 220 -64 192 Q-73 177 -80 163 Q-80 162 -84 154 Q-88 146 -92.5 135.5 Q-97 125 -101.5 114.5 Q-106 104 -108 99 Q-119 73 -128.5 48 Q-138 23 -149 -3 Q-167 -49 -185 -94.5 Q-203 -140 -221 -185 Q-225 -194 -228 -205 Q-230 -209 -235 -209 Q-238 -209 -236 -205 Q-230 -188 -224 -171 Q-218 -154 -211 -137 Q-194 -90 -176.5 -44 Q-159 2 -140 49 Q-119 102 -97.5 154 Q-76 206 -54 260 Q-42 288 -29.5 315.5 Q-17 343 -4 371 Q-2 378 1 384 Q4 390 7 396 Q9 398 9 399 Q12 402 14 402 Q17 400 16 398 Q15 395 14 392.5 Q13 390 11 387 Q-3 353 -17.5 319 Q-32 285 -47 251 Q-52 238 -57 226 Q-62 214 -67 202 Q-67 200 -67.5 199.5 Q-68 199 -68 198 L-66 200 Q-49 229 -28.5 256.5 Q-8 284 15 310 Q33 329 54 346 Q60 350 66.5 353 Q73 356 80 357 Q103 362 105 341 Q107 333 104.5 325 Q102 317 99 309 Q92 292 82 275.5 Q72 259 61 242 Q40 214 12 186 L10 184 Q15 186 20 186.5 Q25 187 30 189 Q46 195 62 200 Q78 205 94 211 Q121 221 148.5 230.5 Q176 240 203 251 Q256 272 308 292.5 Q360 313 413 334 Q430 340 453 348 Q476 356 497 364 Q522 373 547 381 Z M-19 166 Q-17 167 -16.5 167.5 Q-16 168 -14 169 Q-14 169 -15 170 L-33 164 Q-38 162 -44 159.5 Q-50 157 -55 153 Q-58 152 -62 146 Q-64 144 -63.5 143 Q-63 142 -61 143 Q-57 143 -51 145 Q-42 149 -34.5 154.5 Q-27 160 -19 166 Z " />
<glyph glyph-name="q" unicode="q" horiz-adv-x="474" d="M474 381 Q475 380 475 379 Q475 377 474 377 Q457 372 440 368 Q426 364 410 359.5 Q394 355 382 351 Q314 330 247 306 Q196 289 146 270 Q96 251 46 230 Q34 225 22.5 219.5 Q11 214 0 206 Q-5 203 -9 200 Q-13 197 -17 194 Q-31 180 -26 163 Q-24 154 -21 145 Q-18 136 -16 127 Q-12 116 -10 104 Q-8 92 -6 80 Q-5 71 -5 62.5 Q-5 54 -5 46 Q-5 29 -8 14 Q-12 -20 -22 -52.5 Q-32 -85 -46 -117 Q-54 -135 -64 -152 Q-74 -169 -87 -185 Q-95 -194 -104 -202 Q-109 -207 -114 -208.5 Q-119 -210 -125 -211 Q-136 -211 -141 -203 Q-146 -195 -146 -184 Q-148 -173 -147.5 -162 Q-147 -151 -145 -140 Q-142 -111 -134.5 -82 Q-127 -53 -119 -24 Q-96 52 -69 126 Q-42 200 -9 272 Q-1 289 7.5 305.5 Q16 322 24 339 Q25 340 25 341 L24 341 L18 335 Q9 325 0 315.5 Q-9 306 -19 297 Q-26 288 -34 287 Q-40 285 -44.5 288.5 Q-49 292 -49 298 Q-50 303 -48.5 308 Q-47 313 -45 318 Q-29 355 -2 379 Q3 383 7.5 386 Q12 389 18 390 Q26 392 32 387.5 Q38 383 37 375 Q37 372 35 372 Q34 371 32 375 Q32 379 31 381 Q28 388 20 385 Q16 383 8 377 Q-3 367 -10.5 356 Q-18 345 -26 333 Q-30 325 -33 318 Q-36 311 -38 303 Q-38 298 -39 295 Q-39 293 -38 292.5 Q-37 292 -36 294 Q-31 297 -27 300 Q-23 303 -19 306 Q-8 317 2.5 328 Q13 339 23 350 Q28 357 34 364 Q40 371 45 378 Q49 382 54 380 Q59 378 56 373 Q52 363 46 353 Q6 277 -25 201 Q-25 200 -27 198 L-25 198 Q-14 209 -2 216 Q10 223 24 229 Q50 242 76.5 252 Q103 262 130 273 Q171 289 211 302.5 Q251 316 293 329 Q316 336 338 343 Q360 350 383 357 Q397 361 413 365 Q429 369 443 373 Q459 377 474 381 Z M-19 110 Q-23 121 -26.5 131.5 Q-30 142 -34 153 Q-35 157 -36 160.5 Q-37 164 -38 169 Q-40 165 -40 164 Q-57 119 -73 73.5 Q-89 28 -103 -19 Q-113 -51 -121 -82.5 Q-129 -114 -133 -146 Q-134 -156 -134.5 -165.5 Q-135 -175 -133 -184 Q-132 -189 -131 -193 Q-130 -197 -127 -201 Q-122 -207 -116 -202 Q-113 -200 -110 -197.5 Q-107 -195 -104 -192 Q-95 -183 -88 -173 Q-81 -163 -74 -152 Q-40 -94 -23 -28 Q-19 -14 -16.5 0 Q-14 14 -13 28 Q-12 38 -12 47.5 Q-12 57 -12 67 Q-14 91 -19 110 Z " />
<glyph glyph-name="r" unicode="r" horiz-adv-x="587" d="M589 379 L360 262 Q354 258 350 256 Q311 236 274 215 Q243 198 213 182.5 Q183 167 152 150 Q134 141 115.5 132.5 Q97 124 77 118 Q66 115 55 113 Q44 111 33 111 Q-4 112 -10 148 Q-12 158 -11.5 167 Q-11 176 -9 186 Q-7 206 -1.5 224.5 Q4 243 11 262 Q21 290 33.5 316 Q46 342 60 368 Q62 371 66 379 L66 380 Q62 378 59 375.5 Q56 373 53 371 Q47 367 41.5 363.5 Q36 360 30 356 Q19 349 11 349 Q4 349 -0.5 353.5 Q-5 358 -4 365 Q-4 374 0 381 L2 383 L6 383 L6 380 Q3 371 3 361 L3 360 Q6 351 14 355 Q19 357 24 360.5 Q29 364 34 367 Q40 372 46 376 Q52 380 58 384 Q62 388 65 389 Q70 392 75 387 Q79 384 77 379 Q73 371 70 363 Q67 355 63 347 Q50 320 38 293 Q26 266 17 237 Q12 222 9 207 Q6 192 4 177 Q1 155 6 139 Q11 121 28 118 Q34 117 40 117.5 Q46 118 51 119 Q69 123 85.5 129.5 Q102 136 119 144 Q148 157 175.5 172 Q203 187 231 202 Q276 225 319 249 Q335 257 360 269.5 Q385 282 412.5 296 Q440 310 468 323.5 Q496 337 518.5 348 Q541 359 555 365.5 Q569 372 569 372 Q573 374 576.5 375.5 Q580 377 582 379 Q585 380 587 381 L589 379 Z " />
<glyph glyph-name="s" unicode="s" horiz-adv-x="590" d="M590 381 Q591 380 591 379 Q591 377 590 377 Q585 375 580.5 372.5 Q576 370 571 368 Q547 358 524 348 Q501 338 477 328 Q454 317 430 307 Q406 297 382 286 Q352 272 322.5 259.5 Q293 247 263 234 Q234 221 205.5 208.5 Q177 196 148 182 Q145 179 145 179 Q134 152 119.5 127 Q105 102 88 79 Q49 24 -7 -18 Q-39 -43 -71 -56 Q-81 -59 -89.5 -61 Q-98 -63 -108 -63 Q-125 -63 -137 -55 Q-161 -40 -153 -9 Q-148 7 -135 23 Q-125 35 -114 45.5 Q-103 56 -91 66 Q-68 83 -45 96.5 Q-22 110 2 124 Q34 140 64.5 155 Q95 170 127 184 Q130 185 131 188 Q136 204 140.5 219.5 Q145 235 147 252 Q148 262 148 272 Q148 282 146 291 Q140 318 116 327 Q108 329 101 330.5 Q94 332 86 332 Q66 332 47 329 Q38 327 28.5 326 Q19 325 10 323 Q5 323 1 322.5 Q-3 322 -8 324 Q-14 326 -16 328 Q-25 332 -23 344 Q-19 360 -9 371 Q-7 374 -2 379 Q1 383 5.5 382 Q10 381 10 375 Q8 372 8 372 Q7 372 7 373 Q7 375 5 377 Q3 375 0.5 370.5 Q-2 366 -3 365 Q-6 362 -8 355.5 Q-10 349 -12 342 Q-12 338 -12.5 334 Q-13 330 -5 330 Q3 331 9.5 331.5 Q16 332 24 333 Q31 334 37 335 Q43 336 50 337 Q58 338 65.5 338.5 Q73 339 81 339 Q95 339 109 336 Q123 333 136 324 Q157 308 162 277 Q164 258 161.5 240.5 Q159 223 154 206 Q152 200 150 195 Q154 197 156.5 198 Q159 199 162 201 Q206 221 249 239 Q292 257 337 276 Q369 289 401.5 302.5 Q434 316 466 329 Q495 341 524.5 353.5 Q554 366 583 378 L590 381 Z M122 167 Q123 168 123 171 L121 169 Q96 157 71 145.5 Q46 134 21 121 Q-3 108 -27 94.5 Q-51 81 -74 65 Q-101 47 -123 22 Q-128 15 -133 7.5 Q-138 0 -141 -8 Q-145 -17 -145 -31 Q-142 -50 -124 -55 Q-115 -57 -107 -56.5 Q-99 -56 -90 -54 Q-69 -48 -48 -35 Q-25 -21 -4.5 -3.5 Q16 14 35 34 Q89 93 122 167 Z " />
<glyph glyph-name="t" unicode="t" horiz-adv-x="756" d="M757 380 L757 379 L685 357 Q662 350 638.5 343 Q615 336 592 328 Q552 315 513 302 Q474 289 434 276 Q381 258 329 238.5 Q277 219 224 197 Q188 183 151.5 168 Q115 153 79 139 Q49 127 19 121 Q2 118 -14 121 Q-46 127 -52 161 Q-55 175 -53 192 Q-51 216 -46 238.5 Q-41 261 -35 284 Q-21 329 -4.5 371 Q12 413 32 455 Q34 457 34 457 L34 459 Q30 458 24 458 Q-2 455 -27 452.5 Q-52 450 -78 448 Q-94 446 -109.5 444.5 Q-125 443 -141 441 Q-143 441 -144 440 Q-145 439 -147 439 Q-149 439 -151 441 Q-150 442 -150 442.5 Q-150 443 -149 444 Q-145 444 -137 446 Q-119 448 -101 450.5 Q-83 453 -64 455 Q-41 458 -17 460.5 Q7 463 31 466 Q36 467 37.5 468 Q39 469 42 474 Q56 503 73.5 529.5 Q91 556 111 581 L114 584 Q116 586 120 584 L120 581 Q102 554 85.5 527 Q69 500 54 471 Q54 470 53.5 470 Q53 470 53 468 Q55 468 57.5 468.5 Q60 469 62 469 Q81 470 100 471 Q119 472 138 474 Q155 475 171 475.5 Q187 476 203 478 Q217 479 231.5 479.5 Q246 480 260 480 Q276 481 292 481.5 Q308 482 325 483 L368 483 Q377 483 386.5 483 Q396 483 405 481 Q411 479 418 476 Q421 476 421 472 L418 472 Q413 474 407.5 475 Q402 476 396 477 L367 477 L338 477 Q330 476 321 476 Q312 476 304 475 Q295 475 286 474.5 Q277 474 268 474 Q258 473 248.5 472.5 Q239 472 230 472 Q220 471 211 470.5 Q202 470 193 470 Q183 469 173 468.5 Q163 468 153 467 Q141 467 129.5 466.5 Q118 466 106 465 Q92 463 79 462.5 Q66 462 52 460 Q48 460 47 457 Q28 419 12 379.5 Q-4 340 -17 299 Q-22 285 -25.5 271 Q-29 257 -33 243 Q-41 208 -41 176 Q-41 161 -35 146 Q-26 128 -6 126 Q5 125 16.5 127.5 Q28 130 39 133 Q59 139 77.5 147 Q96 155 115 163 Q157 180 199 197.5 Q241 215 284 231 Q302 238 320.5 244.5 Q339 251 357 257 L358 257 Q369 262 380 265.5 Q391 269 402 273 Q410 275 418 278 Q426 281 434 283 Q472 295 512 308 Q552 321 586 332 Q626 344 664 356 Q681 361 696.5 365 Q712 369 726 373 Q741 377 756 381 L757 380 Z " />
<glyph glyph-name="u" unicode="u" horiz-adv-x="666" d="M667 381 Q668 378 668.5 377.5 Q669 377 664 376 Q659 375 651.5 373 Q644 371 637 369 L477 330 Q461 325 445.5 321 Q430 317 415 312 Q360 296 311 283 Q290 277 268 271.5 Q246 266 226 260.5 Q206 255 189 250.5 Q172 246 160 243 Q151 241 137 239 Q123 237 115 241 Q113 241 112 242 L111 243 Q111 243 110 244 Q100 251 103 264 Q104 272 107 280.5 Q110 289 115 297 Q119 303 122 309 Q125 315 129 321 L142 347 Q138 346 131 342.5 Q124 339 116.5 335 Q109 331 102.5 327 Q96 323 94 322 Q83 316 73 309.5 Q63 303 53 297 Q25 280 0 266 Q-8 261 -16 260 Q-32 255 -36 271 Q-38 277 -38 282.5 Q-38 288 -37 294 Q-31 336 -7 372 Q-3 378 0 381 Q4 383 6 379 Q-4 365 -10 346 Q-14 338 -17.5 329.5 Q-21 321 -23 313 Q-29 292 -28 275 Q-28 273 -26 267 Q-25 263 -19 264 Q-12 265 -6 268 Q0 271 5 274 Q21 284 36.5 293 Q52 302 68 312 Q76 317 84 322 Q92 327 100 332 Q100 333 101 333 Q107 337 120.5 344 Q134 351 142 351 Q145 351 147 350 Q150 347 149 343 Q148 337 145.5 332 Q143 327 141 322 Q136 310 130 298.5 Q124 287 119 276 Q115 267 115 255 Q116 245 126 245 Q140 244 159 249 Q161 250 162 250 Q163 250 165 251 Q166 251 166.5 251.5 Q167 252 168 252 Q207 263 249.5 274.5 Q292 286 335 297.5 Q378 309 419 319.5 Q460 330 497 339 Q583 361 667 381 Z " />
<glyph glyph-name="v" unicode="v" horiz-adv-x="533" d="M533 381 Q534 380 534 378.5 Q534 377 533 377 Q516 374 499 371 Q482 368 466 365 Q441 360 416.5 355 Q392 350 368 345 Q345 341 323 336.5 Q301 332 279 328 Q269 326 254 323.5 Q239 321 222 319 Q205 317 187.5 316 Q170 315 155 316 L154 316 Q150 317 146.5 317 Q143 317 139 318 Q138 318 138 318.5 Q138 319 137 319 Q123 322 116 326.5 Q109 331 106 335.5 Q103 340 103.5 343 Q104 346 104 347 L104 348 L94 337 Q85 328 76 319 Q67 310 57 301 Q37 281 16 263 Q11 259 6.5 255.5 Q2 252 -4 250 Q-12 248 -17 249 Q-29 252 -32 264 Q-34 272 -34 279 Q-34 286 -32 294 Q-30 310 -25.5 325 Q-21 340 -14 354 Q-11 361 -8 367.5 Q-5 374 -1 380 Q2 383 2 383 Q8 383 6 378 Q1 365 -3 353 Q-7 341 -12 328 Q-22 301 -23 275 Q-23 270 -22.5 266 Q-22 262 -20 258 Q-19 254 -13 255 Q-7 257 -1.5 260 Q4 263 9 267 L48 303 L105 357 Q107 361 113 358 Q116 356 115 352 Q113 348 113 345 Q110 335 121 330 Q126 328 131.5 327 Q137 326 142 325 Q160 322 177.5 322.5 Q195 323 213 325 Q218 325 224 325.5 Q230 326 235 327 Q243 329 251.5 329.5 Q260 330 268 332 Q276 334 283 335 Q290 336 297 337 Q306 339 315 340.5 Q324 342 332 344 L365 350 Q373 352 382 353.5 Q391 355 399 357 Q408 359 416.5 360.5 Q425 362 433 364 L469 370 Q482 373 502 376.5 Q522 380 533 381 Z " />
<glyph glyph-name="w" unicode="w" horiz-adv-x="669" d="M671 379 Q673 377 669 377 L666 377 Q652 377 640 378 Q629 379 618 379 Q607 379 601 380 Q588 381 575 381 Q562 381 549 381 Q529 382 508.5 382 Q488 382 468 383 L422 383 Q409 382 396.5 382 Q384 382 371 381 L341 381 Q333 380 324.5 379.5 Q316 379 308 379 Q299 379 290 378.5 Q281 378 273 377 Q264 377 255 376.5 Q246 376 237 375 Q230 374 223 373.5 Q216 373 209 372 Q207 372 207 371.5 Q207 371 206 371 Q196 368 199 360 Q200 356 202 346 Q205 328 198 314 Q187 291 170 274 Q153 257 128 246 Q113 239 101 238 Q89 237 79 241 Q61 247 61 266 Q60 278 62.5 289 Q65 300 69 311 Q74 322 78 331.5 Q82 341 87 351 Q88 352 88 353 L88 354 Q85 351 82 348.5 Q79 346 76 343 Q60 328 44 312.5 Q28 297 12 281 Q4 274 -3.5 267 Q-11 260 -20 254 Q-23 252 -26 250.5 Q-29 249 -34 249 Q-45 247 -47 258 Q-48 264 -47 270 Q-46 276 -44 281 Q-36 307 -25.5 332.5 Q-15 358 0 381 Q2 385 5 388 Q8 391 11 395 Q12 396 15 396 Q16 396 17 395 Q13 389 11 387 Q3 372 -3.5 357.5 Q-10 343 -17 327 Q-22 314 -26.5 301.5 Q-31 289 -34 276 Q-36 271 -37 266 Q-38 261 -37 256 Q-37 255 -36.5 254.5 Q-36 254 -36 253 L-30 256 Q-25 260 -20 263.5 Q-15 267 -10 272 Q3 283 15 295 Q27 307 40 318 Q52 329 64 340 Q76 351 88 362 Q92 366 97 364 Q101 363 101 359 Q100 356 99 353 Q98 350 97 348 Q92 335 88 323 Q84 311 79 298 Q74 283 74 269 Q74 265 74 261 Q74 257 76 253 Q82 243 94 244 Q110 246 123 253 Q141 262 156.5 273.5 Q172 285 183 301 Q195 316 195 335 Q195 340 194 345 Q193 350 191 355 Q188 359 188 366 Q186 373 193 376 Q197 378 201 379 Q205 380 210 381 Q220 382 229.5 383 Q239 384 249 385 Q260 386 270 386.5 Q280 387 290 387 Q298 388 306 388 Q314 388 322 389 Q336 389 349.5 389.5 Q363 390 377 390 L391 390 Q422 389 453 388.5 Q484 388 515 387 Q541 387 565.5 386.5 Q590 386 616 385 Q618 385 619.5 384.5 Q621 384 623 384 Q629 384 637 383.5 Q645 383 652 382 Q660 381 669 381 L671 379 Z " />
<glyph glyph-name="x" unicode="x" horiz-adv-x="502" d="M378 338 Q343 327 309.5 316 Q276 305 241 293 Q214 284 187 274.5 Q160 265 133 256 Q112 249 91 243 Q70 237 48 232 Q37 230 27 228.5 Q17 227 6 228 Q-10 230 -20 236 Q-29 243 -34 255 Q-34 256 -34.5 256 Q-35 256 -35 257 L-36 258 Q-39 254 -46 247 Q-54 239 -62.5 230 Q-71 221 -79 213 Q-102 188 -125 161 Q-133 153 -139.5 143.5 Q-146 134 -154 125 Q-156 123 -157 124 Q-159 125 -157 127 Q-143 151 -126 169 Q-114 183 -101.5 196.5 Q-89 210 -76 224 Q-58 245 -38 265 Q-37 266 -37 268 Q-37 282 -34.5 295 Q-32 308 -27 320 Q-20 340 -11.5 358.5 Q-3 377 7 395 Q7 397 10 397 L11 397 L12 396 Q13 394 12.5 393.5 Q12 393 12 392 Q10 385 7 379 Q4 373 2 366 Q-5 351 -11 336 Q-17 321 -21 304 Q-23 298 -24 292 Q-25 286 -27 280 L-27 278 Q-23 280 -22 281 Q-10 293 1.5 305 Q13 317 25 329 L54 358 Q62 365 69.5 371 Q77 377 86 382 Q88 384 91 384.5 Q94 385 96 386 Q103 388 103 380 Q101 380 100 381 Q99 382 96 381 Q91 377 87 374 Q83 371 79 368 Q63 355 48.5 341.5 Q34 328 20 314 L-25 269 Q-27 267 -27 264 Q-26 261 -26 258 Q-26 255 -24 253 Q-22 244 -15.5 240.5 Q-9 237 -1 236 Q10 234 20 236 Q30 238 41 240 Q61 245 80 251 Q99 257 119 263 Q154 274 187.5 285 Q221 296 255 307 Q288 318 321 328 Q354 338 387 348 Q402 353 416.5 357 Q431 361 446 366 Q454 368 464 371 Q474 374 482 376 Q492 379 502 381 Q504 381 504 378.5 Q504 376 502 376 L437 357 Q429 354 421.5 351.5 Q414 349 406 347 L405 347 L378 338 Z " />
<glyph glyph-name="y" unicode="y" horiz-adv-x="606" d="M608 379 Q611 376 606 376 Q589 370 571 364 Q553 358 536 352 Q488 335 441 317.5 Q394 300 346 282 Q304 266 262.5 249.5 Q221 233 179 216 L95 180 Q93 179 89 175 Q67 125 37 82 Q25 65 12 50 Q-1 35 -18 21 Q-28 13 -38.5 6.5 Q-49 0 -62 -4 Q-78 -8 -89 -5 Q-108 1 -110 22 Q-111 33 -107.5 43 Q-104 53 -98 63 Q-82 88 -57 108 Q-36 125 -13 138.5 Q10 152 34 164 Q44 169 54.5 174 Q65 179 76 184 Q79 186 81 189 Q100 237 117 285 Q121 299 125 314 Q129 329 133 343 Q135 348 135 353 Q135 358 135 363 Q136 370 130 367 Q122 365 115.5 361 Q109 357 102 353 L42 314 Q34 310 27.5 306.5 Q21 303 13 299 Q2 292 -9 297 Q-21 302 -21 317 Q-22 328 -18.5 339 Q-15 350 -10 361 Q-8 366 -5 371.5 Q-2 377 0 382 Q3 385 3 385 Q7 385 8 384 L8 380 Q5 371 1.5 361.5 Q-2 352 -5 342 Q-10 326 -9 315 Q-9 308 -8 305 Q-7 301 -1 302 Q6 304 12.5 307 Q19 310 25 314 Q40 323 55 332.5 Q70 342 84 352 Q99 361 115 369 Q123 374 131 374 Q148 374 148 359 Q149 345 144 326 Q136 293 125 261.5 Q114 230 100 198 Q100 197 99.5 196.5 Q99 196 99 194 Q100 195 100.5 195 Q101 195 102 196 Q148 216 193.5 234.5 Q239 253 287 270 Q350 293 411.5 315 Q473 337 536 359 Q541 361 546 362.5 Q551 364 556 366 L606 381 L608 379 Z M72 168 Q71 168 71 169 Q70 168 68 168 Q58 163 48.5 158 Q39 153 29 148 Q9 138 -9.5 127 Q-28 116 -46 102 Q-57 93 -67.5 82.5 Q-78 72 -86 60 Q-92 50 -96 40 Q-100 30 -98 18 Q-97 7 -89 2 Q-81 -3 -70 0 Q-62 2 -55 5.5 Q-48 9 -40 14 Q-24 25 -11 38.5 Q2 52 13 67 Q29 88 42 110.5 Q55 133 66 156 L72 168 Z " />
<glyph glyph-name="z" unicode="z" horiz-adv-x="517" d="M519 379 Q522 376 518 376 L470 352 Q440 337 410 322.5 Q380 308 350 293 Q313 274 276.5 255.5 Q240 237 202 218 Q173 203 143.5 188.5 Q114 174 84 160 Q81 159 80 156 Q72 122 56 92 Q40 62 18 34 Q-57 -59 -162 -111 Q-195 -129 -227 -134 Q-242 -137 -256.5 -137 Q-271 -137 -285 -132 Q-307 -125 -315 -107 Q-325 -89 -315 -66 Q-310 -55 -303.5 -46.5 Q-297 -38 -289 -30 Q-275 -16 -260 -5 Q-245 6 -228 17 Q-198 36 -166.5 52.5 Q-135 69 -103 85 Q-61 105 -19.5 125 Q22 145 64 165 Q67 166 69 171 Q70 180 71 189 Q72 198 73 207 Q74 227 70 245 Q66 263 56 280 Q49 291 39.5 299 Q30 307 18 313 Q14 315 10.5 317.5 Q7 320 2 322 Q-3 324 -5 328 Q-10 335 -5 340 Q0 345 3.5 348.5 Q7 352 12 356 Q22 364 32 372 Q42 380 52 388 L58 394 Q55 394 49 392 Q23 385 -4 372 Q-8 370 -9 370 Q-13 368 -14 371 Q-14 374 -11 374 Q3 384 19.5 389 Q36 394 52 399 Q56 400 61 399 Q71 397 64 388 Q59 383 54 378.5 Q49 374 44 369 Q36 362 28.5 355.5 Q21 349 13 342 Q8 340 4 333 Q1 330 5 327 Q13 322 21 319 Q50 303 65 279.5 Q80 256 85 225 Q88 201 85 178 L85 176 L85 175 Q85 175 89 177 Q131 197 172.5 217 Q214 237 256 257 Q308 282 359 306.5 Q410 331 462 356 Q467 358 472 360.5 Q477 363 482 365 L517 381 L519 379 Z M60 139 Q61 141 61.5 144 Q62 147 64 150 Q62 150 61.5 149.5 Q61 149 60 149 Q31 135 1.5 121 Q-28 107 -57 93 Q-91 76 -124.5 60 Q-158 44 -191 25 Q-211 13 -231 0.5 Q-251 -12 -269 -27 Q-279 -35 -287 -44 Q-295 -53 -301 -64 Q-306 -72 -308 -80.5 Q-310 -89 -308 -99 Q-304 -120 -281 -128 Q-269 -132 -257 -131.5 Q-245 -131 -233 -128 Q-204 -122 -174 -108 Q-67 -55 5 39 Q43 86 60 139 Z " />
<glyph glyph-name="d" unicode="d" horiz-adv-x="558" d="M489 350 Q488 350 488 349 Q363 295 245 229 Q228 219 211 210.5 Q194 202 177 194 Q160 185 141 182 Q135 181 128.5 180.5 Q122 180 116 182 Q101 185 91 200 Q86 208 83.5 216 Q81 224 79 233 Q75 255 77 276 Q79 297 83 318 Q88 350 97.5 380.5 Q107 411 118 441 Q129 472 142 502 Q155 532 169 561 Q171 563 171.5 566 Q172 569 174 572 Q171 571 169 567 Q161 553 153 539 Q145 525 137 511 Q117 476 98 442 Q79 408 58 375 Q48 360 38 345.5 Q28 331 15 319 Q10 314 5 309.5 Q0 305 -6 302 Q-16 297 -24 297 Q-41 297 -43 314 Q-43 317 -43 320.5 Q-43 324 -42 327 Q-36 352 -18 370 Q-13 375 -7.5 378 Q-2 381 6 382 Q15 383 24 378 Q29 375 26 371 L20 374 Q13 379 6 376.5 Q-1 374 -6 369 Q-26 351 -32 321 Q-32 318 -32 314.5 Q-32 311 -30 308 Q-28 301 -19 302 Q-14 304 -10.5 306.5 Q-7 309 -3 312 Q12 324 25 342 Q55 378 75 417 Q95 451 113.5 484 Q132 517 151 551 Q172 589 194.5 626.5 Q217 664 240 701 Q240 703 241 704 Q244 707 247 705 Q252 704 250 699 Q248 693 246 690 Q232 662 219 635 Q206 608 192 581 Q172 539 154 498 Q136 457 121 413 Q113 387 105.5 361.5 Q98 336 93 310 Q91 294 89 278 Q87 262 89 246 Q90 238 91 231 Q92 224 95 216 Q97 208 101 203 Q113 182 138 187 Q154 190 168 196 Q185 205 201.5 213.5 Q218 222 235 231 Q267 248 299.5 265.5 Q332 283 366 299 Q409 319 452 338 Q495 357 540 374 Q545 376 549 377.5 Q553 379 558 381 L559 380 L559 379 Q559 378 544.5 372.5 Q530 367 515 361 Q514 360 512 360 Q507 358 502.5 356 Q498 354 493 352 Q489 350 489 350 Z " />
<glyph glyph-name="A" unicode="A" horiz-adv-x="1016" d="M1018 369 Q1017 369 1017 368 Q981 330 945 292.5 Q909 255 873 217 Q835 176 796.5 135.5 Q758 95 719 55 Q681 14 642 -25 Q603 -64 563 -103 Q543 -122 522.5 -141 Q502 -160 481 -179 Q463 -196 442.5 -212 Q422 -228 398 -235 Q397 -235 397 -235.5 Q397 -236 396 -236 Q378 -241 366 -234.5 Q354 -228 347 -215.5 Q340 -203 337 -187 Q334 -171 333 -157 Q330 -120 335 -82 Q340 -44 349.5 -7 Q359 30 371.5 66.5 Q384 103 396 138 L402 156 Q404 162 407 168 Q410 174 412 180 Q415 189 418 198 Q421 207 425 216 Q427 223 430 229 Q433 235 435 242 Q439 251 442.5 260 Q446 269 449 278 Q452 284 454.5 290 Q457 296 460 302 Q465 314 470 325.5 Q475 337 480 349 Q482 355 485 361 Q488 367 490 373 Q495 385 500.5 396.5 Q506 408 511 419 Q513 424 516 429.5 Q519 435 521 440 Q526 449 529.5 458 Q533 467 538 476 Q540 481 542.5 486 Q545 491 548 496 Q550 501 553 506.5 Q556 512 558 517 L563 526 Q529 474 492 418 Q460 370 421 311 Q382 252 342 193 Q302 133 271 91.5 Q240 50 218 23 Q192 -9 174 -30 Q172 -33 166 -40 Q161 -46 150.5 -57 Q140 -68 123 -88 Q113 -98 104 -107 Q95 -116 84 -125 Q72 -136 58 -146.5 Q44 -157 28 -163 Q15 -168 1.5 -167.5 Q-12 -167 -22 -158 Q-30 -151 -35 -142.5 Q-40 -134 -45 -124 Q-47 -119 -48 -114.5 Q-49 -110 -51 -105 Q-53 -100 -54 -94.5 Q-55 -89 -56 -84 Q-58 -76 -58.5 -67.5 Q-59 -59 -60 -51 Q-61 -40 -61 -30 Q-61 -20 -61 -9 Q-62 -4 -61.5 0 Q-61 4 -61 9 Q-60 14 -60 19.5 Q-60 25 -60 30 Q-58 41 -57.5 51 Q-57 61 -55 72 Q-54 83 -53 93 Q-52 103 -50 114 Q-48 124 -46.5 133 Q-45 142 -43 152 Q-42 155 -41.5 158.5 Q-41 162 -40 165 Q-39 170 -38 175 Q-37 180 -36 185 Q-34 193 -32.5 200 Q-31 207 -29 215 Q-27 220 -26 225.5 Q-25 231 -23 237 Q-21 245 -19.5 251.5 Q-18 258 -16 266 Q-12 278 -9 290 Q-6 302 -1 314 Q4 331 9.5 347.5 Q15 364 21 381 Q24 390 27.5 399 Q31 408 34 417 Q37 424 39.5 430 Q42 436 45 443 Q47 449 50 455 Q53 461 56 468 L77 513 Q79 518 82 523.5 Q85 529 88 534 Q93 543 98 552 Q103 561 108 570 Q112 577 116 583 Q120 589 124 596 Q128 601 131.5 606 Q135 611 138 616 Q140 620 142.5 622.5 Q145 625 147 628 Q153 635 158.5 641.5 Q164 648 169 654 Q171 658 173.5 660.5 Q176 663 179 666 Q183 671 187 674.5 Q191 678 195 683 Q198 685 201 688 Q204 691 207 693 Q212 698 218 702 Q224 706 229 711 Q232 714 240 718 Q245 721 249 724 Q253 727 258 729 Q267 734 275 737 L296 743 Q313 747 330 744 Q345 741 354 734 Q366 726 375 713 Q379 708 381.5 702.5 Q384 697 387 691 Q392 682 393.5 672 Q395 662 397 651 Q399 643 399 635 Q399 627 400 619 Q400 608 399.5 596.5 Q399 585 398 574 Q398 567 397 561 Q396 555 395 548 Q395 547 393 538.5 Q391 530 387 531 Q385 532 384.5 535 Q384 538 384 540 Q384 541 384.5 541.5 Q385 542 385 543 Q386 547 386.5 551 Q387 555 388 560 Q390 571 390 580.5 Q390 590 391 601 Q391 610 390.5 619 Q390 628 389 638 Q389 646 387.5 654.5 Q386 663 384 671 Q382 679 379.5 685.5 Q377 692 374 699 Q371 705 367.5 709.5 Q364 714 360 719 Q350 729 339 733 Q331 737 323.5 737.5 Q316 738 308 737 Q302 737 294 735 Q279 730 269 725 Q265 723 261.5 721 Q258 719 254 716 Q247 711 240.5 706.5 Q234 702 227 697 Q214 687 206 678 Q200 672 194 666 Q188 660 182 653 Q177 648 173 642.5 Q169 637 164 631 Q159 625 154.5 618.5 Q150 612 145 605 Q134 590 125 576 Q121 569 117.5 563 Q114 557 110 550 L98 529 Q95 523 92 516.5 Q89 510 85 504 Q82 497 79 491 Q76 485 73 478 Q68 465 62 452.5 Q56 440 51 427 Q48 419 44.5 410.5 Q41 402 38 393 Q30 373 22 349 Q19 340 16 331 Q13 322 10 312 Q8 307 7 301.5 Q6 296 4 291 Q1 281 -2 271.5 Q-5 262 -7 252 Q-9 247 -11 237 Q-14 227 -16.5 217 Q-19 207 -21 196 Q-25 182 -27.5 167.5 Q-30 153 -33 138 Q-35 127 -37 115.5 Q-39 104 -41 92 Q-43 81 -43.5 70 Q-44 59 -46 48 Q-47 40 -47.5 32.5 Q-48 25 -49 17 L-49 6 Q-49 1 -49 -4.5 Q-49 -10 -50 -15 Q-50 -19 -49.5 -23 Q-49 -27 -49 -31 Q-49 -39 -48.5 -45.5 Q-48 -52 -47 -60 Q-46 -80 -41 -100 Q-39 -108 -36 -114.5 Q-33 -121 -30 -129 Q-28 -134 -25.5 -137.5 Q-23 -141 -20 -145 Q-15 -150 -10 -154 Q-5 -158 2 -159 Q19 -162 37 -150 Q55 -138 68 -128 Q94 -108 115.5 -84 Q137 -60 158 -36 Q193 5 231 54.5 Q269 104 307.5 157.5 Q346 211 383 266 Q420 321 453 372 Q531 492 608 616 Q610 617 613 617 L615 617 Q619 616 618 612 Q615 606 613 600 Q611 595 609.5 591.5 Q608 588 606 584 Q603 579 600.5 573 Q598 567 595 562 Q589 547 581 531 Q578 526 575.5 521 Q573 516 570 511 Q562 493 553 474 L541 450 Q537 441 533 432 Q529 423 525 414 Q516 397 509 379 L497 352 Q494 345 491 337.5 Q488 330 485 323 Q479 309 473 295 Q467 281 462 267 Q460 262 458 257.5 Q456 253 454 248 Q449 237 444.5 225 Q440 213 435 201 Q432 193 428.5 184.5 Q425 176 422 168 L407 126 Q403 115 399.5 104 Q396 93 392 82 Q390 77 389 73.5 Q388 70 387 66 Q383 55 379.5 43.5 Q376 32 373 21 Q368 7 364.5 -8 Q361 -23 357 -37 Q349 -71 347 -111 Q345 -125 345 -138.5 Q345 -152 346 -166 Q347 -175 349 -186.5 Q351 -198 355.5 -207.5 Q360 -217 367.5 -223.5 Q375 -230 387 -228 Q400 -226 412.5 -219 Q425 -212 434 -206 Q445 -198 454.5 -189.5 Q464 -181 474 -172 Q484 -164 493.5 -154.5 Q503 -145 513 -136 Q533 -118 552 -99.5 Q571 -81 591 -62 Q629 -24 666.5 14.5 Q704 53 742 92 Q780 131 816.5 170.5 Q853 210 890 249 Q953 316 1016 381 Q1018 379 1019 377 Q1021 372 1018 369 Z " />
<glyph glyph-name="B" unicode="B" horiz-adv-x="1016" d="M1018 377 Q1020 372 1016 370 Q976 350 936.5 332.5 Q897 315 855 299 Q777 269 699 243.5 Q621 218 541 194 Q530 166 511 138 Q483 97 453 66 Q426 36 397 9 Q368 -18 338 -42 Q317 -59 295.5 -75 Q274 -91 252 -105 Q227 -122 202.5 -137.5 Q178 -153 152 -167 Q125 -181 98 -193.5 Q71 -206 44 -216 Q12 -227 -16 -230 Q-33 -232 -49 -231 Q-65 -230 -80 -224 Q-102 -215 -113 -192 Q-121 -173 -118 -151 Q-115 -125 -98 -98 Q-89 -83 -78 -70.5 Q-67 -58 -55 -47 Q-35 -29 -15 -14.5 Q5 0 26 13 Q36 18 46 24 Q56 30 66 35 Q84 45 102 53.5 Q120 62 138 70 Q157 78 176 85.5 Q195 93 214 100 Q233 107 252 113.5 Q271 120 291 127 Q311 133 330 139.5 Q349 146 369 152 Q410 165 450 177 Q490 189 531 201 Q538 221 539 232 Q539 233 539.5 233.5 Q540 234 540 235 Q542 247 540 258 L540 261 L540 265 Q538 276 533 284 Q528 292 521 299 Q512 307 500.5 312.5 Q489 318 477 321 Q451 327 419 325 Q405 324 391 322 Q377 320 363 317 Q304 303 246 278 Q220 268 191 255 Q186 253 180.5 251 Q175 249 170 249 Q162 249 161 256 Q161 259 162 261 Q165 269 171 275 Q179 286 188 296.5 Q197 307 205 318 Q219 335 232.5 350.5 Q246 366 259 382 Q277 403 294.5 423.5 Q312 444 329 466 Q344 484 358.5 503 Q373 522 387 541 Q401 561 415 581 Q429 601 441 622 Q453 642 458 658 Q459 662 460 665.5 Q461 669 461 673 Q462 685 451 685 Q440 686 424 679 Q409 673 394 664.5 Q379 656 365 645 Q343 629 322 611.5 Q301 594 281 575 Q251 546 222 515 Q193 484 164 451 Q137 418 110.5 384 Q84 350 59 314 Q43 291 27.5 268.5 Q12 246 -3 222 Q-21 193 -38 164 Q-55 135 -71 104 L-80 83 Q-81 82 -81 81.5 Q-81 81 -82 80 Q-84 76 -85 76 Q-91 74 -91 81 L-91 83 Q-80 111 -69 138.5 Q-58 166 -47 194 Q-39 212 -32 230.5 Q-25 249 -17 268 Q-8 291 1.5 313 Q11 335 20 358 L53 439 Q67 474 81 507.5 Q95 541 109 576 Q120 603 132 629.5 Q144 656 156 682 Q161 694 167 706 Q173 718 179 730 L182 733 Q184 737 186 738 L186 739 Q187 739 188.5 739.5 Q190 740 192 739 Q194 737 193 733 Q192 729 191 727 L190 727 Q180 706 161 663 Q142 620 119.5 566 Q97 512 72.5 452.5 Q48 393 26.5 340 Q5 287 -11.5 245.5 Q-28 204 -35 186 Q-34 187 -34 187.5 Q-34 188 -33 189 Q-11 226 12 261.5 Q35 297 60 332 Q82 362 104.5 390.5 Q127 419 151 448 Q171 471 191 493.5 Q211 516 232 537 Q252 558 272.5 577.5 Q293 597 314 615 Q332 630 350 643.5 Q368 657 387 668 Q400 676 413 682.5 Q426 689 439 692 Q445 693 450.5 693 Q456 693 461 691 Q474 688 471 669 Q469 658 464.5 647.5 Q460 637 455 627 Q445 607 433.5 589.5 Q422 572 410 555 Q391 529 372.5 504.5 Q354 480 334 456 Q311 428 289 401 Q267 374 244 346 L187 280 Q184 275 180.5 271 Q177 267 174 262 Q173 261 173 260.5 Q173 260 172 259 L172 258 Q176 260 179.5 260.5 Q183 261 187 263 Q204 271 222 278.5 Q240 286 258 293 Q280 302 302 309 Q324 316 347 322 Q364 326 380 328.5 Q396 331 413 333 Q433 335 452 333.5 Q471 332 489 327 Q514 321 532 303 Q549 287 552 263 Q553 258 553 247 Q553 236 550 221 Q548 217 547.5 213.5 Q547 210 545 205 Q585 218 625 230 Q665 242 705 255 Q785 281 863 312 Q941 343 1016 381 L1018 377 Z M520 177 Q524 185 526 190 Q524 189 523 189 Q522 189 520 188 Q435 162 351.5 136 Q268 110 185 79 Q185 78 184 78 Q163 69 141.5 59.5 Q120 50 98 39 Q75 28 53.5 16.5 Q32 5 10 -9 Q-9 -22 -28 -36 Q-47 -50 -64 -69 Q-73 -78 -81 -88.5 Q-89 -99 -96 -112 Q-106 -129 -109 -151 Q-112 -185 -94 -203 Q-76 -221 -47 -223 Q-29 -225 -10.5 -221.5 Q8 -218 27 -211 Q52 -203 76.5 -192.5 Q101 -182 125 -170 Q205 -127 278 -73 Q346 -25 408 36 Q429 57 449 79.5 Q469 102 488 127 Q506 151 519 177 L520 177 Z " />
<glyph glyph-name="C" unicode="C" horiz-adv-x="879" d="M879 372 Q868 367 857 360.5 Q846 354 835 347 Q806 328 777 308 Q748 288 719 266 Q687 243 655.5 219 Q624 195 592 171 Q572 156 552.5 140.5 Q533 125 513 109 L417 28 Q394 9 372.5 -10 Q351 -29 328 -48 Q307 -66 285.5 -84 Q264 -102 243 -120 Q214 -143 184.5 -164 Q155 -185 125 -203 Q106 -214 87.5 -222.5 Q69 -231 50 -236 Q43 -238 36 -239 Q29 -240 22 -242 L20 -242 Q16 -242 12.5 -241.5 Q9 -241 5 -241 Q3 -241 2 -240.5 Q1 -240 -1 -240 Q-27 -234 -43 -209 Q-53 -194 -58 -175.5 Q-63 -157 -66 -136 Q-71 -103 -69 -67.5 Q-67 -32 -62 4 Q-60 18 -58 30.5 Q-56 43 -54 57 L-45 102 Q-45 105 -44 106 Q-41 120 -37.5 135 Q-34 150 -30 165 Q-29 165 -29 167 Q-26 176 -23.5 185.5 Q-21 195 -18 204 Q-14 215 -11 225.5 Q-8 236 -4 247 Q8 282 22 315.5 Q36 349 52 382 Q86 456 127 519 Q163 575 202 620 Q225 646 248 668 Q271 690 297 707 Q312 718 327.5 725.5 Q343 733 359 737 Q371 741 382.5 741.5 Q394 742 405 737 Q430 728 438 693 Q442 670 439 641 Q437 629 435.5 617 Q434 605 430 594 Q425 573 415 555 Q413 553 412 551 Q408 547 406 550 Q403 553 406 558 Q414 574 418 589 Q419 594 420 599.5 Q421 605 422 610 Q424 616 424.5 622 Q425 628 426 634 Q429 650 429.5 665.5 Q430 681 426 695 Q418 725 395 731 Q385 733 374.5 731.5 Q364 730 353 726 Q335 719 317 708 Q299 697 282 683 Q255 661 230.5 635 Q206 609 183 579 Q167 557 151.5 534.5 Q136 512 122 488 Q111 469 100 449.5 Q89 430 79 410 Q68 387 57.5 365 Q47 343 38 320 Q31 303 24.5 287 Q18 271 12 254 L-3 209 Q-9 189 -15 169 Q-21 149 -26 128 L-38 74 Q-42 56 -44.5 38.5 Q-47 21 -49 3 Q-54 -30 -55 -62 Q-56 -94 -53 -124 Q-50 -167 -34 -197 Q-20 -222 3 -229 Q14 -232 25 -229 Q45 -227 64 -218.5 Q83 -210 103 -199 Q129 -185 154 -168.5 Q179 -152 204 -134 Q233 -112 261 -89.5 Q289 -67 318 -43 Q339 -25 359.5 -7 Q380 11 401 28 Q428 51 454.5 73 Q481 95 508 117 Q531 136 554 153.5 Q577 171 600 189 Q626 209 653 228.5 Q680 248 707 268 Q738 291 769 313 Q800 335 832 355 Q844 363 855.5 369.5 Q867 376 879 381 Q880 380 881 378 Q883 373 879 372 Z " />
<glyph glyph-name="D" unicode="D" horiz-adv-x="1089" d="M1091 379 Q1094 376 1090 374 Q1089 374 1088.5 373.5 Q1088 373 1087 373 Q1065 365 1044 357.5 Q1023 350 1002 342 Q978 334 954.5 325.5 Q931 317 907 309 Q880 299 853 290 Q826 281 798 271 Q781 265 763.5 259 Q746 253 728 247 Q705 239 683.5 232 Q662 225 640 217 Q617 209 595 202 Q573 195 550 188 Q548 187 545 184 Q522 156 498.5 129 Q475 102 449 76 Q405 32 359 -8 Q295 -62 223 -106 Q199 -120 174.5 -132 Q150 -144 125 -152 Q108 -157 92 -161 Q76 -165 59 -164 Q48 -164 38 -162 Q28 -160 20 -154 Q-1 -139 3 -110 Q7 -86 23 -62 Q31 -48 41.5 -36 Q52 -24 63 -13 Q84 9 107.5 26 Q131 43 157 57 Q206 82 256 102 Q316 124 376 144 Q409 155 441.5 164.5 Q474 174 507 185 Q514 187 520.5 189 Q527 191 533 193 Q535 193 537 196 Q588 258 628 323 Q649 356 667.5 390.5 Q686 425 700 461 Q705 472 708.5 484 Q712 496 716 508 Q724 536 727 559 Q729 577 728.5 594 Q728 611 722 627 Q711 660 677 666 Q659 669 639 666 Q613 661 588 651.5 Q563 642 538 629 Q510 614 483 597 Q456 580 430 561 Q402 541 375 518.5 Q348 496 322 473 Q279 434 237 391 Q214 367 191 341.5 Q168 316 146 290 Q116 254 88.5 216.5 Q61 179 35 141 Q13 109 -6.5 76 Q-26 43 -45 8 Q-50 0 -54 -9 Q-58 -18 -63 -27 Q-68 -38 -73.5 -50 Q-79 -62 -84 -74 L-90 -86 Q-92 -89 -96 -88 Q-98 -86 -98 -86 Q-98 -85 -99 -85 Q-100 -83 -98 -77 Q-97 -74 -96 -72 L30 235 L95 396 L233 733 Q233 735 235 737 Q239 741 243 741 Q248 740 248 736.5 Q248 733 246 729 L-33 45 Q-32 47 -31 48 Q-11 83 10.5 117 Q32 151 55 185 Q100 247 150 307 Q196 362 247 413 Q273 439 300.5 464 Q328 489 357 513 Q386 538 417 560.5 Q448 583 480 604 Q502 618 524 630 Q546 642 569 652 Q602 668 638 674 Q670 679 695 672 Q727 662 738 628 Q741 617 742 605 Q743 593 743 581 Q742 569 740.5 557 Q739 545 736 534 Q731 510 723 486.5 Q715 463 705 440 Q692 411 678 383.5 Q664 356 647 328 Q627 296 605 264.5 Q583 233 560 203 Q559 202 558 200 Q562 202 565.5 202.5 Q569 203 572 205 Q612 218 651.5 230.5 Q691 243 730 256 Q770 270 809.5 283 Q849 296 890 310 Q934 325 976.5 340.5 Q1019 356 1063 371 L1087 380 Q1087 380 1089 381 L1091 379 Z M499 150 Q506 157 512 164.5 Q518 172 525 180 Q523 179 522 179 Q496 171 470 162.5 Q444 154 418 146 Q391 138 364.5 129.5 Q338 121 312 112 Q283 102 255.5 91.5 Q228 81 201 67 Q148 44 101 9 Q63 -21 37 -57 Q29 -68 23 -80.5 Q17 -93 14 -106 Q11 -125 17 -135 Q22 -144 29 -148.5 Q36 -153 45 -155 Q62 -159 84 -154 Q116 -148 148 -133 Q174 -122 199 -108 Q224 -94 248 -77 Q277 -58 304.5 -37.5 Q332 -17 358 6 Q380 26 400.5 45.5 Q421 65 441 86 Q470 117 499 150 Z " />
<glyph glyph-name="E" unicode="E" horiz-adv-x="849" d="M782 332 Q738 304 689 270 Q640 236 599 206 Q558 176 530.5 155 Q503 134 502 133 Q488 122 474.5 111 Q461 100 447 89 Q443 86 439.5 83 Q436 80 433 77 Q430 75 427 72.5 Q424 70 420 67 Q415 62 409 57.5 Q403 53 398 48 Q390 42 387 39 Q382 35 377.5 31.5 Q373 28 368 24 Q361 17 357 14 L339 -1 Q336 -3 333.5 -5.5 Q331 -8 328 -10 Q321 -16 314 -22 Q307 -28 300 -34 Q295 -38 291 -41.5 Q287 -45 283 -49 Q276 -54 269.5 -60 Q263 -66 256 -71 Q251 -75 247 -78.5 Q243 -82 239 -85 Q233 -90 227.5 -94.5 Q222 -99 216 -104 Q213 -106 210 -108.5 Q207 -111 204 -114 Q199 -118 194 -121.5 Q189 -125 184 -129 Q181 -131 177.5 -133.5 Q174 -136 170 -139 Q159 -146 151 -153 Q149 -155 147 -155.5 Q145 -156 143 -158 Q138 -162 132 -165.5 Q126 -169 120 -173 Q117 -175 113 -177 Q106 -181 100 -184.5 Q94 -188 87 -191 Q76 -198 62 -203 Q57 -205 52 -207 Q47 -209 42 -211 L30 -214 Q25 -215 20.5 -215.5 Q16 -216 11 -217 Q6 -217 2.5 -217.5 Q-1 -218 -5 -216 Q-13 -216 -21 -211 Q-30 -206 -35 -197 Q-45 -176 -40 -145 Q-37 -134 -33.5 -122 Q-30 -110 -25 -99 Q-22 -92 -19.5 -85.5 Q-17 -79 -13 -72 Q-5 -55 4 -38 Q12 -26 19 -13.5 Q26 -1 34 11 Q40 20 46 29 Q52 38 59 47 Q67 58 74 68 Q81 78 89 88 Q93 94 97.5 100 Q102 106 107 111 Q113 119 119 127 Q125 135 132 143 Q137 149 141.5 155 Q146 161 151 167 Q157 174 163 180.5 Q169 187 175 195 Q180 200 185 206 Q190 212 195 217 L216 241 Q220 246 224 250 Q228 254 233 259 Q239 265 244.5 271 Q250 277 255 283 Q259 286 262 289.5 Q265 293 269 296 Q274 301 279 306 Q284 311 289 316 Q293 320 296.5 323 Q300 326 304 330 Q309 335 314 339.5 Q319 344 325 349 Q328 353 331.5 356 Q335 359 339 363 Q341 365 342 365.5 Q343 366 345 368 Q342 366 339.5 365 Q337 364 334 362 Q332 360 330 359 Q328 358 326 356 Q322 354 318 351 Q314 348 309 346 Q304 343 299 339.5 Q294 336 289 333 Q285 330 281 327.5 Q277 325 273 323 Q268 319 262.5 316 Q257 313 251 309 Q249 308 248 307 Q247 306 245 305 Q237 300 230.5 296 Q224 292 216 287 Q210 283 204 280 Q198 277 192 273 Q188 271 184.5 268.5 Q181 266 176 264 Q171 261 166 258 Q161 255 156 252 Q151 249 146 246 Q141 243 136 241 L124 235 Q119 233 114 230.5 Q109 228 104 226 Q102 225 99 224 Q96 223 94 222 Q89 220 83 219 Q77 218 72 216 Q64 214 58 214.5 Q52 215 45 217 Q42 218 36 222 Q28 229 25 238 Q23 243 22 247.5 Q21 252 21 257 Q19 271 22 284 Q23 299 28 314 Q29 319 30.5 324 Q32 329 34 334 Q34 336 34.5 336.5 Q35 337 35 339 Q37 342 37.5 345.5 Q38 349 40 353 Q41 354 41 354.5 Q41 355 42 356 Q46 365 49.5 374.5 Q53 384 57 393 Q64 408 71 423 Q78 438 86 452 Q104 485 125 518 L152 560 L185 605 Q192 613 198.5 621 Q205 629 213 637 Q221 646 228.5 654 Q236 662 244 670 Q252 677 258.5 683.5 Q265 690 273 695 Q278 698 281.5 701.5 Q285 705 290 707 Q300 714 311 719 Q320 724 328 727 Q333 729 336.5 729 Q340 729 345 731 Q358 734 371 729 Q382 726 391 716 Q396 710 401 698 Q404 690 405 681.5 Q406 673 406 664 Q406 654 404.5 644 Q403 634 401 624 Q398 611 394 598 Q390 585 385 572 Q383 567 381 563.5 Q379 560 377 555 L377 553 Q375 549 375 548 Q373 549 372 549 Q371 549 370 550 Q369 552 371 559 Q373 564 374.5 567.5 Q376 571 378 576 Q387 601 393 627 Q395 636 396 645.5 Q397 655 398 664 Q398 677 395 689 Q392 702 382 714 Q367 727 344 723 Q339 721 333.5 719.5 Q328 718 323 715 Q316 712 309.5 708 Q303 704 296 699 Q291 696 286 692 Q281 688 276 684 Q271 679 265.5 674.5 Q260 670 255 665 L232 642 Q227 637 222 631 Q217 625 212 619 Q206 612 200 605.5 Q194 599 189 591 Q183 583 177 575.5 Q171 568 166 560 Q160 551 153.5 542 Q147 533 142 524 Q136 515 130 506 Q124 497 118 487 Q113 477 107 467 Q101 457 96 447 Q90 436 84.5 425 Q79 414 74 403 Q67 390 62 377 Q57 364 52 351 Q46 334 41.5 318.5 Q37 303 35 286 Q32 261 37 245 Q40 237 44 232 Q53 225 62 225 Q67 226 71.5 227 Q76 228 81 229 L83 229 Q89 232 95 234 Q101 236 108 239 Q112 241 115.5 242.5 Q119 244 124 246 Q130 250 136 253 Q142 256 148 259 Q150 261 152 261.5 Q154 262 156 264 L183 279 Q188 281 191.5 284 Q195 287 200 289 Q206 293 211.5 296 Q217 299 223 303 Q225 305 227 305.5 Q229 306 231 308 Q243 315 253 322 Q260 326 266.5 329.5 Q273 333 279 338 Q284 341 288.5 344 Q293 347 298 350 Q303 353 308.5 356.5 Q314 360 319 363 Q323 366 327 368.5 Q331 371 335 373 Q340 377 345.5 380 Q351 383 356 387 Q358 389 360 389.5 Q362 390 364 392 Q369 396 375 399 Q381 402 386 406 Q391 408 394.5 411 Q398 414 402 416 Q406 419 409 422 Q412 425 416 427 Q419 429 422 432 Q425 435 428 437 Q433 441 438 444.5 Q443 448 448 452 Q452 454 455 457 L482 475 Q486 478 490 481 Q494 484 498 487 Q503 490 508 493 Q513 496 518 499 Q521 501 523.5 502.5 Q526 504 529 506 Q538 510 543 507 Q543 507 544 505 Q542 503 541 501 Q540 499 538 497 Q533 492 527 489 Q521 484 514.5 479.5 Q508 475 501 470 Q497 467 493 464.5 Q489 462 484 459 Q479 455 474 451.5 Q469 448 464 445 Q460 442 456 439.5 Q452 437 448 435 Q436 427 424 417 Q420 413 412 407 L394 392 Q389 388 385.5 385 Q382 382 377 378 Q372 373 366.5 368.5 Q361 364 356 359 Q354 357 351 354.5 Q348 352 346 350 Q341 345 335.5 340 Q330 335 325 330 Q321 326 317.5 323 Q314 320 310 316 Q304 310 298 304 Q292 298 285 292 L271 278 Q266 273 260 266.5 Q254 260 248 254 Q244 250 240 246 Q236 242 232 237 Q227 232 223 227 Q219 222 214 217 Q209 212 205.5 208 Q202 204 197 199 Q192 194 188 189 Q184 184 180 179 Q175 174 170.5 168 Q166 162 161 157 Q156 151 151 145 Q146 139 141 133 Q136 127 132 121.5 Q128 116 123 111 Q118 103 112 96 Q106 89 101 82 Q96 74 90.5 67.5 Q85 61 80 54 Q73 45 67 36 Q61 27 55 18 Q49 10 44 2 Q39 -6 34 -14 Q25 -28 16.5 -43 Q8 -58 0 -73 Q-6 -85 -10.5 -97 Q-15 -109 -20 -121 Q-28 -145 -28 -166 Q-28 -181 -22 -191 Q-18 -197 -12 -202 Q-5 -207 3 -207 Q11 -207 19 -205 Q23 -205 31 -203 Q43 -198 53 -195 Q58 -193 61.5 -191 Q65 -189 70 -187 Q75 -185 81 -182 Q87 -179 93 -176 Q98 -173 103 -170 Q108 -167 113 -164 Q118 -161 123 -158 Q128 -155 133 -152 Q139 -148 145 -144 Q151 -140 157 -136 Q167 -128 179 -120 Q184 -115 189.5 -111.5 Q195 -108 200 -103 Q208 -97 215.5 -91 Q223 -85 231 -79 Q235 -75 237 -74 Q237 -74 238 -73 Q241 -71 244 -68 Q247 -65 251 -62 Q253 -61 257 -57 Q264 -51 271.5 -45 Q279 -39 287 -32 Q315 -9 345 16 Q371 37 402.5 63 Q434 89 465 114 Q496 138 523 158 Q546 175 570 192.5 Q594 210 606 219 L609 222 Q624 233 629.5 236.5 Q635 240 637 241 Q722 301 774 334 Q826 367 849 381 Q849 380 850 380 Q850 379 850.5 379 Q851 379 851 378 L852 378 Q852 376 851 375 L790 337 Q789 337 788 336 Q786 335 785 334 Q784 333 782 332 Z " />
<glyph glyph-name="F" unicode="F" horiz-adv-x="833" d="M1095 624 Q1094 624 1093.5 623.5 Q1093 623 1092 623 Q1089 623 1089 625 Q1089 635 1076 635 Q1062 637 1048 636 Q1034 635 1020 633 Q1003 631 987.5 630 Q972 629 955 627 Q939 625 923.5 623 Q908 621 891 619 Q873 616 855 613.5 Q837 611 818 609 L740 597 Q725 595 710 592.5 Q695 590 680 588 Q659 585 638 582 Q617 579 596 575 Q574 572 552.5 568.5 Q531 565 509 561 Q483 557 457.5 552.5 Q432 548 406 543 L313 525 Q297 521 281.5 518 Q266 515 250 511 Q249 511 247 509 Q239 489 230 470.5 Q221 452 213 432 L177 351 Q166 327 156 303 Q146 279 136 256 Q131 244 125.5 231.5 Q120 219 115 206 Q115 205 114 205 Q118 205 126 207 Q151 212 175.5 217 Q200 222 225 227 Q248 232 271.5 236 Q295 240 318 244 L387 256 Q403 258 418.5 261 Q434 264 450 266 L498 272 Q520 275 542 275 Q545 274 548 274 Q551 274 554 273 Q557 272 558 269 Q559 266 557 263 Q555 261 552 261 Q548 261 551 264 Q553 268 548 269 Q542 271 536 270.5 Q530 270 523 270 Q467 264 412 255 Q390 251 368 247.5 Q346 244 323 239 Q291 233 258 227 Q225 221 192 214 Q172 210 152.5 206 Q133 202 113 197 Q110 195 110 194 L68 89 Q57 63 47.5 37 Q38 11 28 -15 Q15 -50 2 -86 Q-11 -122 -25 -157 Q-31 -174 -37 -190.5 Q-43 -207 -49 -224 Q-50 -227 -50 -230 Q-50 -233 -51 -236 Q-51 -237 -52 -239 Q-55 -236 -55 -237 Q-59 -233 -57 -226 L-33 -157 Q-27 -140 -21 -123 Q-15 -106 -9 -89 Q-1 -69 6 -49.5 Q13 -30 21 -10 Q30 16 39.5 42 Q49 68 59 94 Q68 118 77 142 Q86 166 95 191 Q96 191 96 193 L84 190 Q63 186 42 182 Q21 178 0 174 Q-12 172 -24 171 Q-36 170 -48 170 Q-53 171 -58.5 172 Q-64 173 -69 175 Q-74 177 -74 180 Q-68 180 -66 179 Q-59 175 -49 175 Q-24 175 -4 179 Q22 184 46.5 189.5 Q71 195 97 200 Q100 201 100 203 L142 308 Q152 331 162 354.5 Q172 378 182 401 L227 503 Q227 505 228 506 Q220 504 217 504 L82 471 Q52 463 21.5 456.5 Q-9 450 -39 442 Q-45 440 -49 438 Q-54 438 -55 442 Q-51 444 -47 444 Q-34 448 -21 451 Q-8 454 6 457 Q35 465 64 472 Q93 479 122 487 Q148 493 175 499.5 Q202 506 228 512 Q231 513 232 516 Q266 591 304 666 Q309 677 314.5 688 Q320 699 325 710 Q325 710 325 713 Q325 716 326 717 Q329 727 337 739 Q339 741 342 741 L345 741 Q350 740 349 737 Q347 727 345 723 Q338 707 331.5 692 Q325 677 318 662 L282 584 Q274 568 267 552 Q260 536 252 519 Q252 518 251 518 L269 521 Q292 526 316 531 Q340 536 364 541 Q386 546 407.5 549.5 Q429 553 451 558 Q474 562 497 565.5 Q520 569 543 573 Q560 576 577 579 Q594 582 611 584 Q631 587 649.5 590 Q668 593 688 596 Q705 598 721 601 Q737 604 754 606 Q771 608 786.5 610.5 Q802 613 819 615 Q836 617 851.5 619.5 Q867 622 884 624 Q898 626 912.5 627 Q927 628 942 630 Q952 632 962 633 Q972 634 982 635 Q991 636 1000.5 636.5 Q1010 637 1019 638 Q1047 641 1070 640 Q1075 640 1079.5 640 Q1084 640 1089 638 Q1095 635 1095 629 L1095 624 Z " />
<glyph glyph-name="G" unicode="G" horiz-adv-x="990" d="M990 381 Q992 380 994 378 Q996 373 993 371 Q966 352 939 334 Q912 316 884 299 Q824 262 763 228.5 Q702 195 638 166 Q584 140 528 118.5 Q472 97 415 77 Q414 76 413 76 Q409 69 405 62.5 Q401 56 397 49 Q393 44 389.5 39 Q386 34 383 29 Q377 21 371 13 Q365 5 360 -3 Q355 -8 351.5 -13.5 Q348 -19 343 -24 Q338 -31 332.5 -37.5 Q327 -44 321 -50 Q317 -55 313.5 -58.5 Q310 -62 306 -66 Q300 -73 293.5 -79.5 Q287 -86 281 -93 Q276 -97 272.5 -100.5 Q269 -104 264 -108 Q258 -114 252 -119.5 Q246 -125 239 -131 L224 -143 Q219 -147 213.5 -151 Q208 -155 203 -159 Q201 -161 199 -162 Q197 -163 195 -165 Q188 -169 181.5 -173 Q175 -177 169 -181 Q159 -188 153 -190 Q145 -194 138 -197.5 Q131 -201 124 -205 Q118 -207 112.5 -209 Q107 -211 102 -213 Q93 -217 82 -219 Q70 -223 58.5 -224 Q47 -225 36 -224 L18 -221 Q5 -217 -1 -211 Q-10 -205 -15 -193 Q-21 -177 -15 -157 Q-8 -139 6 -122 Q15 -110 29 -98 Q35 -93 40.5 -88.5 Q46 -84 52 -79 L79 -61 L103 -46 Q107 -44 111 -41.5 Q115 -39 120 -37 Q125 -34 129 -31.5 Q133 -29 138 -27 L156 -18 Q161 -16 166 -13 Q171 -10 176 -8 L197 1 L218 10 Q223 13 229.5 15.5 Q236 18 242 20 Q253 26 264 29 Q270 32 276 34.5 Q282 37 288 39 L312 48 Q318 51 324.5 53.5 Q331 56 337 58 Q340 59 342.5 60 Q345 61 347 62 Q355 65 361.5 67.5 Q368 70 375 72 Q377 74 380 74.5 Q383 75 385 76 Q390 78 393.5 79.5 Q397 81 402 83 Q402 83 405 86 Q412 97 418.5 109 Q425 121 431 133 Q441 152 450 171 Q460 192 467 211 Q475 229 483 249 Q486 257 488.5 263.5 Q491 270 494 278 Q497 288 500.5 297.5 Q504 307 507 318 Q509 323 510.5 328.5 Q512 334 514 339 L529 387 Q532 396 535 405 Q538 414 540 423 Q544 438 548 452.5 Q552 467 556 482 Q558 490 560 498.5 Q562 507 563 515 Q563 516 562.5 516 Q562 516 562 517 Q558 515 555.5 512.5 Q553 510 550 508 L538 496 Q533 491 527.5 485 Q522 479 517 474 Q513 469 509.5 465.5 Q506 462 502 458 Q497 453 492 447 Q487 441 482 436 Q479 432 475.5 428.5 Q472 425 468 421 Q461 414 455 407.5 Q449 401 443 394 Q439 389 435.5 385.5 Q432 382 427 377 Q422 372 417 366.5 Q412 361 407 356 Q403 351 399.5 347.5 Q396 344 392 340 Q387 335 381.5 329 Q376 323 371 318 L356 303 Q351 298 346.5 294 Q342 290 337 285 L321 269 Q315 264 309 258 Q303 252 297 247 Q293 243 289 239.5 Q285 236 281 232 Q274 226 268 220.5 Q262 215 256 209 Q252 206 248.5 203 Q245 200 242 197 Q237 193 232 189 Q227 185 222 181 Q219 178 215.5 175.5 Q212 173 209 171 Q203 166 197 161.5 Q191 157 185 153 L167 141 Q162 138 157 135 Q152 132 147 129 Q143 127 139.5 125.5 Q136 124 132 122 Q127 120 121.5 118.5 Q116 117 111 115 Q91 110 75 115 Q65 118 56 124 Q44 132 39 143 Q28 160 23 182 Q18 204 18 223 Q17 235 17.5 247.5 Q18 260 20 272 Q21 283 22.5 293.5 Q24 304 26 315 Q28 323 29.5 330.5 Q31 338 33 346 Q33 348 34 349 Q35 355 36 360.5 Q37 366 39 371 Q40 372 40 372.5 Q40 373 41 374 Q45 387 49 399.5 Q53 412 58 424 Q64 441 71 457.5 Q78 474 86 490 Q93 504 99.5 516 Q106 528 113 541 Q123 558 136 576 Q148 595 163 612 Q173 625 186 638 Q193 645 199 651.5 Q205 658 212 664 L227 676 Q233 680 239 684 Q245 688 250 692 Q256 696 259 697 Q263 699 266.5 701 Q270 703 273 705 Q280 707 286 709.5 Q292 712 298 714 Q302 716 305.5 717 Q309 718 314 719 Q321 721 327.5 722 Q334 723 341 724 Q354 727 365.5 727 Q377 727 388 725 Q394 724 400 723 Q406 722 412 721 Q416 719 419 718.5 Q422 718 426 716 Q436 712 446 706 Q454 702 459 697 Q464 693 468.5 688 Q473 683 477 678 Q487 665 491 650 Q500 622 496 592 Q496 588 495.5 584 Q495 580 494 575 Q493 574 493 571 Q492 569 492 568 Q492 567 491 565 Q486 566 485 566.5 Q484 567 485 572 L485 577 Q487 587 487.5 596.5 Q488 606 488 615 Q487 624 485.5 632.5 Q484 641 481 649 Q479 654 477 658 Q475 662 473 667 Q470 672 467 675.5 Q464 679 461 683 L446 695 Q441 698 437 700.5 Q433 703 428 705 Q425 707 417 709 L399 715 Q391 717 383 717.5 Q375 718 367 718 Q353 718 340 715 Q335 715 330 714 Q325 713 320 711 Q312 709 307 707 Q290 701 273 692 Q267 689 261 686 Q255 683 250 678 Q242 673 235 667 Q228 661 220 655 Q214 650 208 644 Q202 638 196 632 L166 596 Q161 590 156.5 583.5 Q152 577 147 570 Q142 563 137.5 556 Q133 549 128 541 Q123 532 117.5 523.5 Q112 515 107 505 Q93 477 81 450 Q76 437 71.5 425 Q67 413 62 400 Q50 370 44 338 Q40 324 37.5 310.5 Q35 297 33 283 Q31 268 30 253 Q29 238 31 224 Q31 216 32 208 Q33 200 34 192 Q35 183 39 172 Q42 164 47 155 Q49 150 52 146.5 Q55 143 58 139 Q59 137 60.5 135.5 Q62 134 64 132 Q76 123 87 122 Q98 121 113 124 Q118 126 124 128.5 Q130 131 135 133 Q147 139 161 147 Q167 151 172.5 154.5 Q178 158 183 162 Q191 167 199 173 Q207 179 215 185 Q222 191 229 197 Q236 203 243 209 Q248 214 254 218.5 Q260 223 265 228 Q272 234 278 239.5 Q284 245 291 251 Q299 259 306 265.5 Q313 272 321 280 Q328 286 334 291.5 Q340 297 345 303 Q365 321 378 337 Q393 350 406 365 Q414 373 421.5 381.5 Q429 390 437 398 Q443 405 449.5 411.5 Q456 418 462 426 Q470 434 477.5 442.5 Q485 451 493 459 Q499 467 505.5 473.5 Q512 480 518 487 Q524 494 530 500.5 Q536 507 542 513 Q548 519 552 522 Q558 527 568 527 Q574 525 575 521.5 Q576 518 575 513 Q573 503 571.5 493.5 Q570 484 568 475 Q564 459 560 443.5 Q556 428 551 412 Q543 380 530 342 L512 288 Q507 276 503 264 Q499 252 494 239 Q488 225 481.5 210 Q475 195 468 180 Q463 168 457 156 Q451 144 445 132 Q440 121 434 111.5 Q428 102 423 92 L423 91 L422 90 L423 90 L422 90 L423 90 L424 90 Q450 99 474.5 108 Q499 117 524 127 Q589 153 651.5 182.5 Q714 212 775 246 Q888 309 990 381 Z M384 52 Q387 56 389.5 60.5 Q392 65 396 70 Q394 70 393 69.5 Q392 69 391 69 Q387 67 384 66 Q381 65 377 63 Q371 60 365 57.5 Q359 55 353 53 Q346 51 340 48.5 Q334 46 328 44 Q323 42 317 39.5 Q311 37 305 35 Q299 32 292.5 29.5 Q286 27 280 24 Q270 21 257 15 Q252 13 246 10.5 Q240 8 235 6 Q229 4 223 1.5 Q217 -1 212 -4 L191 -13 Q186 -15 181 -17.5 Q176 -20 171 -22 Q164 -26 157 -29.5 Q150 -33 142 -37 Q130 -43 116 -51 Q109 -54 103 -57.5 Q97 -61 91 -65 Q86 -69 80 -72 Q74 -75 69 -79 Q63 -84 56.5 -88.5 Q50 -93 44 -98 Q37 -103 30.5 -109 Q24 -115 19 -122 Q13 -129 7.5 -136.5 Q2 -144 -2 -152 Q-12 -174 -3 -193 Q1 -200 10 -206 Q19 -213 33 -215 Q49 -218 64 -214 Q73 -213 86 -209 Q92 -207 98.5 -204.5 Q105 -202 111 -200 L132 -191 Q136 -189 140 -186.5 Q144 -184 148 -181 Q156 -177 162.5 -173 Q169 -169 177 -164 Q179 -163 185 -159 Q192 -154 199 -148 Q206 -142 214 -137 Q218 -135 221 -132 Q224 -129 228 -126 Q233 -122 237.5 -118 Q242 -114 247 -109 Q252 -105 256 -101.5 Q260 -98 264 -93 Q279 -80 292 -65 Q298 -59 303.5 -53 Q309 -47 314 -41 Q321 -33 327.5 -25 Q334 -17 340 -9 Q350 2 359 16 Q366 25 372 34 Q378 43 384 52 Z " />
<glyph glyph-name="H" unicode="H" horiz-adv-x="867" d="M867 381 Q869 379 870 377 Q872 373 868 371 Q806 339 741.5 312 Q677 285 609 265 Q550 247 491 234.5 Q432 222 371 212 Q366 200 361.5 188 Q357 176 352 163 Q341 137 331 109.5 Q321 82 310 56 Q300 30 290 3.5 Q280 -23 270 -49 Q262 -70 254 -91.5 Q246 -113 238 -134 Q232 -151 226 -167 Q220 -183 214 -199 Q211 -207 208.5 -216 Q206 -225 204 -233 Q202 -237 204 -239 Q204 -239 204 -241 Q204 -241 202 -242 Q199 -243 197 -240.5 Q195 -238 195 -235 Q195 -229 196 -227 Q200 -215 203.5 -203.5 Q207 -192 211 -181 Q216 -167 221 -153.5 Q226 -140 231 -126 Q236 -112 240.5 -99 Q245 -86 250 -72 Q255 -60 259.5 -47.5 Q264 -35 269 -23 Q273 -12 276.5 -2.5 Q280 7 284 18 Q289 32 294 45 Q299 58 304 72 Q309 84 313.5 96.5 Q318 109 323 121 Q328 135 333 147.5 Q338 160 343 174 Q347 183 350.5 192 Q354 201 357 210 Q349 209 342 208 Q335 207 327 205 Q270 197 213 188.5 Q156 180 99 167 Q92 154 85 142 Q78 130 71 117 Q45 75 17 36 Q-19 -14 -63 -56 Q-97 -88 -136 -114 Q-151 -124 -165 -131 Q-169 -132 -173 -135 Q-217 -153 -239 -147.5 Q-261 -142 -269 -127 Q-275 -116 -276 -108 Q-278 -94 -277 -81.5 Q-276 -69 -275 -66 Q-274 -61 -273 -57 Q-272 -53 -270 -48 Q-259 -19 -238.5 5 Q-218 29 -194 49 Q-141 91 -79.5 119 Q-18 147 47 164 Q55 166 64 168.5 Q73 171 81 173 Q100 209 114 243 Q115 245 115.5 246.5 Q116 248 118 250 Q120 254 121 258 Q122 262 124 266 Q126 268 126.5 270.5 Q127 273 129 276 Q130 278 131 281 Q132 284 133 286 Q137 294 140 303 Q143 309 143 311 Q148 321 151.5 330.5 Q155 340 159 350 Q165 364 170.5 377 Q176 390 181 404 Q186 416 190.5 428.5 Q195 441 200 453 L218 501 L233 543 Q237 553 240 562 Q243 571 246 580 Q249 588 251.5 595.5 Q254 603 257 611 L269 647 Q273 655 276 663.5 Q279 672 283 680 L286 686 Q288 691 294 691 Q295 691 295.5 690.5 Q296 690 298 690 Q269 593 235.5 497.5 Q202 402 162 305 L137 248 Q131 234 125 221 Q119 208 112 194 Q110 190 108 186.5 Q106 183 104 178 Q163 192 222 200.5 Q281 209 340 217 L361 220 Q365 230 368.5 239 Q372 248 376 258 Q378 264 380.5 270.5 Q383 277 385 283 L411 348 L413 355 Q420 371 426 387 Q432 403 439 419 Q450 443 460 466.5 Q470 490 481 514 Q492 537 502.5 560 Q513 583 524 606 Q535 630 547 653.5 Q559 677 571 700 Q578 713 584 726 L587 732 Q588 735 591 735 Q596 735 597 734 Q598 733 596 728 Q594 723 591.5 717.5 Q589 712 587 706 Q576 681 564 657 Q552 633 541 608 Q527 577 513.5 546.5 Q500 516 486 485 Q475 462 465.5 439.5 Q456 417 446 394 L390 260 Q386 251 382.5 241.5 Q379 232 375 223 Q440 234 503 247.5 Q566 261 629 281 Q691 301 750.5 326 Q810 351 867 381 Z M67 145 Q69 150 71 153.5 Q73 157 75 162 L42 153 Q-22 135 -82.5 107.5 Q-143 80 -194 37 Q-217 17 -236.5 -7.5 Q-256 -32 -264 -61 Q-272 -89 -264 -113 Q-262 -120 -256 -127.5 Q-250 -135 -238 -138.5 Q-226 -142 -207 -138.5 Q-188 -135 -159 -119 Q-144 -110 -130.5 -99.5 Q-117 -89 -103 -78 Q-75 -55 -51.5 -28 Q-28 -1 -6 28 Q14 56 32 85.5 Q50 115 67 145 Z " />
<glyph glyph-name="I" unicode="I" horiz-adv-x="777" d="M777 381 Q779 380 781 378 Q784 374 781 371 Q738 333 694.5 295.5 Q651 258 605 223 Q556 186 505.5 154 Q455 122 401 95 Q346 68 290.5 45.5 Q235 23 178 1 L177 1 Q164 -17 151.5 -35 Q139 -53 125 -70 Q106 -93 87 -115.5 Q68 -138 45 -159 Q28 -176 9 -191.5 Q-10 -207 -30 -219 Q-35 -222 -41 -225.5 Q-47 -229 -52 -231 Q-67 -238 -85.5 -242 Q-104 -246 -120 -238 Q-123 -237 -128 -232 Q-136 -225 -139.5 -215 Q-143 -205 -143 -194 Q-143 -170 -127 -148 Q-113 -128 -92.5 -113.5 Q-72 -99 -51 -87 Q-24 -72 4 -59.5 Q32 -47 61 -35 Q87 -24 113 -14 Q139 -4 165 6 L180 30 Q213 79 243 132 Q251 147 259.5 161.5 Q268 176 276 190 Q281 201 286.5 210.5 Q292 220 297 231 Q302 240 306 249 Q310 258 314 267 Q321 281 327 294.5 Q333 308 339 322 Q346 338 352 353.5 Q358 369 364 385 Q368 394 371.5 403 Q375 412 377 421 Q382 434 385.5 447 Q389 460 393 473 Q400 498 405 522 Q410 546 413 569 Q417 598 417.5 626 Q418 654 413 679 Q410 699 401 712 Q384 735 350 716 Q317 699 290 671 Q287 667 284 664 Q281 661 280 656 L279 654 L276 654 Q275 656 276 659 Q277 663 279.5 666 Q282 669 285 673 Q300 688 316.5 701 Q333 714 351 722 Q393 742 411 715 Q421 700 424 675 Q429 649 428.5 621 Q428 593 424 564 Q421 543 417 522 Q413 501 407 480 Q403 467 400 454.5 Q397 442 392 429 Q384 404 375 379 Q366 354 355 328 Q349 313 342.5 298 Q336 283 328 267 Q323 255 317 243 Q311 231 305 218 Q297 204 290 190.5 Q283 177 276 163 Q250 116 222 70 Q220 66 208.5 49 Q197 32 186 15 Q243 37 297.5 59.5 Q352 82 406 109 Q462 137 513.5 171 Q565 205 614 243 Q657 276 697 311 Q737 346 777 381 Z M120 -57 Q129 -45 138 -32.5 Q147 -20 155 -8 Q110 -25 65 -44 Q38 -55 10.5 -67.5 Q-17 -80 -43 -94 Q-67 -108 -91 -125 Q-115 -142 -128 -168 Q-138 -190 -131 -211 Q-128 -218 -121 -225 Q-111 -234 -99 -235 Q-87 -236 -75 -232 Q-63 -228 -51.5 -222 Q-40 -216 -31 -210 Q-9 -196 10 -179 Q29 -162 48 -143 Q68 -123 85.5 -101.5 Q103 -80 120 -57 Z " />
<glyph glyph-name="J" unicode="J" horiz-adv-x="1050" d="M1050 381 Q1052 379 1053 377 Q1055 373 1052 371 Q1029 359 1005 348 Q981 337 956 327 Q887 300 815.5 284 Q744 268 672 254 Q652 250 633.5 246.5 Q615 243 596 239 Q594 234 591.5 229 Q589 224 587 219 Q585 214 582 208.5 Q579 203 577 198 Q567 179 557 161 Q547 143 536 126 Q526 111 516 95.5 Q506 80 495 66 Q478 41 458.5 19 Q439 -3 419 -25 Q399 -47 377.5 -66.5 Q356 -86 333 -104 Q273 -153 209 -186 Q188 -197 167 -206.5 Q146 -216 124 -223 Q92 -234 57 -239 Q45 -241 33 -241.5 Q21 -242 10 -242 Q-13 -240 -34.5 -234 Q-56 -228 -73 -214 Q-107 -186 -113 -136 Q-116 -107 -112 -81 Q-111 -78 -111 -75 Q-111 -72 -110 -70 Q-109 -65 -108.5 -61 Q-108 -57 -106 -53 L-103 -41 Q-88 5 -55 46 Q-39 66 -20.5 81 Q-2 96 18 109 Q39 123 60.5 133 Q82 143 104 151 Q127 159 149.5 166 Q172 173 195 179 Q208 182 220.5 185 Q233 188 246 190 Q250 192 255 192 Q259 193 262.5 194 Q266 195 271 196 Q286 199 300.5 201.5 Q315 204 330 206 Q344 208 356.5 210 Q369 212 383 214 Q418 220 453 225.5 Q488 231 517 236 Q550 241 582 246 Q583 248 583.5 250 Q584 252 585 254 Q585 255 585.5 256 Q586 257 586 258 Q586 259 587 259 Q590 266 592.5 272.5 Q595 279 598 286 Q602 297 606 308.5 Q610 320 613 332 Q617 346 620.5 359.5 Q624 373 627 387 Q629 398 630 408.5 Q631 419 633 430 Q641 505 623 567 Q610 616 580 655 Q547 699 502 718 Q491 723 479.5 725.5 Q468 728 455 727 Q441 727 428.5 723.5 Q416 720 403 712 Q401 710 398.5 708.5 Q396 707 394 705 Q393 704 393 703 Q393 702 392 701 Q390 699 390 699 Q390 699 387 699 Q386 700 385.5 702 Q385 704 387 706 Q391 712 397 716 Q405 723 414 726.5 Q423 730 432 732 Q456 738 481 733 Q506 729 527 717.5 Q548 706 566 689 Q588 668 604 644 Q627 609 639 565 Q651 521 651 473 Q651 458 650 442.5 Q649 427 647 411 Q645 397 642.5 382.5 Q640 368 636 354 Q632 340 628 326.5 Q624 313 619 299 Q615 288 611.5 277.5 Q608 267 603 257 Q602 256 602 255 Q601 254 601 252.5 Q601 251 600 249 Q623 254 644.5 258 Q666 262 689 267 Q759 280 830 297 Q865 306 899.5 317 Q934 328 968 342 Q989 351 1009.5 360.5 Q1030 370 1050 381 Z M573 227 Q576 231 577 235 Q526 227 479 219 Q439 212 399 205.5 Q359 199 338 195 L337 195 Q329 193 320 192 Q311 191 302 189 Q277 184 252.5 179 Q228 174 202 167 Q176 161 150.5 153.5 Q125 146 99 135 Q76 126 53.5 114.5 Q31 103 9 88 Q-33 58 -61 16 Q-103 -49 -103 -114 Q-103 -180 -58 -211 Q-31 -229 2 -232 Q29 -233 57 -229 Q71 -227 84 -224 Q97 -221 111 -216 Q179 -193 248 -150 Q299 -118 348 -75 Q405 -26 453 33 Q478 64 499.5 96 Q521 128 541 162 Q547 173 553 185 Q559 197 565 208 Q567 212 568.5 216 Q570 220 572 224 Q572 225 572.5 225.5 Q573 226 573 227 Z " />
<glyph glyph-name="K" unicode="K" horiz-adv-x="1030" d="M1030 381 Q1032 379 1033 377 Q1035 372 1033 370 L854 218 Q809 180 764.5 141.5 Q720 103 675 65 Q630 27 585.5 -11 Q541 -49 496 -87 Q476 -104 456 -120.5 Q436 -137 414 -152 Q394 -166 372 -178.5 Q350 -191 326 -197 Q306 -202 286.5 -200.5 Q267 -199 251 -186 Q236 -174 227.5 -156 Q219 -138 215 -120 Q207 -77 209 -33 Q211 11 205 55 Q203 70 200 84 Q197 98 190 111 Q184 122 175.5 130 Q167 138 154 142 Q152 143 148.5 143.5 Q145 144 142 145 Q141 145 137 143 Q131 139 128 136 Q127 134 126 133 Q125 132 124 130 Q113 109 101 88 Q89 67 76 47 Q58 18 39 -9 Q20 -36 -3 -62 Q-38 -104 -80 -139 Q-94 -150 -108.5 -159.5 Q-123 -169 -138 -176 Q-161 -187 -182 -184 Q-197 -182 -203 -168 Q-206 -161 -205 -154 L-205 -152 L-204 -151 Q-201 -141 -195 -130 Q-185 -114 -171 -100 Q-141 -67 -110 -43 Q-87 -23 -63.5 -4.5 Q-40 14 -17 33 Q5 50 26 66.5 Q47 83 68 100 Q79 108 88.5 116 Q98 124 108 132 L111 135 Q122 158 133 179.5 Q144 201 154 224 Q160 238 166 250.5 Q172 263 177 277 Q183 291 188 303.5 Q193 316 198 329 Q206 351 212 369 Q215 377 217.5 384.5 Q220 392 223 400 Q225 408 228 417 Q231 426 233 435 Q238 449 241 462.5 Q244 476 248 490 Q250 500 252 509.5 Q254 519 256 529 Q263 566 262 602 Q261 612 259.5 621 Q258 630 254 638 Q241 666 206 657 Q187 652 173 641 Q171 640 169 638 Q165 634 168 632 Q169 631 167 626 Q160 625 159 632 Q159 637 163 640 Q167 643 170 646 Q173 649 178 651 Q195 662 212 663 Q246 669 261 641 Q266 631 268.5 619.5 Q271 608 273 595 Q274 582 273.5 569 Q273 556 271 542 Q268 519 263 497 Q258 475 252 452 Q249 439 245.5 426.5 Q242 414 238 402 L217 342 Q209 319 200 296.5 Q191 274 181 251 Q171 228 160 205 Q149 182 138 159 Q138 158 137.5 157.5 Q137 157 137 156 Q138 156 138 157 Q170 183 201.5 209.5 Q233 236 264 262 Q292 285 319.5 308 Q347 331 375 354 Q404 379 432.5 403 Q461 427 490 451 Q516 472 541 493.5 Q566 515 592 536 Q624 563 656 589.5 Q688 616 720 642 Q748 665 776 688 Q804 711 832 734 Q834 736 840 740 Q841 740 842 741 L846 741 Q846 740 845.5 739 Q845 738 845 737 Q838 728 829 721 L757 661 Q728 638 700.5 614.5 Q673 591 644 568 Q623 551 602.5 533 Q582 515 561 498 Q530 472 499.5 446.5 Q469 421 438 395 Q402 365 366 334.5 Q330 304 293 273 Q266 250 238.5 227 Q211 204 183 181 L147 151 Q147 151 145 150 Q150 148 153.5 148 Q157 148 162 146 Q179 140 192 124 Q201 113 206 99.5 Q211 86 214 72 Q219 50 220 27.5 Q221 5 223 -18 Q224 -37 225 -56.5 Q226 -76 228 -95 Q229 -100 229 -104 Q229 -108 230 -113 Q231 -124 234 -135.5 Q237 -147 242 -157.5 Q247 -168 254.5 -176 Q262 -184 273 -188 Q295 -196 317.5 -190 Q340 -184 360 -173 Q407 -149 447 -115.5 Q487 -82 527 -48 L700 100 Q744 137 787 174 Q830 211 875 248 Q913 281 952 314.5 Q991 348 1030 381 Z M87 92 Q90 97 92.5 101 Q95 105 97 110 Q96 110 95 109 Q74 92 52.5 75.5 Q31 59 10 42 Q-19 19 -46.5 -3.5 Q-74 -26 -103 -49 Q-120 -63 -135.5 -77.5 Q-151 -92 -165 -109 Q-173 -117 -179 -125.5 Q-185 -134 -190 -145 Q-198 -165 -185 -174 Q-180 -177 -174.5 -177 Q-169 -177 -162 -175 Q-150 -172 -139 -166.5 Q-128 -161 -117 -153 Q-97 -139 -78 -123 Q-59 -107 -42 -89 Q-18 -64 2.5 -37 Q23 -10 42 19 Q54 37 65 55 Q76 73 87 92 Z " />
<glyph glyph-name="L" unicode="L" horiz-adv-x="887" d="M194 -114 Q202 -115 208.5 -115 Q215 -115 223 -116 Q240 -117 256 -117.5 Q272 -118 289 -120 Q315 -123 339.5 -126 Q364 -129 390 -131 Q415 -133 440 -135.5 Q465 -138 490 -140 Q522 -143 554 -144.5 Q586 -146 619 -144 Q643 -143 666.5 -142.5 Q690 -142 714 -141 Q736 -139 757.5 -138.5 Q779 -138 800 -136 Q814 -135 828 -134 Q842 -133 856 -131 Q874 -129 892 -127 Q910 -125 927 -123 Q940 -121 952 -119 Q964 -117 976 -115 Q985 -113 993.5 -110.5 Q1002 -108 1010 -103 Q1012 -101 1014.5 -99.5 Q1017 -98 1019 -96 L1025 -93 Q1026 -94 1026 -94 Q1025 -95 1025 -95.5 Q1025 -96 1024 -97 Q1014 -109 999 -114 Q988 -118 977.5 -120 Q967 -122 956 -124 Q945 -126 934.5 -127.5 Q924 -129 913 -130 Q898 -132 883 -133.5 Q868 -135 853 -137 Q842 -138 831 -139 Q820 -140 809 -141 Q795 -142 782 -142.5 Q769 -143 756 -144 Q730 -147 708 -147 Q694 -148 681.5 -148.5 Q669 -149 655 -150 Q641 -150 628.5 -150.5 Q616 -151 602 -152 Q585 -152 568.5 -152 Q552 -152 535 -151 Q504 -150 473 -147.5 Q442 -145 411 -142 Q375 -139 339 -135.5 Q303 -132 266 -128 Q246 -126 226.5 -125.5 Q207 -125 187 -123 Q184 -123 182 -125 Q149 -155 118 -176 Q97 -190 75 -202 Q53 -214 30 -222 Q18 -227 6 -229.5 Q-6 -232 -18 -232 Q-29 -233 -39 -231.5 Q-49 -230 -58 -224 Q-62 -221 -65 -217 Q-68 -213 -70 -208 Q-73 -193 -61 -180 Q-54 -171 -45.5 -165 Q-37 -159 -28 -154 Q0 -139 32 -131 Q67 -121 108 -118 Q141 -113 176 -115 Q180 -115 184 -111 Q207 -89 228 -65.5 Q249 -42 269 -16 Q304 29 335 82 Q363 129 383 173 Q398 205 410.5 236.5 Q423 268 433 300 Q440 320 445 340.5 Q450 361 455 382 Q457 393 459 405 Q461 417 463 428 Q467 448 468.5 468 Q470 488 471 508 Q471 534 468 558 Q465 602 452 638 Q444 657 434 673.5 Q424 690 409 704 Q395 715 380 721.5 Q365 728 345 729 Q317 729 291 719 Q256 706 227 677 Q219 671 214 660 Q210 650 214 643 Q214 643 214 639 Q213 639 212 638.5 Q211 638 209 638 Q207 638 207 640 Q199 651 206 662 Q209 669 214 674.5 Q219 680 224 685 Q240 700 257.5 710 Q275 720 294 726 Q327 737 355 734 Q390 732 416 711 Q449 685 465 639 Q473 621 477 601.5 Q481 582 483 562 Q486 518 483 473 Q481 454 478.5 435.5 Q476 417 472 397 Q466 366 458 336 Q450 306 440 276 Q423 226 401 181 Q387 151 371.5 121.5 Q356 92 338 63 Q322 38 305.5 14.5 Q289 -9 270 -32 Q235 -74 196 -112 L194 -114 Z M171 -123 L166 -123 Q149 -123 131 -124 Q113 -125 96 -127 Q63 -130 30 -139 Q16 -143 2 -148 Q-12 -153 -25 -161 Q-33 -166 -40 -170.5 Q-47 -175 -53 -183 Q-69 -204 -52 -218 Q-47 -221 -42 -222.5 Q-37 -224 -32 -226 Q-9 -229 19 -219 Q34 -214 47.5 -208 Q61 -202 75 -194 Q95 -183 113.5 -170 Q132 -157 149 -142 Q155 -137 160 -132.5 Q165 -128 171 -123 Z " />
<glyph glyph-name="M" unicode="M" horiz-adv-x="1331" d="M1331 381 Q1332 380 1333 378 Q1335 374 1334 373 Q1334 373 1317.5 357.5 Q1301 342 1276 318 Q1251 294 1220 264.5 Q1189 235 1160 207 L1071 121 Q1052 104 1033.5 86 Q1015 68 996 51 Q972 27 948 3 Q924 -21 899 -45 Q882 -62 866.5 -78 Q851 -94 834 -110 Q814 -131 793 -152 Q772 -173 750 -192 Q741 -200 732.5 -207 Q724 -214 714 -219 Q700 -227 687 -227 Q669 -226 663 -207 Q658 -195 660 -181 Q661 -174 661.5 -168 Q662 -162 664 -155 Q666 -147 668 -138.5 Q670 -130 672 -121 Q677 -104 682.5 -86.5 Q688 -69 694 -52 Q701 -35 707 -19 Q713 -3 720 14 Q734 46 748 77 Q762 108 777 139 Q797 181 817.5 222.5 Q838 264 859 306 L925 438 Q938 464 950.5 490.5 Q963 517 974 544 Q984 569 993 595 Q997 606 999 617 Q1001 628 1003 639 Q1005 651 1002 660 Q999 669 990 669 Q982 670 975.5 668 Q969 666 961 663 Q944 656 928.5 645.5 Q913 635 897 624 Q870 604 845 581 Q820 558 795 534 Q766 505 737.5 475.5 Q709 446 682 414 Q655 382 628.5 350 Q602 318 576 285 Q522 215 470 137 Q450 106 431 75 Q412 44 393 12 Q381 -8 369 -29 Q357 -50 344 -70 Q337 -81 330.5 -91.5 Q324 -102 316 -113 Q313 -118 308 -121 Q305 -124 300.5 -124 Q296 -124 294 -120 Q291 -116 291 -105 Q292 -93 294.5 -81 Q297 -69 299 -56 Q301 -50 302 -43.5 Q303 -37 305 -31 Q307 -24 309 -17.5 Q311 -11 313 -4 Q315 4 317.5 12.5 Q320 21 323 29 Q328 42 332 55 Q336 68 341 81 Q354 119 369 155 Q384 191 400 228 Q414 261 429 294.5 Q444 328 460 361 Q479 402 498 441.5 Q517 481 536 522 Q544 540 552 558 Q560 576 568 594 Q578 616 581 635 L581 644 Q581 651 574 650 Q564 648 559 646 Q550 643 541 637.5 Q532 632 523 627 Q500 613 479 596 Q458 579 438 561 Q387 517 339 468 Q314 443 290.5 417.5 Q267 392 244 366 Q242 363 239 360 Q236 357 234 354 Q230 351 229 347.5 Q228 344 227 340 Q224 328 221 316 Q218 304 214 292 Q209 268 202 248 Q198 235 195 223 Q192 211 187 199 Q182 183 176.5 167 Q171 151 165 135 Q145 76 120 22 Q109 -1 98 -24 Q87 -47 74 -70 Q63 -90 51 -109 Q39 -128 25 -145 Q17 -155 8 -164 Q-1 -173 -11 -180 Q-26 -190 -37 -191 Q-62 -192 -68 -167 Q-70 -159 -70 -152 Q-70 -145 -69 -137 L-69 -130 Q-68 -127 -68 -124.5 Q-68 -122 -67 -119 Q-66 -116 -65.5 -113.5 Q-65 -111 -64 -108 Q-59 -85 -51 -64 Q-43 -43 -33 -22 Q-16 15 3 49.5 Q22 84 45 118 Q59 139 73 160 Q87 181 102 201 Q122 230 143.5 258 Q165 286 188 313 Q194 321 200.5 328 Q207 335 213 343 Q215 345 215.5 348 Q216 351 217 353 Q222 375 226 396.5 Q230 418 234 441 Q236 454 238 466.5 Q240 479 242 492 Q243 501 244 509.5 Q245 518 245 527 Q246 542 246.5 557 Q247 572 247 587 Q247 607 245.5 625.5 Q244 644 240 661 Q237 675 233 688 Q229 701 221 712 Q209 731 190 736 Q175 740 155 732 Q138 725 124.5 713.5 Q111 702 99 688 Q92 681 87 671 Q86 670 83 670 Q80 670 82 674 Q84 679 87 684 Q103 706 122 720.5 Q141 735 165 741 Q206 751 230 716 Q238 705 242.5 692 Q247 679 251 665 Q256 645 257.5 623.5 Q259 602 259 579 Q259 568 259 557 Q259 546 258 535 Q257 524 256.5 513 Q256 502 254 491 Q252 473 249 455 Q246 437 243 418 Q241 405 238.5 392.5 Q236 380 233 366 Q236 369 238.5 372 Q241 375 243 378 Q291 432 342 483 Q372 512 403 540.5 Q434 569 467 595 Q483 608 499.5 619.5 Q516 631 533 642 Q542 647 550.5 651 Q559 655 568 657 Q578 659 584 656 Q590 655 592 647 Q594 642 593.5 637.5 Q593 633 592 628 Q590 615 585.5 603 Q581 591 576 578 Q565 550 552.5 522.5 Q540 495 527 467 Q513 437 499 407 Q485 377 471 347 Q463 328 454.5 310 Q446 292 438 273 Q426 244 413.5 216.5 Q401 189 390 161 Q379 135 369.5 110.5 Q360 86 351 60 Q336 21 324 -18 Q318 -36 313 -54 Q308 -72 305 -90 Q304 -95 303.5 -100.5 Q303 -106 303 -111 L303 -114 Q306 -109 309.5 -105.5 Q313 -102 315 -97 Q325 -82 334.5 -66.5 Q344 -51 354 -35 Q375 0 395.5 35 Q416 70 438 105 Q457 134 475.5 161.5 Q494 189 514 217 Q543 258 573.5 297 Q604 336 636 374 Q660 403 684.5 430.5 Q709 458 735 484 Q781 535 832 581 Q850 598 869.5 614.5 Q889 631 909 645 Q921 653 933 660.5 Q945 668 959 673 Q970 677 979.5 678.5 Q989 680 1000 678 Q1016 674 1018 655 Q1020 647 1019 639.5 Q1018 632 1016 624 Q1010 595 999.5 567 Q989 539 977 511 Q961 476 944.5 442 Q928 408 911 373 Q884 320 858 267 Q830 211 803 154 Q781 109 762 66 Q752 44 743 23 Q734 2 724 -20 Q715 -42 707 -64 Q699 -86 691 -109 Q686 -124 681.5 -139 Q677 -154 675 -170 Q674 -178 673.5 -185.5 Q673 -193 675 -201 Q675 -205 677 -209 Q684 -221 699 -216 Q707 -212 714.5 -207 Q722 -202 730 -196 Q749 -181 766 -164 Q783 -147 800 -130 Q826 -104 852.5 -77 Q879 -50 905 -24 Q928 -2 950.5 20 Q973 42 996 64 Q1005 73 1014 81.5 Q1023 90 1032 98 L1331 381 Z M201 293 Q203 301 205.5 309 Q208 317 210 325 Q208 323 208 323 Q190 300 172 278 Q154 256 137 233 Q119 210 102 185.5 Q85 161 68 135 Q30 78 -1 18 Q-15 -8 -27.5 -35 Q-40 -62 -48 -91 Q-58 -121 -59 -148 Q-59 -166 -51 -177 Q-45 -184 -37 -183 Q-29 -181 -17 -172 Q4 -156 23 -128 Q48 -94 68 -56 Q82 -30 93.5 -5 Q105 20 116 46 Q125 69 134 90.5 Q143 112 151 135 Q156 149 160.5 162 Q165 175 170 189 Q174 200 177 211 Q180 222 184 233 Q186 241 188.5 248 Q191 255 193 262 Q195 270 197 277.5 Q199 285 201 293 Z " />
<glyph glyph-name="N" unicode="N" horiz-adv-x="1194" d="M1195 380 Q1195 378 1195 378 Q1195 377 1189.5 373 Q1184 369 1176 363 Q1144 337 1117 316 Q1094 297 1071.5 280 Q1049 263 1041 256 L1040 256 Q1020 240 1000.5 224.5 Q981 209 961 193 Q936 172 911 151.5 Q886 131 861 110 Q842 95 824 80 Q806 65 789 49 L705 -26 Q683 -46 662 -65.5 Q641 -85 619 -105 Q604 -119 588.5 -132.5 Q573 -146 558 -160 Q541 -174 525 -187.5 Q509 -201 492 -212 Q483 -217 474 -222.5 Q465 -228 455 -230 Q414 -241 399 -204 Q394 -193 393 -181 Q392 -169 392 -156 Q393 -146 393.5 -136.5 Q394 -127 396 -116 Q398 -105 400 -93.5 Q402 -82 404 -71 Q406 -60 409 -50.5 Q412 -41 415 -31 Q420 -11 426.5 8.5 Q433 28 441 48 Q450 73 459 97 Q468 121 478 146 Q509 222 544 299 Q559 332 574.5 365.5 Q590 399 604 432 Q614 454 623 476 Q632 498 641 520 Q645 529 647.5 538 Q650 547 652 556 Q656 569 658 582 Q659 587 658.5 592 Q658 597 657 602 Q656 615 640 615 Q632 615 624 612.5 Q616 610 608 606 Q593 600 578.5 591.5 Q564 583 550 574 Q524 557 499.5 537.5 Q475 518 451 497 Q411 464 375 430 Q358 413 340.5 396 Q323 379 306 362 Q284 340 263 317 Q242 294 222 271 L207 253 Q206 252 205.5 250.5 Q205 249 204 248 Q193 217 180.5 187.5 Q168 158 155 128 Q144 103 133 78.5 Q122 54 110 31 Q87 -17 56 -63 Q47 -77 37 -90 Q27 -103 16 -114 Q5 -123 -4 -127 Q-13 -131 -19.5 -127.5 Q-26 -124 -27 -113 Q-28 -105 -26.5 -98 Q-25 -91 -23 -83 Q-15 -57 -3 -32.5 Q9 -8 23 16 Q42 48 62.5 78.5 Q83 109 106 139 Q125 165 145 190.5 Q165 216 186 242 Q188 244 189 247 Q190 250 192 253 Q197 266 201 279 Q205 292 210 305 L225 347 Q227 355 230 363 Q233 371 235 379 Q238 387 240.5 395.5 Q243 404 245 412 Q247 420 249.5 428 Q252 436 254 444 L260 465 Q262 472 263.5 478.5 Q265 485 267 491 Q268 493 268 496 Q268 499 269 501 Q271 509 272.5 517.5 Q274 526 276 534 Q278 545 280 555.5 Q282 566 284 577 Q289 603 290 627 Q292 638 291.5 649.5 Q291 661 289 672 Q286 697 273 713 Q251 736 219 726 Q202 721 186.5 710.5 Q171 700 157 686 Q143 672 134 654 Q132 651 130 645 Q130 645 130 641 Q130 639 129.5 638.5 Q129 638 129 637 Q125 637 125 637 Q122 640 124 643 Q124 650 127 656 Q130 662 134 667 Q144 682 156.5 693.5 Q169 705 183 715 Q193 722 203 727 Q213 732 224 734 Q247 738 265.5 729.5 Q284 721 293 699 Q298 687 300 674.5 Q302 662 303 648 Q303 637 302.5 625.5 Q302 614 301 603 Q299 586 296.5 568 Q294 550 290 533 Q287 518 283.5 503.5 Q280 489 276 474 Q274 464 271 454 Q268 444 266 434 Q262 420 258 407.5 Q254 395 250 382 Q245 365 239.5 349.5 Q234 334 229 318 L214 276 L214 274 L229 292 Q250 315 270.5 337 Q291 359 313 380 Q330 397 346 413 Q362 429 379 444 Q415 478 455 511 Q472 526 490.5 539.5 Q509 553 527 567 Q563 594 599 611 Q610 616 621 619.5 Q632 623 643 622 Q671 622 671 591 Q672 583 670 573.5 Q668 564 666 555 Q658 524 646.5 494.5 Q635 465 622 435 L571 321 Q558 293 545.5 265.5 Q533 238 521 209 L482 116 Q475 98 468 79.5 Q461 61 454 43 Q449 28 444 13.5 Q439 -1 434 -16 Q431 -27 427.5 -37 Q424 -47 422 -57 Q417 -74 413.5 -90 Q410 -106 408 -123 Q406 -138 405.5 -152.5 Q405 -167 407 -181 Q409 -203 419 -215 Q430 -228 448 -223 Q458 -220 467 -215 Q476 -210 485 -204 Q519 -182 549 -154 L636 -76 Q668 -47 698.5 -19 Q729 9 761 37 Q783 56 805 74.5 Q827 93 850 112 Q873 131 896.5 150 Q920 169 944 188 Q969 208 993.5 228 Q1018 248 1044 268 Q1054 275 1063 282 Q1072 289 1082 297 L1083 297 L1194 381 L1195 380 Z M170 196 Q172 201 174 206.5 Q176 212 178 217 Q178 217 177 218 L168 206 Q148 181 129.5 157 Q111 133 93 107 Q78 85 64 63 Q50 41 36 18 Q25 -1 14.5 -20.5 Q4 -40 -4 -61 Q-9 -72 -12.5 -83.5 Q-16 -95 -17 -107 Q-19 -113 -15 -120 Q-14 -123 -9 -121 Q-8 -120 -7 -119.5 Q-6 -119 -4 -117 Q10 -107 23 -91 Q45 -65 62 -32 Q81 0 97 32 Q113 64 127 96 Q138 121 148.5 146 Q159 171 170 196 Z " />
<glyph glyph-name="O" unicode="O" horiz-adv-x="1257" d="M1226 352 Q1221 349 1214 343.5 Q1207 338 1199 332 Q1191 326 1183.5 320 Q1176 314 1170 310 Q1158 302 1146 293 Q1134 284 1122 276 Q1101 262 1080.5 247.5 Q1060 233 1040 219 Q1020 205 999 190.5 Q978 176 958 162 Q936 147 914.5 132 Q893 117 871 103 Q825 71 778 42 Q748 22 718 6.5 Q688 -9 657 -23 Q637 -32 616.5 -39.5 Q596 -47 575 -52 Q556 -57 537 -60 Q518 -63 500 -65 Q489 -66 478 -65.5 Q467 -65 456 -64 Q454 -63 452 -66 Q438 -82 423.5 -97 Q409 -112 394 -126 Q368 -150 341.5 -170.5 Q315 -191 286 -207 Q236 -234 191 -238 Q136 -242 94 -214 Q74 -200 58.5 -180.5 Q43 -161 32 -138 Q6 -85 1 -16 Q-1 0 -1.5 16 Q-2 32 -1 49 Q0 58 0.5 66.5 Q1 75 2 83 Q3 101 5.5 119 Q8 137 12 156 Q14 168 17 179.5 Q20 191 23 203 Q27 221 32.5 239 Q38 257 43 274 Q51 296 59.5 317 Q68 338 77 359 Q92 391 108.5 422 Q125 453 143 483 Q163 515 184.5 544 Q206 573 230 602 Q247 622 265.5 641.5 Q284 661 304 678 Q324 695 344 709 Q364 723 387 731 Q404 738 420.5 739.5 Q437 741 452 735 Q455 733 458 731.5 Q461 730 464 728 Q466 726 467.5 724 Q469 722 467 718 Q467 717 466.5 716.5 Q466 716 466 715 L466 714 Q463 712 461 714 Q454 725 443.5 728.5 Q433 732 420 731 Q407 731 394 726 Q381 721 368 713 Q349 702 332 688.5 Q315 675 298 658 Q267 628 239.5 594 Q212 560 187 524 Q151 470 121 413 Q101 377 85.5 339.5 Q70 302 57 264 Q52 248 48 232.5 Q44 217 39 200 Q28 159 23 114 Q21 100 20 86 Q19 72 18 58 Q16 42 16.5 26.5 Q17 11 18 -4 Q19 -21 21.5 -37 Q24 -53 27 -68 Q35 -100 46 -127 Q58 -151 73.5 -171 Q89 -191 110 -205 Q143 -227 182 -227 Q199 -227 219 -222 Q242 -216 264.5 -204 Q287 -192 309 -178 Q337 -158 362.5 -136 Q388 -114 413 -88 Q419 -82 424.5 -76 Q430 -70 436 -63 Q436 -63 438 -61 Q433 -60 429 -59 Q425 -58 420 -56 Q384 -46 354 -16 Q314 27 301 89 Q297 106 295 124.5 Q293 143 294 162 Q294 178 295 193.5 Q296 209 298 226 Q300 239 302.5 251.5 Q305 264 308 277 Q316 313 327.5 348.5 Q339 384 353 419 Q389 504 442 583 Q458 606 474.5 626.5 Q491 647 510 667 Q526 683 542.5 696.5 Q559 710 578 721 Q607 738 637 741 Q677 744 702 716 Q714 702 721 684.5 Q728 667 733 646 Q739 615 737 575 Q736 554 733.5 533 Q731 512 727 491 Q722 465 716 440 Q710 415 702 390 Q694 363 684.5 336.5 Q675 310 664 284 Q637 219 604 158 Q575 104 540 51 Q523 25 504.5 0 Q486 -25 466 -49 Q464 -51 463 -53 Q470 -53 473 -54 Q483 -54 493 -54.5 Q503 -55 514 -53 Q525 -51 536 -49.5 Q547 -48 558 -46 Q569 -44 578.5 -41 Q588 -38 599 -34 Q620 -28 640.5 -19.5 Q661 -11 682 -1 Q729 21 777 52 Q811 72 843.5 93.5 Q876 115 909 138 Q942 161 974.5 182.5 Q1007 204 1040 227 Q1073 250 1105.5 273 Q1138 296 1171 319 L1257 381 Q1257 380 1258 379 Q1259 378 1259 377 Q1255 375 1251 371 Q1243 364 1231 356 Q1229 355 1228.5 354 Q1228 353 1226 352 Z M450 -48 Q457 -40 463 -31.5 Q469 -23 476 -15 Q496 10 514.5 36.5 Q533 63 550 90 Q565 114 579 138 Q593 162 606 187 Q619 213 631 238.5 Q643 264 654 290 Q670 330 683 369.5 Q696 409 706 451 Q712 478 717 503 Q719 513 719.5 520.5 Q720 528 721 536 Q724 558 724 580 Q726 600 724 619.5 Q722 639 717 658 Q712 675 704.5 690 Q697 705 684 716 Q661 735 631 731 Q616 729 602 722.5 Q588 716 574 706 Q539 683 508 647 Q480 616 457 581.5 Q434 547 414 511 Q382 451 357 386 Q335 328 325 275 Q321 259 318.5 244 Q316 229 314 214 Q311 184 311 156 Q313 86 337 37 Q353 4 377 -16 Q407 -41 446 -50 Q446 -50 450 -48 Z " />
<glyph glyph-name="P" unicode="P" horiz-adv-x="1202" d="M1202 381 Q1202 379 1203 378 Q1203 375 1202 375 L1169 363 Q1143 354 1117.5 345 Q1092 336 1066 327 Q1046 320 1027 313.5 Q1008 307 989 300 Q966 292 943 284.5 Q920 277 897 269 Q874 261 851 254.5 Q828 248 805 240 Q774 231 743 222.5 Q712 214 680 206 Q654 199 628.5 193.5 Q603 188 577 183 L517 174 Q506 172 495 171.5 Q484 171 473 169 Q433 165 394 166 Q351 166 314 175 Q308 177 303 178.5 Q298 180 293 183 Q291 185 290 186.5 Q289 188 287 190 Q283 197 291 203 Q295 207 299 210 Q303 213 308 217 Q322 227 335.5 236.5 Q349 246 363 256 Q376 265 389 274.5 Q402 284 416 293 Q447 314 476.5 336.5 Q506 359 535 383 Q570 414 601.5 447 Q633 480 660 517 Q687 551 705 589 Q710 597 713 605 Q716 613 719 621 Q721 626 722.5 630.5 Q724 635 726 640 Q731 655 732 669.5 Q733 684 729 698 Q721 727 690 733 Q666 737 636 728 Q611 721 588.5 709.5 Q566 698 543 684 Q517 667 493 648 Q469 629 446 609 Q419 586 394 560.5 Q369 535 345 508 Q341 504 341 496 Q339 488 338 479 Q337 470 335 462 L329 429 Q327 421 325.5 414 Q324 407 322 399 Q320 388 317 376.5 Q314 365 311 353 Q307 339 303.5 325.5 Q300 312 295 298 Q293 288 289.5 278.5 Q286 269 283 259 Q278 246 273 233 Q268 220 263 207 Q259 196 255 185 Q251 174 246 163 Q241 150 235.5 138 Q230 126 224 114 Q216 95 207 77 Q198 59 189 40 Q158 -20 118 -82 Q103 -105 86.5 -128 Q70 -151 52 -174 Q41 -186 30.5 -197.5 Q20 -209 7 -220 Q2 -224 -2.5 -227.5 Q-7 -231 -12 -234 Q-21 -239 -30 -237.5 Q-39 -236 -42 -227 Q-44 -222 -44.5 -216.5 Q-45 -211 -45 -205 Q-44 -196 -43 -187.5 Q-42 -179 -40 -170 Q-38 -162 -36.5 -153 Q-35 -144 -33 -136 Q-25 -101 -14 -72 Q-12 -64 -9.5 -57.5 Q-7 -51 -5 -43 L7 -13 Q9 -6 12 0.5 Q15 7 18 14 Q24 29 31 43 Q35 52 39 61 Q43 70 48 79 Q54 92 60 104 Q66 116 72 129 Q85 152 97.5 175.5 Q110 199 124 222 Q141 249 158.5 276.5 Q176 304 194 331 Q213 358 232 384 Q251 410 272 436 Q283 450 295 464 Q307 478 318 492 Q324 498 324 504 Q326 514 326.5 523.5 Q327 533 328 543 Q334 595 330 641 Q327 669 317 690 Q310 703 298 710 Q283 716 263 708 Q230 696 203 669 Q197 661 195 657 Q190 649 197 642 L198 641 Q199 640 200 639.5 Q201 639 199 637 Q196 634 194 637 Q186 643 186 654 Q187 656 187 659 Q194 672 208 684 Q220 694 233 702 Q246 710 260 715 Q277 720 291 719.5 Q305 719 316 710 Q324 705 328 697.5 Q332 690 336 682 Q342 666 344.5 649.5 Q347 633 348 615 Q350 577 345 538 Q345 533 344.5 529.5 Q344 526 344 521 Q350 527 352 530 Q370 550 389 568.5 Q408 587 428 604 Q448 621 468 637.5 Q488 654 509 669 Q532 685 555 698.5 Q578 712 602 723 Q617 729 632 733.5 Q647 738 662 740 Q696 743 718 731 Q740 718 745 690 Q747 679 745.5 668 Q744 657 742 646 Q737 624 729 607 Q713 569 691 535 Q671 504 647 476 Q623 448 596 422 Q575 401 552 381.5 Q529 362 506 344 Q473 318 438.5 294 Q404 270 368 247 Q354 237 340 227.5 Q326 218 312 209 Q309 207 306 204 Q303 201 300 199 Q297 196 299 193 Q302 188 308 186 Q315 184 321.5 182.5 Q328 181 336 179 Q353 176 369.5 174.5 Q386 173 404 174 Q417 174 429.5 174.5 Q442 175 455 176 Q468 177 480.5 178 Q493 179 506 181 Q522 183 537.5 185.5 Q553 188 570 190 Q601 195 631.5 202.5 Q662 210 693 218 Q725 226 755.5 235 Q786 244 817 253 Q851 264 884.5 274.5 Q918 285 952 296 Q999 311 1045 327 Q1091 343 1139 359 Q1155 364 1170.5 370 Q1186 376 1202 381 Z M318 469 Q319 472 319.5 474.5 Q320 477 320 480 L317 477 Q303 459 288.5 441.5 Q274 424 260 406 Q218 351 178 291 Q159 262 141.5 233 Q124 204 108 175 Q97 154 85.5 133 Q74 112 63 90 Q53 70 44 49.5 Q35 29 26 9 Q21 -3 16.5 -15 Q12 -27 7 -40 Q2 -51 -2 -63 Q-6 -75 -9 -87 Q-14 -102 -19 -117.5 Q-24 -133 -27 -150 Q-29 -161 -30.5 -171 Q-32 -181 -34 -191 Q-37 -207 -34 -220 Q-32 -227 -28 -230 Q-26 -232 -23 -230 Q-20 -228 -16.5 -226 Q-13 -224 -11 -222 Q-3 -216 4 -209 Q11 -202 18 -194 Q37 -173 53.5 -151 Q70 -129 86 -106 Q106 -77 123 -48 Q140 -19 156 10 Q166 29 175.5 47.5 Q185 66 194 85 Q199 96 204.5 108 Q210 120 215 132 Q219 140 222 148 Q225 156 229 164 Q233 173 236 181.5 Q239 190 243 198 Q246 207 249.5 216 Q253 225 256 234 L268 267 Q270 275 272.5 282 Q275 289 277 296 Q281 308 284 319.5 Q287 331 290 342 Q294 354 297 366 Q300 378 303 390 Q304 395 304.5 398.5 Q305 402 306 407 Q308 413 309 418.5 Q310 424 311 429 Q312 434 313 438.5 Q314 443 315 448 L318 469 Z " />
<glyph glyph-name="Q" unicode="Q" horiz-adv-x="870" d="M886 -204 Q886 -207 882 -210 Q878 -213 876 -214 Q854 -228 827.5 -231.5 Q801 -235 776 -237 Q736 -239 696 -239 Q656 -239 616 -235 Q586 -231 555.5 -225 Q525 -219 496 -211 Q494 -210 492.5 -210 Q491 -210 489 -209 Q488 -209 487.5 -208.5 Q487 -208 486 -208 L485 -208 Q468 -203 455 -198 Q442 -193 434 -189 Q423 -185 417 -181 Q415 -179 412.5 -178.5 Q410 -178 408 -176 Q388 -166 369 -154.5 Q350 -143 331 -130 Q314 -118 297 -105 Q280 -92 263 -78 Q262 -77 261 -77 Q255 -82 249 -85.5 Q243 -89 236 -94 Q191 -124 146 -141 Q130 -148 114 -152.5 Q98 -157 81 -161 Q51 -166 24 -163 Q-12 -160 -39 -140 Q-75 -113 -81 -67 Q-82 -54 -81 -41 Q-81 -40 -81.5 -39.5 Q-82 -39 -82 -38 Q-81 -36 -81 -34.5 Q-81 -33 -80 -31 Q-80 -27 -78 -21 Q-61 40 -4 61 Q10 66 24.5 67.5 Q39 69 53 68 Q75 66 94 60 Q113 54 132 43 Q153 32 171.5 18 Q190 4 209 -11 Q220 -20 231.5 -29 Q243 -38 254 -48 Q257 -51 265 -57 Q267 -59 268 -56 Q283 -44 297 -30.5 Q311 -17 325 -3 Q347 20 366.5 45 Q386 70 403 96 Q429 134 449.5 174.5 Q470 215 487 257 Q494 274 500.5 292.5 Q507 311 512 329 Q516 342 519 354.5 Q522 367 525 380 Q533 414 536 444 L539 495 Q540 512 539 528.5 Q538 545 536 561 Q528 614 505 656 Q481 697 443 714 Q428 721 412 722 Q396 723 379 720 Q339 711 300 685 Q278 671 259 654 Q240 637 222 617 Q197 591 175.5 562 Q154 533 134 502 Q123 483 112.5 464.5 Q102 446 92 426 Q72 385 56 340 Q50 320 45 300.5 Q40 281 37 261 Q35 244 34.5 226 Q34 208 38 191 Q43 163 56 142 Q60 136 63 135 Q65 133 69 133 Q70 131 67 129 Q59 127 53 132 Q48 135 45.5 139 Q43 143 40 148 Q22 180 21 215 L21 240 Q22 248 23 256.5 Q24 265 26 273 Q28 281 29.5 290 Q31 299 33 307 Q42 338 54 371 Q85 451 135 525 Q152 549 169.5 572 Q187 595 207 617 Q248 662 293 693 Q310 704 327 712.5 Q344 721 363 726 Q387 732 411 732 Q448 731 478 711 Q489 703 499 693 Q509 683 517 672 Q531 651 540 627 Q549 603 554 577 Q560 542 560 507 Q560 496 559.5 485 Q559 474 558 463 Q557 439 552 413 Q549 398 546 383 Q543 368 539 353 Q533 328 524.5 303.5 Q516 279 506 255 Q497 232 487 210 Q477 188 465 166 Q443 125 415 83 Q394 54 371.5 26.5 Q349 -1 323 -25 Q312 -36 300.5 -45 Q289 -54 278 -64 L276 -66 Q280 -70 282 -71 Q294 -81 306 -90 Q318 -99 330 -108 Q366 -136 403 -156 Q417 -164 431 -171 Q445 -178 460 -184 Q493 -200 539 -211 Q578 -221 634 -227.5 Q690 -234 762 -229 Q788 -229 809.5 -225.5 Q831 -222 846 -217 Q864 -212 878 -205 Q882 -203 886 -204 Z M235 -82 Q239 -79 243 -75.5 Q247 -72 252 -69 L250 -67 Q240 -59 230 -50 Q220 -41 210 -33 Q193 -19 175 -5 Q157 9 138 22 Q122 33 105.5 41.5 Q89 50 70 55 Q53 60 35.5 59.5 Q18 59 0 51 Q-52 30 -66 -26 Q-73 -53 -65 -82 Q-51 -132 -1 -149 Q17 -155 35.5 -155.5 Q54 -156 74 -153 Q102 -147 133 -136 Q187 -115 235 -82 Z " />
<glyph glyph-name="R" unicode="R" horiz-adv-x="1183" d="M1183 381 Q1186 380 1188 378 Q1192 374 1187 369 Q1185 367 1185 367 Q1183 365 1181 364 Q1180 362 1179 361.5 Q1178 361 1177 359 Q1172 355 1170 353 Q1168 351 1166.5 350 Q1165 349 1163 347 Q1157 341 1154 339 Q1152 337 1149.5 334.5 Q1147 332 1144 330 Q1142 327 1139 324.5 Q1136 322 1133 319 Q1130 317 1127 314 Q1124 311 1121 309 Q1118 306 1115 303 Q1112 300 1108 297 L1095 284 Q1091 281 1087.5 278 Q1084 275 1081 271 Q1076 268 1072.5 264.5 Q1069 261 1066 258 Q1061 254 1057.5 250.5 Q1054 247 1050 244 Q1046 240 1042 236.5 Q1038 233 1034 229 Q1029 225 1025.5 221.5 Q1022 218 1018 214 Q1013 210 1009 206.5 Q1005 203 1001 199 Q996 195 992.5 191.5 Q989 188 984 183 Q979 179 975 175.5 Q971 172 967 168 Q962 164 958 160 Q954 156 950 152 Q945 148 941 144.5 Q937 141 932 136 Q928 132 924 128.5 Q920 125 915 121 Q911 117 907 113.5 Q903 110 898 106 Q894 101 890 97.5 Q886 94 882 90 Q877 86 873.5 82.5 Q870 79 865 75 Q861 72 857.5 68.5 Q854 65 850 61 Q845 57 841.5 54 Q838 51 834 47 Q830 43 826.5 40 Q823 37 819 33 Q816 30 812.5 27 Q809 24 805 20 Q802 17 798.5 14 Q795 11 791 8 Q788 5 785 2.5 Q782 0 779 -3 Q776 -6 773 -8.5 Q770 -11 767 -14 Q763 -17 756 -24 L747 -33 Q745 -35 742.5 -36.5 Q740 -38 738 -40 Q736 -42 734.5 -43.5 Q733 -45 731 -47 Q726 -52 721 -56 Q716 -60 711 -65 Q703 -72 695.5 -78.5 Q688 -85 680 -92 Q672 -99 664.5 -105 Q657 -111 649 -118 Q632 -132 614 -145.5 Q596 -159 577 -170 Q559 -181 541 -188 Q523 -195 504 -197 Q460 -202 432 -174 Q421 -162 412.5 -148 Q404 -134 397 -119 Q389 -99 382.5 -79 Q376 -59 371 -39 Q361 -3 354 34 Q347 71 340 109 Q337 124 334.5 139 Q332 154 330 170 Q327 185 330 201 Q331 213 336 222 Q341 231 353 238 Q364 244 373.5 249 Q383 254 394 259 Q426 274 457.5 290 Q489 306 520 324 Q545 339 569.5 355 Q594 371 617 390 Q643 412 667 436 Q691 460 711 489 Q722 503 730.5 518 Q739 533 745 549 Q753 569 756 589 Q759 609 754 627 Q748 654 725 666 Q713 673 699.5 675.5 Q686 678 671 678 Q649 677 627.5 672.5 Q606 668 584 660 Q550 649 518.5 632.5 Q487 616 455 595 Q417 571 382 543 Q380 541 380 539 Q380 507 377 476 Q375 465 374 453.5 Q373 442 371 431 Q369 412 364.5 393 Q360 374 355 355 Q352 342 348.5 329.5 Q345 317 341 305 Q337 293 333.5 280.5 Q330 268 326 256 L311 217 Q304 201 298 185 Q292 169 284 152 Q277 137 270.5 122 Q264 107 256 92 Q229 36 196 -16 Q179 -44 160.5 -70.5 Q142 -97 121 -123 Q106 -141 90.5 -157.5 Q75 -174 58 -189 Q42 -203 25 -214 Q8 -225 -10 -232 Q-29 -239 -43 -239 Q-76 -239 -92 -209 Q-105 -183 -102 -148 Q-102 -140 -101 -131 Q-100 -122 -98 -113 Q-95 -92 -89 -73 Q-85 -62 -81.5 -50 Q-78 -38 -73 -27 Q-62 2 -48.5 30 Q-35 58 -19 86 Q-6 110 8 133 Q22 156 37 179 Q61 215 86.5 250 Q112 285 140 319 Q178 366 217 408 Q258 452 302 493 Q317 507 332 519 Q347 531 362 544 Q364 546 364 548 Q363 576 359 602.5 Q355 629 345 653 Q332 687 310 706 Q293 720 272 723 Q263 724 254 722.5 Q245 721 235 719 Q218 714 202.5 707 Q187 700 171 691 Q144 674 119 654 Q94 634 70 611 Q50 591 30.5 569.5 Q11 548 -6 525 Q-24 501 -39 476.5 Q-54 452 -66 426 Q-80 394 -86 364 Q-89 352 -90.5 340.5 Q-92 329 -90 318 Q-90 314 -88 308 Q-86 303 -84 307 Q-80 309 -78 311 Q-75 314 -72 312 Q-76 305 -84 302 Q-90 299 -93 304 Q-96 307 -97 311.5 Q-98 316 -99 321 Q-99 338 -96 358 Q-96 362 -95.5 365.5 Q-95 369 -94 374 Q-92 380 -90.5 386.5 Q-89 393 -87 399 Q-85 405 -84 407 Q-79 422 -72.5 437 Q-66 452 -58 466 Q-31 512 4 555 Q47 607 95 648 Q118 667 140.5 683 Q163 699 188 712 Q203 719 218 724 Q233 729 248 731 Q299 737 329 706 Q348 686 358 661 Q368 638 372.5 613 Q377 588 379 561 L379 558 Q384 562 389 565 Q394 568 399 572 Q435 598 473 620 Q511 642 551 659 Q571 667 591.5 673.5 Q612 680 633 684 Q661 689 683 689 Q698 688 711.5 685.5 Q725 683 737 677 Q766 660 773 627 Q777 610 774 588 Q770 567 762 547.5 Q754 528 742 508 Q728 484 710.5 463 Q693 442 673 423 Q622 373 562 335 Q508 301 456 275 Q437 266 418 257.5 Q399 249 380 240 Q372 237 364 232 Q354 224 351 218.5 Q348 213 347 202 Q345 191 346.5 180 Q348 169 350 158 Q354 137 357.5 116.5 Q361 96 366 75 Q370 55 374 35.5 Q378 16 383 -4 Q393 -49 407 -91 Q412 -105 417.5 -117.5 Q423 -130 430 -142 Q441 -161 457 -174 Q484 -194 525 -180 Q542 -174 558 -165.5 Q574 -157 590 -146 Q608 -134 625.5 -120.5 Q643 -107 660 -93 Q671 -83 681.5 -74 Q692 -65 703 -55 L1183 381 Z M364 529 L361 526 L322 493 Q271 448 225 399 Q196 368 169 336 Q142 304 116 271 Q87 233 60 193 Q33 153 8 111 Q-12 77 -28.5 43 Q-45 9 -59 -26 Q-64 -38 -67.5 -49.5 Q-71 -61 -75 -73 Q-80 -87 -82.5 -99.5 Q-85 -112 -87 -126 Q-89 -140 -89.5 -152.5 Q-90 -165 -88 -177 Q-86 -188 -83 -198 Q-80 -208 -72 -216 Q-53 -238 -21 -225 Q-7 -220 6.5 -211.5 Q20 -203 33 -192 Q52 -178 68.5 -161 Q85 -144 100 -126 Q121 -100 140.5 -73 Q160 -46 177 -17 Q216 43 246 106 Q255 125 263 143 Q271 161 279 180 Q284 191 288 201.5 Q292 212 297 223 Q301 234 304.5 244.5 Q308 255 312 266 Q316 277 319.5 287 Q323 297 326 308 Q329 318 331.5 327 Q334 336 337 346 Q342 366 346.5 385.5 Q351 405 354 425 Q356 433 356.5 439.5 Q357 446 359 454 Q361 468 361.5 481 Q362 494 364 508 L364 529 Z " />
<glyph glyph-name="S" unicode="S" horiz-adv-x="1197" d="M1197 381 Q1199 380 1200 379 Q1202 375 1199 372 Q1186 357 1171 344 Q1129 305 1084 270 Q1039 235 991 205 Q900 147 800 110 Q754 93 709 82.5 Q664 72 619 65 Q611 53 602 40.5 Q593 28 582 14 Q558 -15 520 -53.5 Q482 -92 429.5 -127.5 Q377 -163 310.5 -190 Q244 -217 164 -224 Q155 -225 146 -225.5 Q137 -226 128 -226 Q117 -226 106.5 -225.5 Q96 -225 85 -224 Q64 -221 42 -214 Q20 -207 3.5 -195 Q-13 -183 -22.5 -165 Q-32 -147 -28 -122 Q-24 -98 -10 -75 Q4 -52 24 -33 Q45 -13 71 0 Q97 13 123 21 Q152 29 181.5 34.5 Q211 40 240 44 Q270 48 300 50.5 Q330 53 361 55 Q421 59 480.5 61.5 Q540 64 601 72 Q602 72 602.5 72.5 Q603 73 605 73 Q616 93 624.5 115.5 Q633 138 637 161 L637 170 Q636 203 610 224 Q599 234 585 240 Q571 246 556 250 Q535 256 514 259 Q503 261 492 262 Q481 263 470 263 Q449 264 428 264 Q407 264 386 264 Q374 264 362 263.5 Q350 263 339 262 Q325 262 310.5 261 Q296 260 282 260 Q265 259 248 258 Q231 257 214 257 Q190 255 166 257 Q148 258 130.5 260 Q113 262 97 269 Q69 279 58 303 Q46 327 52 359 Q53 363 53.5 367 Q54 371 55 375 L55 377 L61 398 Q62 400 63 402.5 Q64 405 65 407 Q69 418 74.5 429 Q80 440 86 451 Q97 471 110 490.5 Q123 510 138 529 Q181 582 228 621 Q298 680 380 712 Q420 728 456 731 Q478 734 498.5 732 Q519 730 537 722 Q565 708 582 680 Q593 661 597 639 Q601 617 600 591 Q599 575 596.5 559.5 Q594 544 589 528 Q584 511 576 499 Q573 495 569 496 Q565 498 568 503 L574 518 Q576 524 577.5 530 Q579 536 581 543 Q584 555 585 566.5 Q586 578 587 590 Q589 614 585.5 636 Q582 658 571 676 Q550 713 507 722 Q497 724 487.5 724.5 Q478 725 467 724 Q431 721 397 708 Q304 673 224 602 Q164 549 119 482 Q108 467 99.5 451 Q91 435 83 418 Q78 408 75 398 Q72 388 69 377 Q65 361 64 346.5 Q63 332 67 319 Q73 295 93 284 Q104 277 116 273.5 Q128 270 142 268 Q162 266 183.5 265.5 Q205 265 226 266 L286 269 Q306 270 324.5 270.5 Q343 271 363 273 Q417 274 469 273 Q491 271 512 269 Q533 267 553 262 Q570 258 586 252.5 Q602 247 616 238 Q625 231 634 221 Q636 219 645 205 Q654 191 653 168 L653 164 Q653 156 652 151 Q650 139 644 119.5 Q638 100 624 75 Q675 83 725.5 96 Q776 109 827 129 Q928 171 1024 236 Q1071 268 1114 304 Q1157 340 1197 381 Z M598 62 Q593 61 587.5 61 Q582 61 576 60 Q517 53 459 51 Q401 49 342 44 Q284 41 224 32 Q196 28 168 22.5 Q140 17 111 8 Q85 -1 60.5 -15.5 Q36 -30 17 -52 Q-1 -73 -11.5 -97 Q-22 -121 -17 -143 Q-14 -163 -0.5 -176.5 Q13 -190 31 -198 Q52 -208 77 -212 Q102 -216 128 -217 Q142 -217 155.5 -215.5 Q169 -214 183 -212 Q252 -203 309.5 -179 Q367 -155 413.5 -123.5 Q460 -92 495.5 -58 Q531 -24 554 3 Q565 17 576 31 Q587 45 597 60 L598 62 Z " />
<glyph glyph-name="T" unicode="T" horiz-adv-x="972" d="M990 746 Q992 744 992 743 Q992 741 990 741 Q988 741 987 740 Q984 739 982 738.5 Q980 738 977 737 Q975 736 972.5 736 Q970 736 968 735 Q936 728 904.5 721.5 Q873 715 841 709 Q818 705 796.5 702 Q775 699 752 697 Q692 691 634 689 Q576 687 518 688 Q495 689 473.5 690 Q452 691 429 692 L395 586 Q393 580 391 574 Q389 568 387 562 Q385 554 382.5 547.5 Q380 541 378 533 Q371 513 364 494 Q357 475 350 455 Q342 434 335 413.5 Q328 393 320 373 Q310 347 300 322 Q290 297 279 272 Q268 246 256 220.5 Q244 195 230 169 Q230 169 228 165 Q233 166 236 166 Q239 166 243 167 Q266 171 289.5 174.5 Q313 178 337 182 Q412 194 486.5 210.5 Q561 227 636 251 Q681 265 724.5 281.5 Q768 298 812 315 Q853 332 892.5 348 Q932 364 972 381 L974 379 Q975 377 973 375 Q922 352 870.5 331.5 Q819 311 767 290 Q727 274 687.5 259.5 Q648 245 607 233 Q516 205 422 188 Q392 183 362.5 178 Q333 173 303 168 L228 156 Q227 156 226 155.5 Q225 155 223 155 Q221 150 218 145.5 Q215 141 213 136 Q196 104 177 73 Q158 42 136 12 Q112 -22 84.5 -53.5 Q57 -85 26 -114 Q-1 -139 -29 -161 Q-57 -183 -89 -201 Q-108 -212 -126.5 -220.5 Q-145 -229 -165 -234 Q-184 -239 -201.5 -239.5 Q-219 -240 -236 -235 Q-259 -227 -271.5 -210.5 Q-284 -194 -288 -170 Q-291 -139 -276 -104 Q-265 -77 -247.5 -53 Q-230 -29 -208 -6 Q-181 20 -150.5 40.5 Q-120 61 -87 78 Q-56 92 -25 103.5 Q6 115 38 124 Q71 134 104 141.5 Q137 149 171 155 Q180 157 189 158.5 Q198 160 208 162 Q212 170 216 177 Q220 184 224 192 Q241 227 256 261.5 Q271 296 285 331 Q294 354 302.5 376 Q311 398 319 421 Q329 447 337.5 471.5 Q346 496 355 521 Q360 537 365.5 552.5 Q371 568 377 583 Q382 599 387.5 614 Q393 629 398 644 Q402 656 405.5 668 Q409 680 414 692 Q411 692 409 693 Q395 694 381.5 694.5 Q368 695 354 696 Q340 697 327.5 698 Q315 699 301 700 Q276 702 251.5 703.5 Q227 705 202 707 Q179 709 155 709.5 Q131 710 106 709 Q64 707 22 699.5 Q-20 692 -62 675 Q-102 661 -136 636 Q-150 625 -162.5 613 Q-175 601 -184 585 Q-205 552 -196 520 Q-194 513 -191 511 Q-187 509 -191 507 Q-194 505 -197 508 Q-200 511 -201 513 Q-205 525 -206 538.5 Q-207 552 -203 566 Q-199 577 -192.5 587.5 Q-186 598 -178 609 Q-153 638 -118 658 Q-98 669 -78.5 677 Q-59 685 -39 692 Q14 708 73 714 Q100 716 127 717 Q154 718 180 716 Q197 715 213 714.5 Q229 714 245 712 Q265 710 283.5 709 Q302 708 321 706 L375 703 Q401 701 426 700 Q451 699 477 698 Q502 696 527 696 Q552 696 578 696 Q633 696 689 699 Q720 700 750 702 Q780 704 812 709 Q832 712 851 715.5 Q870 719 890 723 Q911 728 932 732 Q953 736 973 741 Q978 742 981.5 743 Q985 744 990 746 Z M195 138 Q197 141 199 144 Q201 147 203 151 L200 151 Q173 146 146.5 141 Q120 136 93 130 Q58 122 23.5 111 Q-11 100 -46 85 Q-104 62 -159 22 Q-214 -18 -248 -72 Q-273 -111 -276 -150 Q-279 -183 -263 -206 Q-237 -239 -185 -231 Q-158 -225 -128 -211 Q-99 -197 -73 -179.5 Q-47 -162 -22 -141 Q19 -107 53 -69 Q87 -31 117 11 Q162 74 195 138 Z " />
<glyph glyph-name="U" unicode="U" horiz-adv-x="1136" d="M1090 333 L737 33 Q725 23 713 13.5 Q701 4 688 -7 Q677 -15 667.5 -23 Q658 -31 648 -39 Q635 -50 622.5 -60 Q610 -70 596 -80 Q586 -87 576 -93 Q566 -99 555 -102 Q544 -105 534.5 -103.5 Q525 -102 517 -93 Q509 -82 507 -64 Q507 -58 507 -51.5 Q507 -45 508 -38 Q509 -30 509.5 -21.5 Q510 -13 512 -4 Q514 5 516 14.5 Q518 24 520 34 Q522 43 524.5 52 Q527 61 529 69 Q532 79 534.5 88.5 Q537 98 540 107 Q545 120 548.5 133 Q552 146 557 159 Q562 175 568 191 Q574 207 579 223 Q591 255 603 287 Q615 319 629 351 Q640 374 650 397 Q660 420 671 443 L710 521 Q715 530 719 538.5 Q723 547 728 555 Q728 556 728.5 556.5 Q729 557 729 558 Q725 553 722 548.5 Q719 544 715 539 L628 410 Q605 375 581.5 340 Q558 305 535 270 Q518 244 501.5 219.5 Q485 195 468 170 Q451 144 434 118.5 Q417 93 400 67 L328 -41 Q311 -67 292 -92 Q273 -117 253 -140 Q239 -156 223.5 -171 Q208 -186 191 -199 Q182 -207 172 -213 Q162 -219 151 -223 Q134 -229 119.5 -224.5 Q105 -220 95 -206 Q89 -197 86.5 -186 Q84 -175 83 -163 Q83 -152 84.5 -140.5 Q86 -129 88 -117 Q91 -104 94 -91.5 Q97 -79 101 -67 Q107 -47 113.5 -28 Q120 -9 127 11 Q138 43 149.5 74.5 Q161 106 172 138 Q178 156 184 173.5 Q190 191 195 209 Q199 221 202.5 233 Q206 245 209 257 Q213 270 216 282 Q219 294 222 307 Q224 317 226.5 327 Q229 337 231 348 Q236 369 239.5 390.5 Q243 412 247 433 Q249 444 250 455.5 Q251 467 253 478 Q254 492 254.5 504.5 Q255 517 256 531 Q257 550 257 568.5 Q257 587 255 605 Q253 627 247.5 647 Q242 667 231 684 Q211 717 176 724 Q148 728 119 716 Q100 708 84.5 696 Q69 684 55 668 Q27 636 11 601 Q9 595 7 588.5 Q5 582 4 575 Q4 568 7 566 L7 565 Q7 564 6 563 Q6 561 4 561 Q-5 561 -5 572 L-5 574 Q-5 578 -3 586 Q-1 594 1 598 Q8 619 21 640 Q33 658 47 674 Q61 690 78 703 Q111 728 149 733 Q169 735 187 730.5 Q205 726 220 714 Q243 696 255 668 Q264 648 268.5 627 Q273 606 275 583 Q276 566 276.5 550 Q277 534 275 517 Q273 502 272 487 Q271 472 269 457 Q267 440 264 423.5 Q261 407 259 390 Q257 379 254.5 368.5 Q252 358 250 347 Q248 336 245 324 Q242 312 239 301 Q236 290 233.5 279 Q231 268 227 257 Q225 247 222 237.5 Q219 228 216 219 Q211 204 206.5 189 Q202 174 197 159 Q190 138 183 117 Q176 96 169 75 Q159 47 149 19.5 Q139 -8 129 -37 Q124 -51 119.5 -65.5 Q115 -80 110 -94 Q106 -108 103.5 -121 Q101 -134 99 -148 Q97 -161 98 -172.5 Q99 -184 104 -195 Q110 -213 127 -217 Q136 -220 147 -215 Q155 -212 162.5 -207 Q170 -202 178 -196 Q196 -182 212 -166 Q228 -150 243 -133 Q262 -111 279.5 -88.5 Q297 -66 314 -42 Q332 -16 349.5 10 Q367 36 385 63 Q409 99 433 135.5 Q457 172 482 208 Q513 255 544 301 Q575 347 607 394 Q632 432 657 469 Q682 506 708 544 Q722 566 737 587 Q752 608 766 630 Q768 632 769 634 Q774 641 782 639 L785 639 Q788 639 787 635 Q785 627 783 624 Q777 612 770.5 600.5 Q764 589 758 577 Q746 554 734 532 Q722 510 711 487 Q702 470 694 453 Q686 436 678 419 Q667 393 655.5 367.5 Q644 342 633 316 Q622 290 612 263.5 Q602 237 592 210 Q584 187 575.5 163 Q567 139 559 115 Q554 99 550 83.5 Q546 68 541 53 Q538 43 535.5 34 Q533 25 531 16 Q529 6 527.5 -3.5 Q526 -13 524 -23 Q519 -46 521 -67 Q523 -73 524 -78 Q525 -83 528 -88 Q537 -98 551 -94 Q561 -91 570 -86 Q579 -81 588 -75 Q607 -62 624.5 -47.5 Q642 -33 659 -19 Q683 2 707 20 L1136 381 Q1137 380 1138 378 Q1140 375 1137 372 L1090 333 Z " />
<glyph glyph-name="V" unicode="V" horiz-adv-x="1028" d="M1028 381 Q1030 379 1031 377 Q1033 372 1029 370 Q1007 353 985.5 337.5 Q964 322 943 306 Q904 277 865.5 249 Q827 221 788 192 Q769 178 750.5 164.5 Q732 151 712 138 Q693 126 674 114.5 Q655 103 635 95 Q620 89 603.5 86 Q587 83 570 86 Q535 94 513.5 118 Q492 142 481 173 Q478 181 475.5 189.5 Q473 198 471 207 Q469 218 467.5 230 Q466 242 464 253 L430 199 Q419 180 407 161.5 Q395 143 383 124 L311 13 Q290 -19 269.5 -49.5 Q249 -80 226 -110 Q211 -130 195.5 -149 Q180 -168 162 -185 Q152 -194 142 -202.5 Q132 -211 121 -217 Q97 -232 76 -222 Q69 -219 65 -213.5 Q61 -208 57 -201 Q47 -177 47 -147 Q46 -134 46.5 -122 Q47 -110 49 -97 Q51 -89 52 -80 Q53 -71 55 -62 Q58 -39 64 -16 Q66 -6 69 3.5 Q72 13 75 23 Q77 31 79 38 Q81 45 84 52 Q86 60 88.5 66.5 Q91 73 93 80 Q98 96 103 109 Q106 117 109 126 Q112 135 115 143 Q119 153 122 162.5 Q125 172 129 182 L147 227 Q152 241 157.5 254.5 Q163 268 169 282 Q174 295 179 307.5 Q184 320 189 332 Q195 349 201.5 364.5 Q208 380 214 397 Q220 412 226 427 Q232 442 237 457 Q242 469 246 482 Q250 495 254 507 Q261 527 266.5 546.5 Q272 566 275 586 Q279 606 280 626 Q281 646 276 664 Q266 707 224 721 Q202 727 177 724 Q125 720 72 687 Q38 667 6 635 Q-13 615 -27.5 594 Q-42 573 -53 549 Q-63 527 -63 509 Q-65 502 -61 497 Q-59 488 -51 490 Q-51 490 -50 489 L-49 489 Q-49 485 -53 485 Q-70 483 -73 503 Q-74 506 -73.5 509.5 Q-73 513 -73 517 L-73 519 L-70 534 Q-68 538 -67.5 541 Q-67 544 -65 548 Q-57 565 -48 581.5 Q-39 598 -27 613 Q-1 646 30 670 Q61 694 97 711 Q117 719 136.5 724.5 Q156 730 176 732 Q195 734 212 732 Q229 730 245 723 Q287 704 294 655 Q298 628 294 598 Q292 582 289 566.5 Q286 551 281 534 Q276 520 272 506 Q268 492 263 478 L236 403 Q229 386 222.5 369.5 Q216 353 209 336 Q201 313 192 291.5 Q183 270 174 247 Q168 232 162 217 Q156 202 150 186 L126 120 Q121 106 116.5 93.5 Q112 81 107 68 L92 20 L74 -46 Q68 -71 65 -99 Q61 -129 62 -158 Q63 -169 65 -180 Q67 -191 72 -201 Q74 -204 76.5 -207 Q79 -210 81 -213 Q91 -222 105 -214 Q116 -209 130 -197 Q144 -186 157 -172.5 Q170 -159 182 -145 Q203 -120 222 -94 Q241 -68 259 -42 Q282 -8 304.5 25 Q327 58 350 92 Q367 118 383 142.5 Q399 167 415 193 L463 273 Q462 292 462.5 308.5 Q463 325 464 337 Q465 351 467 363 Q469 372 471 381.5 Q473 391 475 400 Q477 411 480.5 423 Q484 435 487 446 Q492 463 498 479 Q504 495 512 511 Q518 525 525 538.5 Q532 552 541 565 Q551 578 560 586 Q573 595 585 590 Q587 589 591 583 Q593 578 593.5 572.5 Q594 567 594 561 Q593 546 590 531 Q587 516 582 502 Q571 465 556 430 Q541 395 523 360 Q518 349 512 338.5 Q506 328 501 317 L500 317 Q497 311 494 305.5 Q491 300 488 294 Q486 291 483.5 286.5 Q481 282 477 276 Q478 254 481.5 230 Q485 206 493 182.5 Q501 159 513.5 139 Q526 119 546 106 Q564 94 586 94 Q607 94 626.5 101.5 Q646 109 664 120 Q702 142 738.5 168 Q775 194 811 221 Q865 261 919.5 300.5 Q974 340 1028 381 Z M479 351 Q479 349 477.5 333.5 Q476 318 477 295 Q482 306 486 312 Q490 318 491 320 Q511 356 529 393 Q547 430 561 469 Q572 501 578 530 Q580 539 581 548.5 Q582 558 581 566 Q581 572 579 580 Q578 585 573 582 Q569 580 567 578 Q561 573 556.5 566.5 Q552 560 547 553 Q539 542 533.5 530.5 Q528 519 523 507 Q515 490 509 472.5 Q503 455 498 437 Q496 430 494 423.5 Q492 417 490 410 Q486 395 483.5 380.5 Q481 366 479 351 Z " />
<glyph glyph-name="W" unicode="W" horiz-adv-x="1359" d="M1361 381 Q1365 381 1362 378 Q1361 378 1361 377 Q1360 376 1360 375 Q1360 374 1359 373 Q1345 358 1327 343 Q1324 340 1311.5 330 Q1299 320 1281 307 Q1276 304 1271.5 300.5 Q1267 297 1262 294 L1238 279 Q1238 279 1237 278 Q1234 276 1231.5 275 Q1229 274 1226 272 Q1200 257 1174 243.5 Q1148 230 1121 217 Q1095 206 1069.5 194.5 Q1044 183 1016 178 Q988 173 964 173 Q947 174 930 177 Q913 180 899 188 Q870 204 855 229 Q852 234 849 239 Q846 244 843 249 Q841 247 840.5 244 Q840 241 838 239 Q821 207 803.5 175 Q786 143 767 111 Q743 70 716.5 31.5 Q690 -7 660 -45 Q642 -68 622.5 -90 Q603 -112 582 -133 Q562 -153 540.5 -169.5 Q519 -186 496 -200 Q482 -207 469.5 -212.5 Q457 -218 443 -220 Q384 -229 362 -181 Q356 -167 353.5 -150.5 Q351 -134 351 -116 Q350 -103 351 -90 Q352 -77 354 -63 L360 -27 Q363 -9 367.5 9 Q372 27 377 45 Q381 57 384.5 68.5 Q388 80 392 92 Q394 100 397 108.5 Q400 117 403 125 Q407 136 411 146 Q415 156 419 166 Q424 178 428.5 190 Q433 202 438 214 Q443 228 449 241 Q455 254 461 268 L500 349 Q511 371 521.5 392 Q532 413 543 434 L594 527 Q597 533 600.5 539 Q604 545 608 552 Q608 552 609 554 L594 533 L519 425 L447 320 Q432 298 417 276.5 Q402 255 386 233 Q366 205 347 177 Q328 149 308 121 Q289 94 270.5 66.5 Q252 39 232 13 Q212 -13 193 -39 Q174 -65 154 -91 Q122 -133 87 -170 Q73 -184 58.5 -197.5 Q44 -211 27 -222 Q19 -227 10.5 -231 Q2 -235 -7 -236 Q-31 -241 -43 -221 Q-48 -212 -50.5 -201 Q-53 -190 -54 -179 Q-56 -150 -51 -120 Q-49 -110 -48 -100.5 Q-47 -91 -45 -82 Q-43 -74 -41.5 -65 Q-40 -56 -38 -48 Q-35 -38 -32.5 -28 Q-30 -18 -27 -7 Q-25 3 -22 12 Q-19 21 -16 31 Q-14 40 -11 48.5 Q-8 57 -5 66 Q-1 77 2.5 86.5 Q6 96 10 107 Q16 129 25 148 Q30 161 35 173.5 Q40 186 45 198 Q51 212 56.5 226.5 Q62 241 68 255 Q82 285 94 313 Q102 330 109 345.5 Q116 361 123 378 Q131 395 139 412.5 Q147 430 155 447 Q163 464 171 482 Q179 500 187 518 Q193 530 198.5 542.5 Q204 555 209 567 Q213 577 216.5 586.5 Q220 596 224 605 Q228 618 232 630 Q236 642 240 654 Q244 666 246 678 Q248 690 247 702 Q247 737 211 731 Q197 729 185 723.5 Q173 718 160 710 Q104 676 61 619 Q28 578 4 528 Q-12 493 -19 462 Q-22 447 -23 432.5 Q-24 418 -20 405 Q-17 397 -13 392 Q-10 388 -4 391 Q-2 392 -0.5 392 Q1 392 3 393 Q4 390 0 388 Q-6 383 -11.5 384 Q-17 385 -21 388 Q-27 395 -30 406 Q-34 424 -31 448 Q-28 467 -22 487 Q-11 522 7 554 Q24 586 45.5 615 Q67 644 93 670 Q110 687 129 700.5 Q148 714 168 724 Q192 738 217 739 Q236 741 248 731 Q258 723 260 705 Q261 697 260.5 689 Q260 681 258 673 Q257 668 256.5 662 Q256 656 254 651 Q250 640 247 630 Q244 620 240 609 Q236 598 231.5 586 Q227 574 222 563 Q217 549 211 536 Q205 523 199 509 Q190 489 181 468.5 Q172 448 163 427 Q149 396 134.5 365 Q120 334 106 302 L76 233 Q71 219 65.5 206.5 Q60 194 55 181 Q50 168 45 156 Q40 144 35 131 L20 89 Q16 80 13 71 Q10 62 7 53 Q2 37 -2.5 22 Q-7 7 -12 -8 Q-16 -22 -19 -34.5 Q-22 -47 -25 -61 Q-27 -66 -27.5 -70 Q-28 -74 -29 -79 Q-31 -88 -32.5 -96.5 Q-34 -105 -36 -114 Q-38 -128 -39.5 -142 Q-41 -156 -41 -170 Q-41 -196 -33 -213 Q-31 -216 -29 -218.5 Q-27 -221 -25 -224 Q-17 -232 0 -225 Q19 -217 40 -199 Q56 -186 70 -171.5 Q84 -157 98 -142 Q121 -116 142.5 -89 Q164 -62 185 -34 Q220 14 254 61.5 Q288 109 321 157 Q349 196 376 235 Q403 274 430 313 Q457 352 484 390.5 Q511 429 538 468 Q560 500 582 531 Q604 562 626 593 L644 617 Q647 621 652 621 L654 621 Q659 620 657 615 Q652 607 648 598 Q644 589 639 581 Q619 543 598 506 Q577 469 557 431 Q539 397 522 362.5 Q505 328 489 293 Q481 277 474.5 261 Q468 245 460 229 Q455 217 450 205 Q445 193 440 181 L425 142 Q422 132 418.5 122.5 Q415 113 412 103 Q408 92 405 82.5 Q402 73 399 62 Q396 52 393 42.5 Q390 33 388 23 Q384 9 381 -4.5 Q378 -18 375 -32 Q366 -79 367 -119 Q367 -135 369 -149 Q371 -163 377 -176 Q387 -201 409 -208 Q428 -215 455 -205 Q472 -199 488.5 -189.5 Q505 -180 521 -169 Q542 -154 560.5 -137 Q579 -120 597 -100 Q617 -80 634.5 -58 Q652 -36 669 -13 Q690 14 709 42.5 Q728 71 746 100 Q769 136 789.5 173.5 Q810 211 830 249 L836 261 Q837 263 837 265 Q823 305 821 354 Q819 384 824 414 Q825 423 826 431.5 Q827 440 829 449 Q831 455 832 461.5 Q833 468 835 475 Q839 489 843.5 503 Q848 517 854 531 Q869 568 891 602 Q898 611 905.5 619.5 Q913 628 922 636 Q937 647 955 644 Q960 643 964 633 Q967 625 967 616 Q967 607 967 598 Q965 576 961 554 Q958 537 954 519.5 Q950 502 945 485 Q939 466 932 447.5 Q925 429 917 409 Q906 383 894.5 356.5 Q883 330 870 303 Q863 287 854 271 Q854 266 854 266 Q862 246 873.5 229 Q885 212 903 201 Q920 189 944 185 Q955 183 967.5 183 Q980 183 993 184 Q1021 187 1048 195.5 Q1075 204 1101 215 Q1119 223 1135.5 232 Q1152 241 1169 249 Q1174 251 1182 255 Q1186 257 1204.5 267.5 Q1223 278 1248.5 294.5 Q1274 311 1302 331.5 Q1330 352 1353 375 L1359 381 L1361 381 Z M847 284 Q849 288 849 287 Q852 293 854.5 298.5 Q857 304 860 310 Q870 332 879.5 353.5 Q889 375 899 398 Q904 411 909.5 424.5 Q915 438 920 452 Q925 464 928.5 476 Q932 488 936 501 Q943 524 948 547 Q953 570 955 593 Q955 602 955 611 Q955 620 953 628 Q951 632 949 635 Q948 638 943 636 Q940 634 937 632 Q934 630 931 628 Q922 621 915.5 612.5 Q909 604 903 594 Q886 570 875 545 Q864 520 856 494 Q852 481 849.5 468.5 Q847 456 844 443 Q842 433 841 423 Q840 413 839 402 Q834 353 842 308 Q844 302 845 296 Q846 290 847 284 Z " />
<glyph glyph-name="X" unicode="X" horiz-adv-x="1151" d="M1151 381 Q1152 379 1153 378 Q1154 375 1152 373 Q1151 372 1140 362 Q1129 352 1112 336 L970 204 Q960 195 951 186.5 Q942 178 932 170 Q894 133 853 97 Q833 80 814.5 62 Q796 44 776 26 L692 -49 Q675 -64 657.5 -78.5 Q640 -93 623 -107 Q579 -143 535 -171 Q514 -184 492 -195 Q470 -206 447 -214 Q432 -219 416.5 -222.5 Q401 -226 385 -226 Q343 -226 315 -199 Q298 -184 287.5 -165 Q277 -146 269 -124 Q256 -86 251 -40 Q250 -29 249.5 -18 Q249 -7 248 4 Q247 13 247 21.5 Q247 30 247 39 L247 81 Q248 88 248 94.5 Q248 101 249 108 Q250 119 250 131 Q250 143 251 155 L254 182 L254 188 Q251 184 246 179 Q224 152 202 125 Q180 98 158 71 Q139 48 121 24.5 Q103 1 84 -23 Q63 -49 43 -76 Q23 -103 5 -132 Q1 -137 -2 -143 Q-5 -149 -8 -155 Q-14 -167 -9 -181 L-9 -185 Q-13 -185 -14 -184 Q-21 -174 -18 -162 Q-16 -153 -12 -145.5 Q-8 -138 -3 -130 Q11 -108 25.5 -87.5 Q40 -67 55 -47 Q104 17 154 79 Q171 102 189 123 Q207 144 224 166 Q232 176 239 185 Q246 194 254 203 Q256 205 256 207 Q258 224 259.5 239.5 Q261 255 263 272 Q265 295 267.5 317.5 Q270 340 273 363 L279 432 Q280 440 280.5 447.5 Q281 455 282 463 Q282 471 282.5 478 Q283 485 283 493 Q284 502 284 511 Q284 520 284 529 Q285 563 281 598 Q279 612 276 626 Q273 640 267 654 Q263 663 258 671 Q253 679 245 685 Q227 697 203 694 Q183 691 164 681.5 Q145 672 128 658 Q96 633 74.5 601.5 Q53 570 38 533 Q31 516 26 495 Q24 485 24 476 Q24 467 26 458 Q29 448 36 444 Q37 443 37 440 Q36 438 34 438 Q31 438 29.5 439.5 Q28 441 26 443 Q15 454 15 472 L15 489 L15 490 Q16 493 16.5 496.5 Q17 500 18 503 Q21 520 29 540 Q43 579 70 615 Q91 642 116 662 Q141 682 172 694 Q198 704 228 701 Q255 696 271 673 Q279 661 283.5 647.5 Q288 634 291 620 Q298 589 298 552 Q299 541 299 530.5 Q299 520 299 509 Q299 499 298.5 489.5 Q298 480 297 470 Q296 454 295.5 438.5 Q295 423 293 407 Q290 374 286.5 341 Q283 308 280 274 Q278 263 277.5 253 Q277 243 275 232 L275 228 Q278 231 280.5 234 Q283 237 285 240 Q308 267 331.5 294.5 Q355 322 379 350 Q425 402 474 454 Q494 475 514 496 Q534 517 554 538 Q583 567 612.5 593.5 Q642 620 673 646 Q710 676 752 707 Q760 713 767.5 718.5 Q775 724 783 730 Q787 733 792 733 Q798 733 795 727 L795 726 Q790 727 785 724 Q764 709 743.5 693.5 Q723 678 703 661 Q671 634 639.5 605.5 Q608 577 578 547 Q552 523 528 498.5 Q504 474 481 448 Q457 422 433.5 396 Q410 370 387 344 Q364 318 342 292 Q320 266 298 240 Q292 233 286 226.5 Q280 220 275 213 Q273 211 273 209 Q272 198 271.5 187 Q271 176 270 165 Q269 157 268.5 150.5 Q268 144 268 136 Q267 128 266.5 119.5 Q266 111 266 102 Q266 94 265.5 86.5 Q265 79 265 71 L265 41 L265 11 Q266 -2 266.5 -15 Q267 -28 268 -41 Q271 -75 280 -108 Q285 -124 290.5 -139 Q296 -154 306 -168 Q316 -184 329.5 -195.5 Q343 -207 361 -213 Q376 -219 396 -217 Q413 -215 428.5 -210 Q444 -205 459 -198 Q491 -184 521 -166 Q551 -148 580 -127 Q630 -91 672 -52 Q707 -23 740 7 Q773 37 807 68 Q825 84 843 99.5 Q861 115 878 132 L968 213 Q969 213 971 215 L1151 381 L1151 381 Z " />
<glyph glyph-name="Y" unicode="Y" horiz-adv-x="1136" d="M1138 379 Q1139 377 1138 376 Q1137 375 1120.5 363 Q1104 351 1081 334 Q1078 332 1071 326.5 Q1064 321 1056 316 Q1047 310 1037 302 Q1030 297 1023.5 292.5 Q1017 288 1009 283 Q1007 282 1004 279 L1004 280 Q985 266 967 254 Q949 242 930 229 Q910 215 890.5 202 Q871 189 851 176 Q796 138 732 104 Q687 80 639 59 Q595 41 552 26 L459 -4 Q451 -6 445 -8 Q442 -8 441 -11 Q430 -23 420.5 -35 Q411 -47 400 -59 Q370 -94 335 -124 Q314 -143 292 -160 Q270 -177 247 -192 Q223 -206 198 -218 Q173 -230 146 -237 Q133 -240 120.5 -242 Q108 -244 94 -243 Q82 -242 71 -238.5 Q60 -235 51 -227 Q30 -209 36 -180 Q38 -167 44.5 -156 Q51 -145 60 -135 Q71 -124 83 -115.5 Q95 -107 109 -99 Q129 -88 149 -80.5 Q169 -73 190 -65 Q218 -56 246 -49 Q274 -42 302 -35 Q334 -27 365 -19 Q396 -11 427 -3 Q430 -3 432 0 Q477 60 512 127 Q550 197 582 275 Q605 329 624 388 Q632 413 639 437.5 Q646 462 654 486 Q658 499 661 511.5 Q664 524 667 537 Q669 545 670.5 553.5 Q672 562 674 570 Q676 581 677.5 592 Q679 603 679 614 Q679 619 679 623.5 Q679 628 677 633 Q672 632 664 626 Q647 613 633 596 Q621 581 609 566.5 Q597 552 586 537 Q566 512 547.5 487 Q529 462 510 437 Q492 414 474.5 390 Q457 366 440 343 Q425 323 410.5 302 Q396 281 381 261 Q358 230 336.5 200 Q315 170 292 140 Q280 123 267.5 107 Q255 91 241 76 Q231 65 221 55 Q211 45 199 37 Q187 28 176 27 Q159 25 150 36 Q141 47 139 64 Q138 76 138.5 88 Q139 100 141 112 Q146 140 153.5 167 Q161 194 171 221 Q183 252 196 282.5 Q209 313 224 343 Q236 369 249 395 Q262 421 275 447 Q289 475 304 503 Q319 531 333 560 Q342 580 350.5 599 Q359 618 365 638 Q368 649 370.5 659 Q373 669 373 680 Q374 685 373.5 690 Q373 695 372 700 Q369 721 347 726 Q331 730 313 727 Q290 723 268 715 Q246 707 225 696 Q182 674 147 644 Q79 588 39 512 Q19 476 8 434 Q5 423 3 411 Q1 399 2 388 Q2 380 3 372.5 Q4 365 7 357 Q11 351 15 350 L15 349 L15 348 Q15 347 14 346 Q10 346 4 350 Q0 354 -1.5 358.5 Q-3 363 -5 368 Q-7 375 -7 381 Q-7 387 -7 394 L-7 398 L-7 407 Q-5 413 -5 417 Q-3 428 -0.5 438.5 Q2 449 6 460 Q14 485 26 507.5 Q38 530 52 552 Q62 567 72.5 581 Q83 595 96 609 Q135 651 181 680 Q222 705 262 721 Q286 730 313 734 Q325 736 337 735.5 Q349 735 360 730 Q379 723 385 702 Q387 691 386.5 681.5 Q386 672 384 661 Q379 639 372 618 Q365 597 356 577 Q345 554 334.5 532 Q324 510 313 487 Q299 460 286 433 Q273 406 260 380 Q236 330 215 281 Q202 252 191 224 Q180 196 172 167 Q168 154 165 142 Q162 130 159 117 Q155 98 155 75 Q155 68 156 61 Q157 54 160 47 Q164 41 167 38 Q169 35 174 37 Q181 40 186.5 43.5 Q192 47 198 52 Q209 61 219 71.5 Q229 82 239 93 Q275 135 308 180 Q331 212 354 243 Q377 274 400 306 Q423 337 445 367 Q467 397 490 428 Q511 456 532 484 Q553 512 574 540 Q585 555 597 570 Q609 585 621 600 Q629 609 636.5 617 Q644 625 653 633 Q665 643 677 642 L685 642 Q690 641 693 634 Q695 629 695 624 Q695 619 695 614 Q695 603 693.5 592 Q692 581 690 570 Q688 559 686 549.5 Q684 540 682 529 Q677 504 670 480 Q663 456 656 432 Q650 412 643.5 393 Q637 374 630 354 Q622 330 613 306 Q604 282 593 258 Q583 236 573 214.5 Q563 193 552 171 Q541 146 527.5 122.5 Q514 99 500 75 Q489 57 477.5 40 Q466 23 453 6 Q453 5 452 4 L464 7 Q497 17 529.5 27.5 Q562 38 594 51 Q677 83 752 126 Q778 140 802 154.5 Q826 169 851 185 Q887 209 923 233 Q959 257 996 281 Q1005 287 1014.5 293.5 Q1024 300 1033 307 L1136 381 L1138 379 Z M401 -39 Q406 -33 411 -27 Q416 -21 421 -14 Q419 -15 417 -15 Q403 -19 390.5 -22 Q378 -25 364 -29 Q341 -34 319 -39.5 Q297 -45 275 -51 Q258 -56 242 -60 Q226 -64 209 -69 Q187 -76 165.5 -83.5 Q144 -91 124 -102 Q109 -110 95 -119 Q81 -128 69 -140 Q54 -155 48 -174 Q40 -200 55 -218 Q67 -231 86 -234 Q98 -237 110 -235.5 Q122 -234 133 -232 Q153 -227 172 -219 Q191 -211 210 -201 Q246 -180 278 -156 Q310 -132 337 -106 Q354 -90 370 -73 Q386 -56 401 -39 Z " />
<glyph glyph-name="Z" unicode="Z" horiz-adv-x="1172" d="M1176 372 Q1176 371 1175 371 Q1124 330 1071.5 293 Q1019 256 963 223 Q908 190 850 162 Q792 134 731 114 Q708 106 685.5 99.5 Q663 93 640 88 Q638 86 637 84.5 Q636 83 634 81 Q634 80 633 79 L627 70 Q621 62 615 54 Q609 46 602 38 Q599 33 595.5 29.5 Q592 26 588 22 Q588 21 587.5 20.5 Q587 20 587 19 Q584 17 580 11 Q575 6 570.5 1.5 Q566 -3 561 -8 L537 -32 Q532 -37 528 -41 Q524 -45 519 -49 Q515 -53 510.5 -57 Q506 -61 501 -65 Q496 -70 492 -73.5 Q488 -77 483 -81 Q475 -87 467.5 -93 Q460 -99 452 -104 Q441 -113 431 -119 Q425 -124 419 -127.5 Q413 -131 407 -135 L383 -150 Q376 -154 369.5 -157 Q363 -160 356 -164 Q349 -168 342 -171 Q338 -173 334.5 -174.5 Q331 -176 327 -178 Q321 -182 311 -185 Q307 -187 303.5 -188.5 Q300 -190 296 -192 Q291 -194 287 -195.5 Q283 -197 278 -199 Q273 -201 269.5 -202 Q266 -203 261 -205 Q256 -207 251 -208 Q246 -209 241 -211 L220 -217 Q215 -219 209.5 -220 Q204 -221 198 -223 Q192 -225 186 -225.5 Q180 -226 173 -228 Q166 -230 159.5 -230.5 Q153 -231 145 -232 Q127 -235 108 -235 Q89 -237 71 -235 Q63 -234 54.5 -233 Q46 -232 38 -230 Q19 -227 1 -218 Q-10 -212 -22 -204 Q-30 -199 -36 -192 Q-44 -184 -52 -171 Q-72 -136 -63.5 -98.5 Q-55 -61 -30 -31 Q-18 -16 -4 -5.5 Q10 5 26 15 L27 15 Q50 27 73 33 Q102 42 132.5 46.5 Q163 51 194 54 Q266 62 337 64.5 Q408 67 480 74 Q516 77 550.5 82 Q585 87 620 94 Q626 102 628 107 Q638 121 645.5 135 Q653 149 661 164 Q666 175 670.5 186.5 Q675 198 679 209 Q686 228 689 251 Q690 262 689.5 272.5 Q689 283 686 294 Q684 299 682.5 304 Q681 309 677 313 Q672 321 665 327 Q657 335 649 339 Q636 348 621.5 352 Q607 356 592 358 Q578 360 565 361.5 Q552 363 538 362 Q527 362 515 361.5 Q503 361 492 360 Q484 359 475.5 358.5 Q467 358 459 356 Q452 355 445.5 354 Q439 353 432 352 Q425 350 419 349 Q413 348 406 347 L382 341 Q377 339 372 338.5 Q367 338 362 336 Q357 334 351.5 332.5 Q346 331 341 329 L323 323 L305 317 Q300 315 296 313.5 Q292 312 288 310 Q278 307 272 303 Q270 302 268.5 301.5 Q267 301 265 300 Q259 296 252 300 Q249 303 249 306 Q247 309 248 310 Q249 311 251 314 L269 329 Q277 336 283.5 342 Q290 348 298 354 Q303 358 307.5 362 Q312 366 317 370 L344 394 Q349 398 353.5 402 Q358 406 363 410 Q368 414 372 418 Q376 422 380 426 Q387 432 393 438 Q399 444 405 450 Q418 462 430 475 Q434 479 437.5 483 Q441 487 445 491 Q453 500 459.5 508.5 Q466 517 473 525 Q479 533 485 541.5 Q491 550 497 559 Q513 582 524 612 Q529 626 531.5 638.5 Q534 651 532 665 Q532 677 525 689 Q516 703 502 713 Q491 720 478 722.5 Q465 725 452 726 Q444 728 436 726 Q428 725 419 724.5 Q410 724 402 722 Q396 721 390.5 720 Q385 719 380 717 Q375 716 369.5 714.5 Q364 713 359 711 Q354 709 350.5 708 Q347 707 342 705 Q334 701 326 698 Q318 695 310 691 Q307 689 303.5 687.5 Q300 686 297 684 Q290 681 284 677.5 Q278 674 271 670 Q261 664 248 654 Q243 651 237.5 647 Q232 643 227 639 Q216 631 208 623 Q200 616 193 609.5 Q186 603 179 595 Q173 588 166.5 581 Q160 574 155 566 Q149 558 143.5 549 Q138 540 133 531 Q119 507 112 480 Q110 469 108.5 458.5 Q107 448 108 437 Q108 431 110 425.5 Q112 420 118 417 L119 416 L119 412 Q119 412 117 412 Q110 413 105 423 Q100 432 100 448 Q100 459 102 469.5 Q104 480 107 491 Q111 504 115.5 516 Q120 528 127 539 Q131 546 134.5 552 Q138 558 142 564 Q153 580 162 590 Q167 597 173 603 Q179 609 185 615 Q190 620 194 623.5 Q198 627 203 631 Q208 636 212.5 639.5 Q217 643 222 647 Q227 651 232.5 655 Q238 659 243 662 Q249 667 255 670.5 Q261 674 267 678 Q273 682 279.5 685 Q286 688 293 692 Q301 696 308 699.5 Q315 703 323 706 Q327 708 331 709.5 Q335 711 339 713 L357 719 Q362 721 367 722 Q372 723 377 725 Q383 727 389 728 Q395 729 402 731 Q411 733 420 733.5 Q429 734 438 735 Q451 736 463.5 734 Q476 732 488 729 Q490 728 493.5 727 Q497 726 499 724 Q504 722 509.5 718.5 Q515 715 520 712 Q532 702 537 690 Q546 672 544 647 Q542 631 537.5 615.5 Q533 600 526 586 Q521 575 514.5 564 Q508 553 501 542 Q496 535 492 529 Q488 523 483 517 Q478 510 472.5 504 Q467 498 462 491 L441 467 Q435 460 429 454 Q423 448 417 441 Q412 437 408.5 433.5 Q405 430 401 426 Q394 419 388 413 Q382 407 375 401 Q368 395 362 389 Q356 383 349 377 Q344 372 340 368.5 Q336 365 331 360 L313 345 Q308 340 303 336.5 Q298 333 293 329 Q292 328 292 327.5 Q292 327 291 326 Q293 326 295 328 Q299 329 302 330 Q305 331 309 332 Q314 334 319.5 335.5 Q325 337 330 339 Q334 341 338 342 Q342 343 346 345 L370 351 Q376 353 381.5 354 Q387 355 393 357 Q399 358 405 359 Q411 360 418 362 Q425 364 432 364.5 Q439 365 447 366 Q455 368 462.5 369 Q470 370 478 371 Q488 372 497.5 372 Q507 372 517 373 Q528 375 539 374.5 Q550 374 561 373 Q568 373 574 372.5 Q580 372 586 371 Q591 370 596 370 Q601 370 606 368 Q620 364 633 360.5 Q646 357 659 350 Q670 343 678 336 Q680 334 682.5 331.5 Q685 329 687 327 Q699 313 705 294 Q709 274 708 252 Q706 233 701.5 216 Q697 199 690 182 Q681 158 669 137 L654 110 Q652 108 651 105 Q650 102 648 100 Q674 107 699 114.5 Q724 122 749 131 Q811 153 868.5 182 Q926 211 981 245 Q1031 276 1078.5 310 Q1126 344 1172 381 Q1174 380 1176 378 Q1179 375 1176 372 Z M600 66 Q603 70 606 74 Q609 78 612 83 Q575 75 538 70.5 Q501 66 463 63 Q391 57 319 53.5 Q247 50 175 42 Q149 39 122.5 35 Q96 31 71 23 Q38 12 9.5 -9 Q-19 -30 -37 -59 Q-44 -71 -48.5 -83 Q-53 -95 -54 -109 Q-57 -140 -44 -163 Q-41 -168 -37.5 -173.5 Q-34 -179 -29 -184 Q-26 -188 -22.5 -191 Q-19 -194 -15 -197 Q-10 -200 -5.5 -203 Q-1 -206 4 -208 Q12 -213 20 -215.5 Q28 -218 36 -220 Q52 -223 68 -225 Q84 -227 101 -225 Q110 -224 119 -223.5 Q128 -223 137 -221 Q144 -220 151 -219 Q158 -218 166 -217 Q179 -213 189 -212 Q194 -210 200 -209 Q206 -208 211 -206 Q217 -204 222.5 -203 Q228 -202 233 -200 Q238 -198 242 -196.5 Q246 -195 251 -193 Q256 -192 260 -190.5 Q264 -189 269 -187 Q274 -185 278 -183.5 Q282 -182 287 -180 Q297 -176 301 -174 Q306 -172 310 -170 Q314 -168 319 -166 L331 -160 L358 -145 Q365 -142 371 -138.5 Q377 -135 384 -131 Q390 -127 396 -123.5 Q402 -120 408 -115 Q413 -111 418.5 -108 Q424 -105 429 -100 Q435 -96 441 -92 Q447 -88 453 -83 Q457 -80 460.5 -77 Q464 -74 469 -71 Q474 -66 479.5 -61 Q485 -56 491 -51 Q495 -48 498 -45 Q501 -42 505 -39 L526 -18 L538 -6 L541 -3 Q552 8 561 18 Q570 28 576 36 Q583 45 589 52 Q592 56 594.5 59 Q597 62 600 66 Z " />
<glyph glyph-name="zero" unicode="0" horiz-adv-x="265" d="M199 471 Q199 467 199 463 Q199 459 198 455 Q198 450 197 445.5 Q196 441 195 436 Q193 428 190.5 420.5 Q188 413 185 405 L176 384 Q172 376 168.5 369.5 Q165 363 161 356 Q157 350 153 344 Q149 338 145 333 Q140 328 136 323 Q132 318 127 313 Q121 306 114.5 301 Q108 296 101 291 Q84 279 70 275 Q59 272 52 272 L48 272 Q38 272 29 275 Q22 278 16 284 Q6 292 0 310 Q-2 315 -3 320 Q-4 325 -4 332 Q-5 336 -5 344 L-5 348 L-5 349 L-5 350 L-4 356 L-4 357 Q-4 361 -3.5 365.5 Q-3 370 -2 375 L4 399 Q6 404 8 409.5 Q10 415 12 420 Q14 425 16.5 429 Q19 433 21 437 Q26 445 30 451 Q34 457 39 462 Q43 468 48 471 L48 472 L64 488 Q68 491 71.5 494.5 Q75 498 80 501 Q81 502 82 502.5 Q83 503 84 504 Q85 504 86 504.5 Q87 505 89 505 Q91 505 91 503 Q92 503 92 501 Q90 499 90 499 Q88 499 88 501 Q84 499 82 497 Q79 495 75.5 492 Q72 489 70 486 Q61 478 55 471 Q54 471 52 469 Q50 467 48 464.5 Q46 462 44 460 Q40 455 36.5 450.5 Q33 446 30 440 Q19 425 11 402 Q7 391 4 374 Q3 370 3 367 Q3 364 2 361 Q2 359 1.5 356 Q1 353 1 349 Q1 344 1 339.5 Q1 335 2 330 Q2 325 3 320 Q4 315 6 310 Q11 298 16 291 Q20 287 28 281 Q38 277 43 276 Q56 276 68 280 Q81 284 97 295 Q101 298 104 300.5 Q107 303 111 307 Q125 318 139 337 Q144 342 147.5 348 Q151 354 156 361 Q166 379 174 397 Q181 412 185 425 Q186 430 187 434.5 Q188 439 189 444 Q191 454 191 459 Q192 462 192 469 Q192 485 187 498 Q180 512 163 517 Q155 520 143 518 Q127 516 114 506 Q110 504 107 501 Q104 498 101 495 Q94 489 91 482 Q89 480 89 478 Q89 476 87 476 Q85 476 85 478 L85 481 Q86 485 90 490 Q94 496 103 503 Q106 506 110 509 Q114 512 118 514 Q131 521 145 523 Q150 523 155.5 523 Q161 523 166 521 Q176 518 182 513 Q191 504 194 494 Q196 489 197 483.5 Q198 478 199 471 Z " />
<glyph glyph-name="one" unicode="1" horiz-adv-x="145" d="M68 520 Q68 518 67 518 L67 517 Q66 515 65.5 512 Q65 509 63 506 Q60 497 55 487 L53 482 Q49 475 46 468 Q43 461 40 454 L38 451 Q33 439 28 428 Q26 422 23 416 Q20 410 17 403 Q11 387 3 369 Q1 362 -2 355.5 Q-5 349 -7 343 L-8 341 Q-12 332 -15 324 Q-18 316 -21 308 Q-24 300 -27 292.5 Q-30 285 -33 277 L-33 276 Q-33 274 -35 272 Q-35 271 -36 270 L-37 270 Q-37 270 -39 271 L-39 275 Q-38 277 -38 277.5 Q-38 278 -37 280 Q-34 291 -30 300.5 Q-26 310 -23 319 Q-20 327 -17 335 Q-14 343 -10 352 Q-9 357 -5 367 L1 382 Q3 385 3.5 388.5 Q4 392 6 395 L7 398 Q11 406 14.5 415 Q18 424 23 434 Q25 441 28 447 Q31 453 35 461 Q37 466 40 472 Q43 478 45 483 L48 489 Q50 492 51.5 495.5 Q53 499 55 502 Q57 506 58.5 509.5 Q60 513 61 517 L62 518 Q60 517 58 515 Q54 512 45 503 Q41 500 34 491 Q33 491 33 490.5 Q33 490 31 490 L30 491 Q30 492 31 493 Q33 496 38 501 Q41 505 44.5 508 Q48 511 53 516 Q57 520 59 521 Q61 523 66 523 L67 522 Q67 521 68 520 Z " />
<glyph glyph-name="two" unicode="2" horiz-adv-x="255" d="M158 512 Q162 507 162 495 Q162 492 161.5 489 Q161 486 160 482 Q158 478 156.5 473.5 Q155 469 153 464 Q150 457 147 449.5 Q144 442 139 434 Q135 427 132 421 Q129 415 124 409 Q119 398 112 389 Q106 381 100 373 Q94 365 88 357 Q83 351 79 346 Q75 341 71 336 Q66 330 61 325 Q56 320 51 315 Q49 312 46 309.5 Q43 307 40 304 Q36 301 32 297.5 Q28 294 23 291 L26 291 L34 291 Q38 290 41.5 290 Q45 290 48 290 Q52 290 54 289 L58 289 Q63 289 65 288 L70 288 L74 288 Q75 287 79 287 Q84 287 87 286 L92 286 Q96 286 98 285 Q104 285 108 284 L109 284 Q114 284 117 283 L119 283 Q123 283 131 281 Q133 281 134 280 Q134 279 135 279 L135 276 Q135 276 132 276 L131 276 L130 276 Q128 277 127 277 Q126 277 124 278 L123 278 Q119 278 115.5 278.5 Q112 279 107 280 L99 280 Q96 281 91 281 Q89 281 87 281.5 Q85 282 83 282 L79 282 Q75 282 73 283 L64 283 Q62 284 59 284 L53 284 Q48 285 44 285 Q40 285 37 285 L36 285 L26 285 L24 285 L15 285 Q15 285 14 284 Q4 277 -2 275 Q-4 273 -7.5 272.5 Q-11 272 -14 271 L-17 271 L-21 271 Q-25 273 -25 275 Q-26 277 -25.5 277.5 Q-25 278 -25 279 Q-23 281 -22 281 Q-19 283 -16 284 Q-13 285 -11 286 Q-5 288 7 290 L10 290 L11 290 L12 290 L24 299 Q30 305 34 308 L50 324 Q57 331 63 338 Q69 345 76 353 Q81 360 86.5 366.5 Q92 373 97 381 Q102 388 106 394.5 Q110 401 115 409 Q125 424 133 439 Q138 449 142 457 Q146 465 149 473 Q151 478 152 482 Q153 486 154 490 Q156 501 154 507 Q151 517 140 519 Q136 520 127 518 Q114 514 99 503 Q91 497 88 494 Q80 487 75 480 Q70 473 65 466 Q64 463 62 459 L62 457 L62 456 L64 456 Q65 456 65 454 L64 453 L60 453 Q58 455 58 456 Q57 458 59 462 Q61 466 62.5 469.5 Q64 473 67 478 Q71 483 75 487.5 Q79 492 84 497 Q94 507 104 512 Q111 517 117 519 Q123 521 128 523 Q139 525 146 522 Q153 521 158 512 Z M0 283 Q-2 282 -4.5 282 Q-7 282 -9 281 Q-15 279 -17 277 Q-18 277 -18 276 L-17 276 L-14 276 Q-11 278 -8 279 Q-5 280 -1 282 L0 283 Z " />
<glyph glyph-name="three" unicode="3" horiz-adv-x="197" d="M107 398 Q108 393 106 382 Q103 367 95 353 Q92 348 88.5 342.5 Q85 337 81 332 Q71 318 61 310 Q44 295 30 287 Q15 278 1 275 Q-3 274 -6 273.5 Q-9 273 -13 273 L-15 273 Q-20 273 -23 274 Q-26 275 -29 277 Q-37 282 -37 292 Q-38 295 -36 301 Q-34 307 -31 313.5 Q-28 320 -22 326 Q-17 331 -13 336 Q-9 341 -4 346 Q0 351 3.5 354 Q7 357 10 360 Q12 362 14 363.5 Q16 365 18 367 Q21 369 24 371.5 Q27 374 31 376 Q33 377 37 377 L39 377 Q39 377 39 376 Q39 375 38.5 375 Q38 375 38 374 L37 374 Q34 374 28 370 Q16 361 6 351 Q2 346 -2 342 Q-6 338 -10 333 L-12 332 Q-14 329 -17 326 Q-20 323 -22 320 Q-30 309 -31 301 Q-32 294 -31 288 Q-29 281 -21 279 Q-15 277 -3 278 Q0 279 3.5 280 Q7 281 12 283 Q19 286 25 289.5 Q31 293 38 298 L50 307 Q62 317 72 329 Q82 343 87 351 Q90 356 92 360 Q94 364 96 369 Q97 371 97 372.5 Q97 374 98 376 Q101 386 101 396 Q99 405 97 410 Q91 420 79 424 Q76 426 73 426 Q70 426 67 427 Q62 427 60 428 L59 428 L52 428 Q51 428 50.5 427.5 Q50 427 49 427 L48 427 Q43 427 41 428 Q38 428 37 431 L37 434 Q38 437 42 441 Q45 445 48 449 Q51 453 54 457 L55 459 L67 474 Q71 479 75.5 485.5 Q80 492 84 500 Q87 504 91 512 Q92 514 92 518 Q92 519 91 520 L89 520 Q87 520 79 516 Q75 514 71.5 511.5 Q68 509 64 505 Q56 499 48 487 Q43 480 39.5 474 Q36 468 34 463 Q30 455 30 447 L30 445 Q31 443 32 443 L33 443 L33 442 Q33 440 31 440 Q29 440 27 442 Q26 444 26 448 Q26 452 28 462 Q30 466 31.5 469.5 Q33 473 36 477 Q42 490 53 501 Q59 507 63 510 Q68 515 74 518 Q82 523 88 524 L93 524 Q95 523 96.5 522 Q98 521 97 516 Q97 514 96 511 Q95 508 94 506 Q88 494 82 485 Q76 475 63 459 Q61 456 58.5 453 Q56 450 53 447 Q52 445 51 443 Q50 441 48 439 Q45 436 44 434 Q43 433 43 432 L44 432 L50 432 L54 432 Q61 432 66 431.5 Q71 431 76 430 Q81 428 84.5 427 Q88 426 91 424 Q94 422 96.5 420 Q99 418 101 415 Q105 408 107 398 Z " />
<glyph glyph-name="four" unicode="4" horiz-adv-x="195" d="M139 509 Q139 507 138.5 506.5 Q138 506 138 505 Q134 500 131 492 L130 491 Q128 488 126.5 484.5 Q125 481 123 476 Q121 472 119 468 Q117 464 115 459 Q113 454 110 448 Q107 442 105 437 Q101 429 98 420 L96 416 Q94 411 92 407 Q90 403 88 399 Q87 392 83 385 Q79 377 78 373 Q74 365 70 355 Q68 350 65.5 344.5 Q63 339 61 333 Q58 325 55 317 Q52 309 48 301 Q46 295 44 289 Q42 283 40 277 Q40 276 39.5 275.5 Q39 275 39 274 L39 272 Q39 272 37 271 L36 271 Q34 271 33 272 Q33 273 32.5 273.5 Q32 274 32 275 Q32 277 32.5 278.5 Q33 280 33 282 L34 282 Q35 290 39 299 Q43 309 48 323 Q50 328 52.5 334 Q55 340 57 345 Q59 353 62 359.5 Q65 366 67 373 L69 378 Q72 385 75 392 Q78 399 81 406 L83 410 Q86 418 89.5 425.5 Q93 433 97 441 Q100 448 103 454 Q106 460 108 466 Q109 468 109.5 468.5 Q110 469 111 471 Q111 471 110 470 Q105 464 101 459.5 Q97 455 92 450 Q89 447 86 443.5 Q83 440 79 437 Q75 434 72 431 Q69 428 65 425 Q60 420 55.5 416.5 Q51 413 46 410 Q42 408 39 406.5 Q36 405 32 404 Q23 401 15 406 Q10 411 9 416 Q7 422 9 431 Q11 439 14 446.5 Q17 454 20 459 Q22 464 24.5 468.5 Q27 473 31 478 Q34 483 37.5 487.5 Q41 492 45 497 Q48 500 50.5 503 Q53 506 57 510 Q60 512 66 518 Q71 521 72 523 Q74 524 77 524 Q79 522 79 522 Q79 520 77 520 Q76 520 74 518 L73 518 Q65 511 55 498 Q47 490 40 478 Q32 468 27 457 Q22 449 20 441 Q18 436 16 428 Q16 419 17 416 Q18 411 23 409 Q25 408 29 408 Q32 409 40 413 Q52 420 61 428 Q66 431 70 435 Q74 439 79 444 Q87 450 92 457 Q102 465 110 477 Q114 482 117.5 486 Q121 490 124 495 Q126 498 128 502 Q130 506 130 506 Q131 506 131 507 Q132 508 132 509 Q133 511 136 511 L137 511 L138 511 Q138 511 139 510 L139 509 Z " />
<glyph glyph-name="five" unicode="5" horiz-adv-x="220" d="M154 519 L154 518 Q154 516 152 516 L149 516 Q141 518 134 518 L124 518 Q120 518 116 518 Q112 518 107 516 Q101 514 96 508 Q92 504 89 500 Q86 496 84 492 Q80 485 76 478.5 Q72 472 69 466 Q65 458 61 451.5 Q57 445 53 437 Q52 435 51.5 433.5 Q51 432 50 430 Q48 428 47 425 Q46 422 44 420 L44 419 L56 428 Q70 437 80 441 Q89 444 97 444 Q107 444 114 440 Q120 437 122 428 Q124 420 123 407 Q123 400 120 393 Q119 388 117.5 383.5 Q116 379 114 374 Q110 365 105.5 356.5 Q101 348 96 339 Q93 334 90 330 Q87 326 84 321 Q79 314 74 308 Q69 302 64 297 Q59 292 53 288 Q47 284 41 280 Q28 273 18 272 Q15 271 11 271 Q5 271 -1 274 Q-8 277 -10 287 Q-12 294 -7 302 Q-4 308 1 313 Q4 315 7 318 Q10 321 13 324 Q16 327 20 330 Q24 333 28 335 Q34 337 35 337 Q38 337 40 335 L40 333 L39 332 Q38 332 38 333 Q35 334 32 333 Q30 331 28 330 Q26 329 23 327 Q20 325 14 319 L13 318 Q8 315 4 309 Q-3 302 -4 295 Q-5 290 -4 285.5 Q-3 281 0 279 Q5 276 12 277 Q15 277 18.5 278 Q22 279 27 281 Q35 285 44 291 Q48 293 51 296 Q54 299 58 302 Q62 306 65.5 310.5 Q69 315 74 320 Q80 328 82 332 Q87 339 91 345.5 Q95 352 99 359 Q105 372 110 384 Q112 389 113 393 Q114 397 115 402 Q117 408 117 412.5 Q117 417 117 422 Q115 436 104 439 Q98 440 90 439 Q81 437 66 428 Q59 425 49 416 Q43 411 40 407 Q36 405 35 406 Q33 408 33 410 Q33 411 34 412 L34 413 Q36 417 40 427 L40 428 Q45 438 49.5 447 Q54 456 59 466 Q64 473 67.5 479.5 Q71 486 75 493 Q79 498 81.5 502 Q84 506 87 510 Q89 512 91.5 514.5 Q94 517 97 519 Q100 521 103 521.5 Q106 522 108 523 Q112 523 115 523.5 Q118 524 122 524 Q129 524 134 523 Q138 523 142 522.5 Q146 522 151 521 Q151 521 152 520 L153 520 L154 519 Z " />
<glyph glyph-name="six" unicode="6" horiz-adv-x="220" d="M147 525 Q147 525 148 523 Q148 520 146 522 Q143 522 141 521 Q131 518 124 513 Q114 508 100 497 Q95 493 90 489 Q85 485 80 480 Q77 477 73.5 474 Q70 471 67 467 Q62 462 58.5 458 Q55 454 51 449 Q46 443 42 437 Q38 431 33 424 Q28 416 24 409.5 Q20 403 16 396 Q13 390 10 384.5 Q7 379 5 373 Q3 369 2 366 Q1 363 0 360 L-3 354 Q1 357 4 360 Q7 363 10 365 Q14 368 18.5 371 Q23 374 28 378 Q33 381 36.5 383.5 Q40 386 44 388 Q48 390 48 390 Q50 391 51.5 392 Q53 393 55 394 Q59 397 67 400 Q72 402 82 404 Q93 407 103 404 Q106 404 108.5 403 Q111 402 113 401 Q115 399 117 397.5 Q119 396 121 394 Q125 388 126 382 Q126 379 126 375.5 Q126 372 124 367 Q123 356 115 344 Q113 339 109.5 334 Q106 329 102 324 Q93 314 82 304 Q72 294 63 289 Q60 287 52 283 Q41 277 31 274 Q26 273 22.5 272.5 Q19 272 16 272 L10 272 Q2 274 -1 276 Q-14 284 -17 299 Q-18 305 -18.5 310.5 Q-19 316 -17 324 Q-17 329 -16 334 Q-15 339 -13 344 L-13 346 Q-13 347 -11 351 L-7 364 L-7 365 Q-5 370 -3.5 373.5 Q-2 377 0 381 Q2 386 5 391.5 Q8 397 11 403 Q14 408 17 413 Q20 418 24 424 Q27 428 30 432 Q33 436 37 441 Q41 447 45.5 453 Q50 459 55 464 Q60 469 65.5 474.5 Q71 480 76 485 Q84 492 90.5 497.5 Q97 503 105 508 Q109 511 112.5 513.5 Q116 516 120 518 Q124 520 128.5 521.5 Q133 523 138 525 Q139 526 143 526 Q146 526 147 525 Z M-6 335 Q-6 333 -8 335 L-9 335 Q-10 327 -12 312 Q-12 302 -9 293 Q-6 284 3 280 Q7 278 16 278 Q22 279 28.5 280.5 Q35 282 43 286 Q53 290 57 293 Q61 295 64.5 297.5 Q68 300 71 303 Q76 306 79.5 309.5 Q83 313 87 317 Q99 329 106 340 Q110 345 113 351 Q116 357 118 362 L118 364 Q119 365 119 368 Q121 376 121 378 Q121 391 113 396 Q108 399 104 399 Q99 401 94 400.5 Q89 400 83 399 Q80 398 76 397 Q72 396 67 394 Q58 390 50 385 Q47 383 43.5 381.5 Q40 380 37 378 L37 377 Q30 373 23 368 Q18 365 14.5 362.5 Q11 360 8 357 Q1 353 -2 348 Q-5 345 -6 343 Q-8 340 -6 337 Q-6 335 -6 335 Z " />
<glyph glyph-name="seven" unicode="7" horiz-adv-x="215" d="M163 423 Q163 422 162 421 Q162 421 159 421 L159 422 Q157 424 155 424 L149 424 L129 424 Q123 423 118 422.5 Q113 422 108 422 Q105 422 102 421.5 Q99 421 96 421 Q93 420 88 420 L87 420 Q85 416 83 414 Q82 412 78 406 Q75 402 72 398 Q69 394 67 391 Q61 384 56 375 Q52 370 48.5 364.5 Q45 359 42 354 L41 353 Q37 347 33 340.5 Q29 334 25 328 Q20 320 16 313.5 Q12 307 7 299 Q4 294 1 289 Q-2 284 -5 279 Q-7 275 -7 275 L-7 274 L-7 273 Q-7 272 -9 272 Q-11 272 -12 273 Q-12 275 -12 275 Q-12 277 -10 281 Q-8 286 -5.5 290 Q-3 294 0 299 Q4 306 8 312 Q12 318 15 323 Q17 328 20 331.5 Q23 335 25 339 Q30 347 34 353.5 Q38 360 43 367 Q45 371 47.5 374 Q50 377 52 381 L55 386 Q64 400 75 415 Q75 416 75.5 416.5 Q76 417 76 418 Q77 418 77 419 Q75 419 73 418 L67 418 Q65 417 60 417 Q57 416 53 416 Q49 416 45 415 L37 415 Q35 417 35 417 Q34 418 35 419 L36 420 L38 420 Q39 420 40 419 L48 419 L50 420 L57 420 Q67 422 72 422 L76 422 Q77 423 80 423 L81 423 L81 424 Q83 426 84 428 Q85 430 87 432 L88 434 Q91 437 97 445 Q101 450 104.5 454.5 Q108 459 112 464 Q114 466 115.5 468.5 Q117 471 119 473 Q123 477 125 480 Q127 482 127 483 Q131 488 135 492.5 Q139 497 142 502 Q143 504 144 506 Q145 508 146 511 L146 514 Q146 516 141 518 Q138 519 135.5 519.5 Q133 520 130 520 L124 520 Q118 520 113.5 520 Q109 520 104 519 Q96 518 89 517.5 Q82 517 76 516 Q68 514 66 514 Q63 513 59.5 513 Q56 513 53 512 Q48 511 43.5 510.5 Q39 510 34 510 L33 510 L32 510 L30 510 Q29 511 29 512 Q29 513 31 513 L31 514 L32 514 Q38 514 44 514.5 Q50 515 55 516 Q58 517 61 517 Q64 517 67 518 L91 521 Q96 522 100.5 522.5 Q105 523 109 523 Q114 524 125 524 Q128 524 131.5 524 Q135 524 140 523 L149 520 Q153 517 153 511 Q152 507 150.5 503.5 Q149 500 147 497 Q142 491 138 485 Q134 479 129 474 Q128 472 127.5 471.5 Q127 471 126 469 L122 464 Q118 459 114 454 Q110 449 106 444 Q103 440 100 436 Q97 432 94 428 L91 424 Q95 424 98 425 Q105 425 109 426 Q112 426 115.5 426 Q119 426 122 427 L123 427 L137 427 L138 428 Q143 428 147 428 Q151 428 156 427 Q159 427 162 424 Q162 424 163 423 Z " />
<glyph glyph-name="eight" unicode="8" horiz-adv-x="197" d="M154 514 Q158 510 158 503 Q158 498 156.5 493.5 Q155 489 153 484 Q150 478 146.5 473 Q143 468 140 463 Q136 458 132.5 453 Q129 448 125 443 L110 422 Q107 417 103.5 413 Q100 409 97 404 L90 395 Q90 393 88 393 L88 392 L88 391 Q87 391 87 390.5 Q87 390 86 390 Q85 389 84 390 Q82 392 83 394 Q85 396 85 397 L86 398 Q88 402 91 405.5 Q94 409 97 413 Q99 417 101 418 Q104 423 107 427 Q110 431 114 436 L116 440 Q120 445 123 449.5 Q126 454 130 459 Q133 464 136 468 Q139 472 141 477 Q143 481 145 484.5 Q147 488 148 493 Q151 501 150 505 Q149 512 144 515 Q138 518 132 518 L128 518 L126 518 Q114 518 96 513 Q90 511 84.5 508 Q79 505 74 502 Q62 494 56 484 Q52 478 50 471 Q48 459 51 447 Q52 442 54 435 Q57 437 59.5 438 Q62 439 64 440 Q67 441 70 440 L72 440 L72 438 Q72 437 70 437 L68 437 Q64 437 61 434 Q60 434 58 432 Q57 432 56 431 L62 419 Q64 415 66 411.5 Q68 408 70 403 Q72 400 74 396 Q75 394 75.5 393.5 Q76 393 77 391 L78 390 Q79 388 80 386 Q81 384 82 382 Q84 380 84.5 377.5 Q85 375 87 373 Q89 368 91 362 Q92 358 92.5 355 Q93 352 93 349 Q93 341 92 337 Q91 332 87 322 Q84 317 80 311 Q76 305 71 300 Q68 297 60 291 Q48 280 31 275 Q23 272 15 272 L10 272 Q5 272 1.5 272.5 Q-2 273 -6 274 Q-16 279 -21 285 Q-29 296 -29 310 Q-29 313 -29 316.5 Q-29 320 -28 323 Q-26 328 -24.5 334 Q-23 340 -20 346 Q-14 361 -3 376 Q0 381 3.5 385.5 Q7 390 12 395 Q19 405 29 415 Q33 419 36 422 Q39 425 43 427 Q44 428 45 428.5 Q46 429 47 431 L49 432 Q44 445 44 453 Q43 463 44 470 Q47 485 59 497 Q70 506 81 511 Q94 519 114 522 Q119 523 122.5 523 Q126 523 129 523 Q134 523 144 521 Q150 518 154 514 Z M40 417 Q31 409 22 399 Q17 392 11.5 385 Q6 378 1 370 Q-9 354 -13 346 Q-21 329 -22 316 Q-22 306 -21 302 Q-20 291 -13 285 Q-9 281 -2 279 Q7 276 15 277 Q28 279 37 284 Q53 291 62 300 Q67 304 70 307.5 Q73 311 76 315 Q84 325 87 340 L87 345 Q87 355 85 360 Q84 365 82 369 Q80 373 78 378 Q76 382 73.5 385.5 Q71 389 69 394 Q67 396 67 398 Q62 404 59.5 409 Q57 414 54 419 Q52 425 51 427 Q51 427 50 426 Q49 426 48 425 Q46 423 44 421 Q42 419 40 417 Z " />
<glyph glyph-name="nine" unicode="9" horiz-adv-x="212" d="M147 470 Q150 470 150 466 Q150 464 149.5 462.5 Q149 461 149 459 L148 458 Q146 450 143.5 443.5 Q141 437 139 429 L138 426 Q136 420 134 415 Q132 410 130 405 Q128 399 125 393 Q122 387 119 380 Q117 375 114.5 370 Q112 365 110 360 Q108 357 106.5 354 Q105 351 103 348 Q101 344 99 340.5 Q97 337 95 334 Q92 329 89 325 Q86 321 83 317 L74 305 L68 299 Q65 297 62.5 294 Q60 291 57 289 Q53 286 49.5 283.5 Q46 281 42 279 Q35 275 28 273 Q24 272 18 272 Q12 272 9 274 Q3 275 0 283 L0 289 Q1 293 1.5 297 Q2 301 4 304 Q6 309 10 315 Q14 317 20 319 L22 319 L23 319 L23 318 Q23 317 22 317 Q22 316 21 316 L19 316 Q16 315 14 313 Q12 311 10 309 Q8 306 7.5 303 Q7 300 5 296 Q5 294 4.5 292.5 Q4 291 4 289 Q4 284 6 282 Q9 277 15 276 Q23 276 28 278 Q38 281 46 288 Q50 291 54 294 Q58 297 62 302 Q65 305 68 308 Q71 311 74 316 Q78 321 81.5 326 Q85 331 89 336 Q92 342 95.5 347.5 Q99 353 102 360 Q106 366 109 372.5 Q112 379 115 386 Q117 392 120 398 Q123 404 125 411 Q132 426 137 442 Q139 447 140 451.5 Q141 456 143 461 Q143 462 143.5 462.5 Q144 463 144 464 Q142 462 141 460.5 Q140 459 138 457 L137 457 Q135 454 131 450 Q129 446 123 440 Q119 435 116 431.5 Q113 428 110 424 Q105 419 101.5 415 Q98 411 94 406 Q90 402 85.5 397.5 Q81 393 76 388 Q71 383 67 380 Q63 377 58 374 Q50 369 44 369 Q34 368 27 375 Q22 380 20 393 Q18 399 20 407 Q20 421 26 436 Q28 443 30.5 449.5 Q33 456 37 462 Q41 469 44.5 475.5 Q48 482 53 487 Q60 496 64 499 Q77 512 89 518 Q101 523 107 523 Q120 523 126 518 Q130 516 134 509 Q136 503 138 492 L138 484 Q137 482 137 480 Q137 478 135 478 Q133 478 133 479 L133 481 L133 490 Q133 494 131 504 Q126 518 114 519 Q111 520 103 518 Q94 517 81 507 Q78 505 74.5 502 Q71 499 68 495 Q64 492 61 488.5 Q58 485 54 480 Q51 475 48.5 471 Q46 467 44 462 Q39 453 34 440 Q29 431 28 422 Q27 419 27 416 Q27 413 26 411 Q24 402 26 394 Q26 389 27 386 Q28 383 30 380 Q33 373 40 373 Q45 373 48 374 Q55 377 63 383 Q70 387 78 395 Q82 399 85 402 Q88 405 92 410 Q97 415 101 419.5 Q105 424 109 428 Q112 432 115 436 Q118 440 122 445 Q124 447 128 453 Q130 455 132 457.5 Q134 460 136 463 Q138 465 138.5 466 Q139 467 141 468 Q143 470 147 470 Z " />
<glyph glyph-name="numbersign" unicode="&#x23;" horiz-adv-x="262" d="M93 278 Q94 281 95 284 Q96 287 97 290 Q101 301 105.5 312.5 Q110 324 115 335 L121 350 Q121 351 120 351 Q113 349 106.5 348 Q100 347 93 346 Q91 346 91 344 Q89 337 86 331 Q83 325 81 318 Q78 310 75 303 Q72 296 70 288 Q68 284 68 281 Q67 279 67 279 Q65 279 65 280 Q62 285 63 289 L72 316 Q77 328 82 342 Q83 342 83 343 Q83 344 82 344 Q76 342 72 342 Q67 340 61 339.5 Q55 339 50 337 Q46 337 45 339 Q45 340 46 340 Q48 341 49.5 341.5 Q51 342 53 343 Q61 345 68.5 346 Q76 347 84 349 Q85 349 86 350 Q89 358 92 365.5 Q95 373 98 381 Q99 383 97 383 Q92 382 86 381.5 Q80 381 74 380 Q70 379 66.5 378.5 Q63 378 58 378 Q56 376 56 378 L54 378 Q54 380 54 380 L55 380 Q63 382 70 382.5 Q77 383 85 385 Q89 385 92 385.5 Q95 386 99 386 Q101 388 101 388 Q103 395 106 401 Q109 407 111 413 Q113 419 116 425 Q119 431 122 437 Q124 442 126 446 Q128 450 130 455 Q131 456 131 456.5 Q131 457 132 458 Q134 461 136 460 L138 460 Q139 460 139 458 Q138 456 137 453 Q136 450 135 448 L114 400 Q113 397 112 394.5 Q111 392 110 389 Q109 388 111 388 Q117 389 123.5 389.5 Q130 390 137 391 Q137 391 139 393 Q144 404 148 414 Q152 424 157 435 Q159 440 161.5 444.5 Q164 449 166 454 L168 456 Q170 458 173 458 Q175 458 173 456 L170 450 Q167 444 164.5 438 Q162 432 159 425 Q156 417 152.5 410.5 Q149 404 146 396 Q146 394 145 393 Q145 392 146 392 Q149 393 152 393 Q155 393 158 394 Q167 395 175.5 395.5 Q184 396 192 397 Q200 397 204 396 Q205 396 207 394 Q208 394 208 393 L207 393 Q206 393 205.5 393.5 Q205 394 204 394 Q201 395 198.5 394.5 Q196 394 193 394 Q185 393 177 392.5 Q169 392 161 391 Q156 390 152.5 390 Q149 390 145 389 Q143 388 143 388 Q140 380 136.5 373 Q133 366 130 358 Q130 357 131 357 Q141 359 151 360 Q161 361 171 363 Q175 364 182 364 L183 364 Q184 363 184 363 Q183 362 183 362 Q181 361 179 361 Q172 360 166 359 Q160 358 154 357 Q148 355 141.5 354.5 Q135 354 129 353 Q127 351 127 351 Q124 344 121.5 338 Q119 332 116 326 Q109 306 99 283 Q98 281 97.5 279.5 Q97 278 96 276 Q94 274 94 275 Q93 275 93 277 L93 278 Z M94 351 Q95 351 95 351 Q102 352 108.5 353 Q115 354 122 355 L124 357 L136 387 Q137 388 135 388 Q129 387 122.5 386.5 Q116 386 110 385 Q108 384 107 383 Q105 377 102 371 Q99 365 97 359 Q96 357 95.5 355 Q95 353 94 351 Z " />
<glyph glyph-name="dollar" unicode="&#x24;" horiz-adv-x="192" d="M110 523 Q112 524 115 523.5 Q118 523 120 523 Q121 523 121 524 Q124 530 127 536 Q130 542 133 547 Q135 553 138 558.5 Q141 564 144 569 Q144 571 146 571 Q147 573 149 573 Q150 572 150 572 Q150 571 149 571 Q148 570 148 569 Q142 558 137 547.5 Q132 537 127 526 Q127 525 126.5 524.5 Q126 524 126 523 Q124 521 126 521 Q130 520 136 516 Q146 508 146 496 Q146 487 141 475 Q137 467 134 463 Q133 463 133 462 Q131 460 130 461 Q128 462 130 464 Q131 466 132 468 Q133 470 135 472 Q140 484 140 494 Q142 503 136 510 Q133 514 125 518 Q123 518 123 517 Q121 513 119.5 509.5 Q118 506 116 501 Q112 491 108 481.5 Q104 472 99 462 Q97 456 94.5 450 Q92 444 89 438 Q89 437 90 436 Q96 431 102 427.5 Q108 424 113 419 Q121 413 124 409 Q129 404 132 398 Q135 388 134 378 Q129 361 119 348 Q114 340 107.5 333 Q101 326 94 319 Q89 314 83 308.5 Q77 303 71 298 Q64 293 57 289 Q50 285 43 280 Q38 278 32.5 276 Q27 274 22 272 Q21 272 20 271 Q17 262 13.5 253 Q10 244 6 235 Q2 225 -1.5 215 Q-5 205 -9 194 Q-15 182 -18 168 L-18 166 Q-19 165 -19 165 Q-21 166 -21 166 Q-21 168 -20 169 Q-19 175 -17.5 181 Q-16 187 -14 194 Q-11 202 -8 209.5 Q-5 217 -2 225 Q1 233 4 240.5 Q7 248 10 256 Q12 260 13 263 Q14 266 15 270 Q16 271 14 271 Q10 272 6.5 272.5 Q3 273 0 275 Q-6 281 -6 290 Q-6 299 -4 304 Q-2 311 0 318 Q2 325 4 333 Q8 344 12.5 354.5 Q17 365 23 375 Q27 382 32 387 Q38 393 44 392 Q48 391 48 387 Q48 385 46 385 Q45 385 45 386 L45 388 Q44 390 41 389 Q39 388 35 384 Q30 379 26.5 372.5 Q23 366 20 360 Q15 349 11 337 Q7 325 4 313 Q3 308 2 304.5 Q1 301 1 296 Q-1 290 3 283 Q4 279 11 277 Q13 276 14.5 276.5 Q16 277 18 277 Q19 278 19 279 L31 309 Q36 320 40 331 Q44 342 49 353 Q54 365 58.5 376.5 Q63 388 68 400 Q72 408 75 416.5 Q78 425 82 433 Q82 434 81 435 Q76 439 70 442.5 Q64 446 59 451 Q54 455 50.5 458 Q47 461 45 466 Q40 472 42 480 Q44 489 47 493 Q52 500 62 507 Q81 520 103 523 Q105 523 106.5 523.5 Q108 524 110 523 Z M125 383 Q126 390 123 398 Q118 407 111 413 Q106 418 100 422 Q94 426 88 431 Q87 431 86 430 Q81 420 77.5 410.5 Q74 401 69 391 Q64 377 58 362.5 Q52 348 46 334 Q35 306 24 281 L24 280 L26 280 Q35 284 42 289 Q47 292 52 295 Q57 298 62 302 Q66 305 69.5 308 Q73 311 77 315 Q89 325 101 339 Q106 345 110.5 351 Q115 357 119 365 Q121 369 123 373.5 Q125 378 125 383 Z M50 480 Q49 476 51 470 Q54 464 60 458 L72 449 Q80 443 83 441 Q85 439 85 441 Q87 446 91 454 Q98 470 104.5 486 Q111 502 119 518 Q119 520 118 520 L105 520 Q90 517 78 510 Q65 504 57 494 Q50 487 50 480 Z " />
<glyph glyph-name="at" unicode="&#x40;" horiz-adv-x="278" d="M137 421 Q135 419 133.5 417.5 Q132 416 130 414 L109 396 Q104 393 100.5 390 Q97 387 92 385 Q86 382 82 382 Q73 381 70 387 Q67 392 68 398 Q70 406 74 413.5 Q78 421 83 429 Q91 441 101 449 Q105 452 109 455 Q113 458 118 460 Q125 463 135 463 Q143 461 145 458 Q147 456 147 453.5 Q147 451 148 449 Q148 443 145 436 Q145 436 143 434 Q143 433 141 433 Q138 433 140 435 L140 438 Q142 446 142 450 Q142 455 139 458 Q134 462 127 459 Q122 458 118 455.5 Q114 453 110 450 Q93 436 82 415 Q78 407 77 402 Q75 396 75 392 Q77 387 79 386 Q80 385 83 386 Q90 388 96 392 Q104 397 110 402 Q116 407 122 412 Q126 416 129 419 Q132 422 136 425 Q140 428 145 428 Q148 427 147 424 Q145 421 143.5 417.5 Q142 414 140 410 Q138 405 136 401.5 Q134 398 132 393 Q129 385 129 380 Q129 375 130 374 Q132 372 134 373 Q138 375 141.5 376.5 Q145 378 149 380 Q156 385 161.5 390 Q167 395 172 401 Q186 418 195 436 Q197 442 199.5 448 Q202 454 204 460 Q207 473 204 484 Q201 498 193 507 Q186 515 172 520 Q162 522 157 522 Q147 522 137 519 Q115 515 92 500 Q75 489 59 471 Q54 466 50 460.5 Q46 455 42 449 Q33 435 23 418 Q18 408 13 393 Q11 387 9.5 380.5 Q8 374 6 368 Q4 361 3 355 Q2 349 2 342 Q1 335 1.5 329 Q2 323 3 317 Q5 311 6.5 305.5 Q8 300 12 295 Q17 286 31 279 Q40 274 50 275 Q61 275 74 280 Q88 285 102 295 Q107 298 111.5 301.5 Q116 305 121 309 Q133 319 143 331 L155 343 Q157 347 159 348 Q159 349 161 349 Q162 349 162 348 L159 342 Q155 337 151 333 Q147 329 143 324 Q138 319 134 315 Q130 311 125 307 Q110 294 96 286 Q90 282 84 279.5 Q78 277 72 275 Q63 271 53 271 Q48 271 44 271 Q40 271 36 272 Q31 273 26.5 275 Q22 277 18 279 Q14 282 11 285 Q8 288 5 291 Q-1 300 -4 312 Q-9 329 -7 347 Q-6 351 -5.5 355 Q-5 359 -4 363 Q-3 368 -2.5 372.5 Q-2 377 0 382 Q2 387 3.5 391.5 Q5 396 7 401 Q12 415 21 430 Q33 450 45 465 Q51 472 57 478.5 Q63 485 71 491 Q80 499 89 504 Q98 509 108 514 Q125 522 145 524 Q149 525 156 525 Q173 525 185 519 Q194 514 202 504 Q208 494 211 484 Q213 474 211 463 Q209 456 206.5 449.5 Q204 443 201 436 Q197 428 192.5 420.5 Q188 413 182 405 Q177 400 171.5 394 Q166 388 160 383 Q153 376 141 371 Q134 367 128 369 Q123 371 122 373 Q119 378 121 384 Q122 389 124.5 394.5 Q127 400 129 405 Q131 409 133 412.5 Q135 416 137 419 L137 421 Z " />
<glyph glyph-name="percent" unicode="&#x25;" horiz-adv-x="264" d="M-12 211 Q-10 214 -8.5 217.5 Q-7 221 -5 224 Q0 231 4.5 237.5 Q9 244 14 251 Q19 259 25 267.5 Q31 276 37 284 L61 317 Q65 322 69 328 Q73 334 77 339 Q82 345 86.5 351 Q91 357 96 364 Q100 369 104 375 Q108 381 113 386 Q117 391 120.5 396.5 Q124 402 129 407 L147 431 L156 443 Q160 447 163 451 Q166 455 169 459 Q176 467 182 474.5 Q188 482 195 490 Q200 495 204.5 500.5 Q209 506 214 511 Q219 516 224.5 522 Q230 528 235 533 Q240 538 245 543 Q250 548 255 553 Q257 555 261 555 L262 555 Q264 555 263 553 Q263 551 261 551 Q256 546 252 541 Q248 536 243 531 Q235 521 227 512.5 Q219 504 211 495 Q206 488 200 482 Q194 476 189 470 Q184 464 179.5 458 Q175 452 170 446 Q164 439 158 432.5 Q152 426 147 418 L126 391 Q120 384 114.5 377 Q109 370 104 362 Q99 356 94 349.5 Q89 343 84 336 Q79 329 74.5 323 Q70 317 65 310 Q58 301 51 292 Q44 283 37 273 Q31 265 25 256.5 Q19 248 14 240 Q9 233 5 227 Q1 221 -3 214 Q-6 209 -6 205 Q-5 204 -6 203 Q-8 203 -9 204 Q-12 205 -12 208 L-12 209 L-12 211 Z M192 515 Q190 506 185 501 L176 495 Q168 489 161 488 Q153 485 146 488 Q140 490 138 495 Q138 498 140 504 Q145 513 154 518 Q155 519 156 519.5 Q157 520 158 521 Q164 523 167 523 Q169 523 169 523 Q172 525 180 525 Q184 525 188 523 Q191 521 191 517 Q192 515 192 515 Z M147 496 Q146 495 148 492 Q150 488 156 490 Q157 490 157.5 490.5 Q158 491 160 491 Q168 495 172 498 Q178 503 183 509 Q186 515 183 521 Q180 524 174 523 L173 522 Q170 521 171 520 Q171 519 171 519 Q170 518 169 519 L168 520 Q166 521 165 520 Q164 520 163.5 519.5 Q163 519 162 519 Q155 514 150 506 Q146 500 147 496 Z M70 280 Q70 283 74 289 Q78 296 84 300 Q86 302 92 302 L93 302 Q94 304 97 304 Q104 305 106 302 Q106 301 106.5 300.5 Q107 300 107 299 Q109 293 109 291 Q109 283 101 277 Q95 273 91 272 Q86 269 79 271 Q76 272 73 274.5 Q70 277 70 280 Z M93 301 Q93 299 92 300 Q90 299 90 299 Q88 297 87 295.5 Q86 294 84 292 Q80 287 79 281 Q77 277 80 276 Q83 273 86 274 Q87 275 89 275 Q96 279 99 285 Q102 291 101 297 Q101 299 99 301 Q99 302 98 301 L97 300 Q95 298 94 300 Q93 300 93 301 Z " />
<glyph glyph-name="asciitilde" unicode="&#x7e;" horiz-adv-x="385" d="M182 357 Q173 357 171 359 Q166 363 165 368 L165 380 L165 386 Q165 389 161 388 Q153 386 149 384 Q144 381 139 378 Q134 375 130 371 Q126 367 125 365 Q125 364 122 364 Q119 366 121 368 Q122 371 126 375 Q131 380 137 383 Q143 386 150 389 Q156 392 164 392 L170 392 Q175 391 177 387 Q178 383 178 375 Q178 372 178 369 Q178 366 180 364 L180 363 Q181 362 183 363 Q187 365 190.5 367 Q194 369 198 371 Q206 375 213 378.5 Q220 382 228 387 Q233 389 236.5 391 Q240 393 244 395 Q246 396 250 396 L251 396 L252 396 L253 396 Q253 394 251 394 Q249 392 247.5 391.5 Q246 391 244 389 Q239 387 235 384.5 Q231 382 226 379 Q219 375 212.5 371 Q206 367 198 363 Q195 361 187 357 L182 357 Z " />
<glyph glyph-name="ampersand" unicode="&#x26;" horiz-adv-x="294" d="M273 611 Q274 611 274 609 Q274 605 273 603 Q270 594 265 583 Q263 577 260 571.5 Q257 566 255 560 Q252 553 249 546 Q246 539 243 531 Q240 524 237 517 Q234 510 231 502 Q226 490 220.5 478 Q215 466 209 454 Q208 450 204 444 Q202 442 201 442 L200 442 L197 445 Q195 447 194.5 449 Q194 451 193 453 Q190 458 186.5 461.5 Q183 465 178 467 Q175 469 171.5 468.5 Q168 468 165 468 Q157 466 150 463 Q143 460 136 456 Q128 451 120.5 444.5 Q113 438 106 431 Q101 426 97.5 421 Q94 416 91 410 Q91 408 90.5 407.5 Q90 407 90 405 Q90 399 95 401 Q105 403 109 404 Q117 406 123.5 407.5 Q130 409 138 411 Q143 413 146.5 414 Q150 415 155 417 Q157 418 159.5 418 Q162 418 164 419 Q166 419 166.5 418.5 Q167 418 169 418 Q170 418 170 417 Q170 413 167 412 Q164 408 156 402 Q148 396 141 390 Q134 384 128 376 Q121 369 115.5 362.5 Q110 356 105 348 Q101 341 100 335 Q98 330 100 326 Q104 322 108 323 Q113 324 117 326 Q121 328 125 330 Q135 335 144 341.5 Q153 348 162 355 Q167 358 171.5 361.5 Q176 365 181 369 Q184 371 190 371 L192 371 Q195 371 195 368 L192 359 L180 329 Q178 324 175.5 319 Q173 314 171 309 Q168 301 164.5 293.5 Q161 286 158 278 Q151 264 145 249 Q141 239 137.5 230 Q134 221 130 211 Q125 197 119.5 184.5 Q114 172 109 158 Q107 153 105.5 147 Q104 141 102 135 Q102 133 101.5 132 Q101 131 102 129 Q104 127 101 127 Q92 127 94 135 Q96 145 98 151 Q102 164 106.5 176.5 Q111 189 116 202 Q119 210 122 217.5 Q125 225 128 233 Q131 242 134.5 250.5 Q138 259 142 268 L154 298 Q156 304 159 309.5 Q162 315 164 321 L182 360 L183 361 Q177 357 172 353.5 Q167 350 162 346 Q154 341 147 336 Q140 331 132 326 Q123 321 114 318 Q107 315 98 318 Q95 320 92 324 Q89 328 90 333 Q90 339 92.5 344 Q95 349 98 354 Q101 360 105 365 Q109 370 113 375 Q124 387 139 399 Q143 402 146 404.5 Q149 407 152 409 Q152 409 153 410 Q151 410 150 409.5 Q149 409 147 409 Q139 407 130.5 404.5 Q122 402 113 400 Q107 398 99 396 Q93 395 89 396 Q78 398 80 409 Q83 417 88 424 Q91 429 95 433.5 Q99 438 103 442 Q123 460 146 469 Q152 471 158.5 472 Q165 473 171 473 Q176 472 180.5 471 Q185 470 190 466 Q195 461 198 454 Q200 452 200 450 Q207 463 212 479 Q218 495 224 510.5 Q230 526 237 541 Q243 554 248.5 566.5 Q254 579 260 592 Q262 595 262.5 598 Q263 601 265 604 Q266 605 266 608 Q267 611 270 611 L273 611 L273 611 Z " />
<glyph glyph-name="quotedbl" unicode="&#x22;" horiz-adv-x="146" d="M117 746 Q121 746 120 742 Q112 727 108 712 Q106 707 103 702 Q101 700 101 700 Q99 698 98 700 Q95 700 97 702 Q98 706 100 712 Q102 720 105 727 Q108 734 111 742 Q114 746 117 746 Z M114 693 Q115 695 115.5 697 Q116 699 117 701 Q120 711 123.5 720.5 Q127 730 131 740 L131 741 Q133 745 138 745 Q139 744 139 742 Q138 740 137.5 738.5 Q137 737 136 735 Q132 725 128.5 716 Q125 707 121 698 L118 692 Q117 691 116 691 Q114 691 114 693 Z " />
<glyph glyph-name="quotesingle" unicode="&#x27;" horiz-adv-x="146" d="M113 693 Q114 695 114 697 Q114 699 115 701 Q119 711 122 720.5 Q125 730 130 740 L130 741 Q132 745 137 745 Q138 744 138 742 Q137 740 136.5 738.5 Q136 737 135 735 Q131 725 127.5 716 Q124 707 120 698 L117 692 Q116 691 114 691 Q113 691 113 693 Z " />
<glyph glyph-name="asciicircum" unicode="&#x5e;" horiz-adv-x="172" d="M134 696 Q133 691 132 686.5 Q131 682 131 677 L131 673 Q132 671 131 670 L129 670 Q123 670 123 676 Q122 679 122.5 682.5 Q123 686 124 689 Q125 693 127 699 Q128 705 129 710.5 Q130 716 132 721 Q133 725 134 728.5 Q135 732 136 737 Q130 733 126 727 Q118 719 111.5 711 Q105 703 98 695 Q95 692 92.5 688.5 Q90 685 87 681 L84 678 Q81 675 78 678 Q77 680 80 682 Q81 682 82 683 L103 707 Q109 714 114.5 720.5 Q120 727 126 733 Q131 738 133 741 Q137 745 142 745 Q143 745 145.5 743 Q148 741 145 732 Q142 723 139.5 714 Q137 705 134 696 Z " />
<glyph glyph-name="asterisk" unicode="&#x2a;" horiz-adv-x="224" d="M125 398 L136 398 Q141 399 147 399.5 Q153 400 159 399 Q163 397 163 397 Q163 396 163.5 395.5 Q164 395 164 394 Q162 392 161 393 Q158 396 154.5 396 Q151 396 147 396 Q142 396 138.5 395.5 Q135 395 130 394 Q123 394 119 393 L118 393 Q113 392 115 388 L130 367 Q131 365 132 362.5 Q133 360 134 358 Q136 354 135 352 Q135 350 134 350 Q132 348 132 351 Q131 352 131 352.5 Q131 353 130 354 Q128 359 125.5 362.5 Q123 366 120 370 Q118 373 115.5 376.5 Q113 380 111 383 Q110 384 109 382 Q106 375 103 368.5 Q100 362 97 354 Q96 351 94 347 Q92 345 91 345 Q90 345 90 348 Q91 353 92 356.5 Q93 360 95 364 Q97 369 98.5 373 Q100 377 102 382 Q102 384 102 384 Q101 384 101 383 Q93 379 86 375 Q79 371 72 367 L66 364 Q65 363 63 363 Q60 366 63 367 Q66 370 68 371 Q76 376 85 380.5 Q94 385 102 390 L104 392 Q101 391 96 391 Q89 390 83 389.5 Q77 389 70 388 L64 388 Q63 388 63 389 Q61 389 61 391 L62 391 L63 391 L87 394 Q91 395 99 395 Q101 395 101 396 Q101 397 100 397 Q98 401 95.5 404 Q93 407 91 410 Q90 412 89 413 Q88 414 88 416 Q86 418 89 418 Q94 420 97 415 Q99 411 102 407.5 Q105 404 107 400 L108 399 Q109 399 109 399.5 Q109 400 110 400 Q112 407 115 413 Q118 419 120 425 Q123 430 128 428 Q130 428 128 426 Q128 424 127.5 423.5 Q127 423 127 421 Q125 416 122.5 411.5 Q120 407 118 402 Q117 400 117 400 Q117 400 119 400 Q128 405 136.5 411 Q145 417 153 423 Q155 425 157 425 Q158 426 158 426 L161 426 Q161 425 160.5 424.5 Q160 424 160 423 Q155 418 149.5 414.5 Q144 411 139 407 Q135 405 132 402.5 Q129 400 125 398 Z " />
<glyph glyph-name="parenleft" unicode="&#x28;" horiz-adv-x="196" d="M181 520 Q180 519 179 519 Q174 516 170.5 512 Q167 508 163 504 Q152 491 141 475 Q133 465 126 453 Q118 441 110 425 Q104 415 99.5 405.5 Q95 396 90 385 Q85 376 81.5 367.5 Q78 359 75 350 Q73 345 71 339 Q69 333 67 328 Q65 323 64 319 Q63 315 62 310 Q60 303 58 293 Q56 288 55.5 282.5 Q55 277 54 272 Q52 264 51.5 256.5 Q51 249 50 241 Q49 234 48.5 227 Q48 220 48 213 L48 202 Q48 201 49 201 Q49 201 50 200 L50 199 L48 197 L47 197 Q45 197 43 199 Q41 203 41 207 Q41 213 41 218.5 Q41 224 42 229 Q43 237 43.5 246 Q44 255 46 266 L46 268 Q47 273 47 277 Q47 281 48 286 Q49 289 49.5 291.5 Q50 294 50 297 Q52 303 52 307 L53 307 Q53 310 54 313.5 Q55 317 56 321 Q58 326 60 332 Q62 338 64 344 Q74 370 85 394 L100 424 Q104 430 107 436 Q110 442 114 447 Q126 466 138 483 Q143 490 148 496 Q153 502 158 507 Q161 510 163.5 513 Q166 516 170 518 Q174 522 177 522 Q178 523 180 522 Q181 522 181 521 L181 520 Z " />
<glyph glyph-name="parenright" unicode="&#x29;" horiz-adv-x="154" d="M104 513 Q106 504 104 493 Q104 488 103.5 482.5 Q103 477 102 471 Q101 466 100 461.5 Q99 457 98 452 Q97 443 93 432 Q91 424 90 420 Q88 412 86 405.5 Q84 399 82 394 Q79 386 76 377.5 Q73 369 69 360 Q65 350 63 346 Q61 342 59 338 Q57 334 55 329 Q53 324 50 318.5 Q47 313 43 306 Q41 301 38 296.5 Q35 292 33 287 Q29 281 26 276 Q23 271 20 266 L5 242 L4 240 Q0 235 -3 231 Q-6 227 -10 222 Q-13 218 -16 214 Q-19 210 -23 205 Q-25 203 -25.5 202 Q-26 201 -28 199 Q-30 197 -32 197 L-33 197 L-34 198 L-34 201 Q-32 201 -32 203 Q-32 203 -31 204 Q-27 209 -23 214.5 Q-19 220 -15 225 Q-12 230 -9 233.5 Q-6 237 -3 242 L-2 245 Q3 251 7 258 Q11 265 16 274 Q20 281 23.5 287.5 Q27 294 32 302 Q39 316 44.5 327 Q50 338 55 348 Q58 356 61.5 364 Q65 372 68 380 Q70 386 72 391 Q74 396 76 401 Q78 406 78.5 409.5 Q79 413 81 417 Q83 422 84 426.5 Q85 431 86 436 Q88 440 88.5 443.5 Q89 447 90 450 Q92 455 92.5 459 Q93 463 94 468 Q96 476 96.5 483 Q97 490 98 497 L98 515 Q98 517 97.5 517.5 Q97 518 97 519 L97 520 L97 522 L99 522 Q100 523 103 520 Q104 518 104 513 Z " />
<glyph glyph-name="underscore" unicode="&#x5f;" horiz-adv-x="270" d="M185 278 Q187 278 186 277 Q184 276 180 276 L151 276 L121 276 L92 276 Q83 276 74 276.5 Q65 277 56 277 Q51 277 46 277 Q41 277 36 278 L31 278 Q30 279 31 279 L32 279 Q35 280 41 280 Q48 281 54.5 281 Q61 281 68 281 Q73 281 77 281.5 Q81 282 86 282 Q97 282 106.5 282 Q116 282 127 283 Q136 283 144.5 283 Q153 283 162 284 Q167 284 170.5 284 Q174 284 179 283 L185 283 Q189 283 188 281 Q187 281 187 279 Q186 278 185 278 Z " />
<glyph glyph-name="hyphen" unicode="&#x2d;" horiz-adv-x="232" d="M149 347 L150 347 Q148 345 146 345 L128 345 L109 345 L92 345 Q86 346 80.5 346 Q75 346 69 346 Q66 346 63 346.5 Q60 347 57 347 Q55 347 54 348 L54 349 L60 349 Q65 350 68.5 350 Q72 350 77 350 Q80 351 88 351 Q94 351 100.5 351.5 Q107 352 113 352 Q118 352 123.5 352.5 Q129 353 135 353 Q142 353 145 352 L149 352 Q151 352 151 351 Q150 350 150 348 L149 347 Z " />
<glyph glyph-name="grave" unicode="&#x60;" horiz-adv-x="212" d="M105 739 Q105 743 109 743 Q112 743 113 739 Q115 732 116.5 726 Q118 720 120 713 Q124 696 132 680 L132 675 Q133 674 132 673 Q130 673 129 674 L126 680 Q122 686 119.5 692.5 Q117 699 115 706 Q113 714 110 721 Q107 728 105 736 L105 739 Z " />
<glyph glyph-name="bar" unicode="&#x7c;" horiz-adv-x="194" d="M-1 141 Q0 145 1 148.5 Q2 152 4 157 Q13 185 25 214 Q30 227 34.5 239.5 Q39 252 44 265 Q49 279 54.5 292.5 Q60 306 66 320 Q72 336 78 351 Q84 366 90 382 Q93 390 96 397 Q99 404 102 411 Q106 419 109 427 Q112 435 116 443 L137 491 Q145 509 151 525 Q155 533 158 540 Q161 547 164 555 Q166 559 168 557 L168 555 Q167 552 166 549 Q165 546 164 543 Q155 518 145 496 Q142 489 139 482 Q136 475 133 468 Q130 460 127 453 Q124 446 120 438 Q118 432 115.5 425.5 Q113 419 110 413 Q106 405 103 396.5 Q100 388 96 379 Q92 369 88 360 Q84 351 80 341 Q74 325 67.5 310 Q61 295 55 279 Q48 262 41.5 245 Q35 228 28 211 Q23 198 19 185.5 Q15 173 10 161 Q8 156 6.5 151.5 Q5 147 3 142 Q3 139 1 135 Q1 133 0 133 Q-1 133 -1 134 Q-2 136 -1.5 137.5 Q-1 139 -1 141 Z " />
<glyph glyph-name="slash" unicode="&#x2f;" horiz-adv-x="256" d="M-23 141 Q-21 145 -19 148.5 Q-17 152 -15 157 L18 214 L48 265 Q56 279 64.5 292.5 Q73 306 81 320 Q91 336 100 351 Q109 366 119 382 Q124 390 128 397 Q132 404 137 411 Q142 419 147 427 Q152 435 157 443 Q165 455 172.5 467 Q180 479 188 491 Q193 499 198.5 508 Q204 517 210 525 L228 555 Q229 557 230.5 557.5 Q232 558 232 557 Q232 557 232 555 Q228 547 225 543 Q213 521 197 496 Q192 489 188 482 Q184 475 179 468 Q174 460 169.5 453 Q165 446 160 438 Q156 432 152.5 425.5 Q149 419 145 413 Q140 405 134.5 396.5 Q129 388 124 379 Q118 369 112 360 Q106 351 100 341 Q90 325 81 310 Q72 295 62 279 Q51 262 41.5 245 Q32 228 21 211 Q13 198 6.5 185.5 Q0 173 -8 161 Q-11 156 -13.5 151.5 Q-16 147 -18 142 Q-20 139 -22 135 Q-23 133 -23 133 Q-24 133 -24 134 Q-24 138 -23 141 Z " />
<glyph glyph-name="backslash" unicode="&#x5c;" horiz-adv-x="172" d="M63 141 Q62 146 62 157 Q62 171 62.5 185.5 Q63 200 64 214 L67 265 Q68 279 68.5 292.5 Q69 306 70 320 Q72 336 72.5 351 Q73 366 74 382 Q75 390 75.5 397 Q76 404 77 411 Q78 419 78.5 427 Q79 435 80 443 Q81 455 82 467 Q83 479 85 491 Q86 499 86.5 508 Q87 517 88 525 L91 555 Q91 560 94 557 Q95 557 95 555 L95 543 Q94 531 93.5 519.5 Q93 508 92 496 Q91 489 90.5 482 Q90 475 89 468 L86 438 Q85 432 85 425.5 Q85 419 84 413 Q83 405 82.5 396.5 Q82 388 81 379 Q80 369 79.5 360 Q79 351 78 341 Q76 325 75.5 310 Q75 295 73 279 Q72 262 71 245 Q70 228 69 211 Q68 198 67.5 185.5 Q67 173 67 161 L67 142 L67 135 L67 133 Q65 133 65 134 Q63 138 63 141 Z " />
<glyph glyph-name="exclam" unicode="&#x21;" horiz-adv-x="217" d="M203 680 Q204 679 204 677 L203 677 Q201 668 199 665 Q194 653 190 641.5 Q186 630 181 619 Q179 614 177 609.5 Q175 605 173 600 Q171 596 169 590 Q167 586 166 583 Q165 580 163 576 Q161 572 159.5 568 Q158 564 156 560 Q155 558 154 555 Q153 552 152 550 Q150 546 149 543 Q148 540 146 536 Q144 532 142.5 528.5 Q141 525 139 521 Q136 512 131 502 Q127 492 123.5 483 Q120 474 116 464 Q109 449 103 433.5 Q97 418 91 403 Q83 383 76 366.5 Q69 350 64 335 Q59 323 54.5 310.5 Q50 298 45 286 L44 284 Q42 279 41 275 Q40 271 38 267 Q38 264 37 263 Q37 261 36 260 L36 259 L36 258 Q36 257 34 257 Q31 257 31 259 L31 266 Q33 271 33.5 274.5 Q34 278 36 283 Q41 297 46.5 311 Q52 325 57 339 Q62 351 67 363.5 Q72 376 77 390 Q82 403 87.5 416.5 Q93 430 98 444 L110 474 Q114 482 117 490 Q120 498 123 506 Q126 513 129 520 Q132 527 135 534 L135 535 Q139 543 142 550.5 Q145 558 149 566 Q154 577 158.5 588.5 Q163 600 168 611 L170 615 Q172 620 174.5 624.5 Q177 629 179 634 Q181 638 182 641 Q183 644 185 648 Q188 656 191.5 663 Q195 670 197 678 Q200 681 200 681 Q202 681 203 680 Z M16 227 Q17 227 17 226 Q17 224 16 224 Q16 223 15.5 222.5 Q15 222 15 221 Q14 221 14 220.5 Q14 220 13 220 Q8 220 11 223 Q11 224 11.5 224 Q12 224 12 225 Q14 227 16 227 Z " />
<glyph glyph-name="question" unicode="&#x3f;" horiz-adv-x="232" d="M227 613 Q231 606 230 594 Q229 589 228 585 Q227 581 225 576 Q221 565 216.5 556 Q212 547 207 539 Q199 525 190 511 Q181 497 172 483 Q166 473 159.5 463.5 Q153 454 147 444 Q140 433 133.5 423.5 Q127 414 120 403 Q116 396 112.5 390 Q109 384 105 378 Q98 366 91.5 354.5 Q85 343 78 331 Q76 326 73 321.5 Q70 317 68 312 Q64 305 61 298.5 Q58 292 54 286 L30 238 Q26 231 23 224 Q20 217 16 210 Q15 208 15 207 Q15 206 14 204 Q12 200 13 199 Q13 197 11 197 Q9 197 9 203 Q11 209 13 212 Q18 223 23 234 Q28 245 33 256 Q41 273 49.5 289 Q58 305 66 321 Q71 330 75 339 Q79 348 84 356 Q88 364 92 371.5 Q96 379 101 387 Q106 396 111.5 405.5 Q117 415 123 424 Q137 448 155 474 Q159 481 163 487 Q167 493 171 500 Q176 508 180.5 515 Q185 522 190 530 Q195 538 200 546.5 Q205 555 209 564 Q214 573 219 586 Q220 590 220.5 593.5 Q221 597 221 602 Q221 607 217 611 Q212 617 203 620 Q201 620 198.5 620.5 Q196 621 193 621 Q181 619 169 615 Q148 607 128 585 Q122 578 116 571 Q110 564 105 555 Q102 550 99.5 545 Q97 540 95 534 Q94 532 94 530 Q94 528 93 526 Q93 524 93.5 523 Q94 522 94 521 L94 519 Q94 518 93 518 Q92 518 92 519 Q88 525 91 536 Q94 547 102 561 Q109 574 120 585 Q126 593 133 599 Q140 605 147 610 Q165 622 182 625 Q186 626 189 626.5 Q192 627 195 627 Q207 627 215 623 Q223 620 227 613 Z M0 173 Q1 173 1 172 Q1 171 0.5 171 Q0 171 0 170 Q-1 169 -1 168.5 Q-1 168 -2 167 Q-2 167 -4 166 Q-6 166 -6 169 L-4 171 Q-3 173 0 173 Z " />
<glyph glyph-name="equal" unicode="&#x3d;" horiz-adv-x="250" d="M158 347 L159 347 Q157 345 155 345 L137 345 L118 345 L101 345 Q95 346 89.5 346 Q84 346 78 346 Q75 346 72 346.5 Q69 347 66 347 Q64 347 63 348 L62 348 L63 349 L69 349 Q74 350 77.5 350 Q81 350 86 350 Q89 351 97 351 Q103 351 109.5 351.5 Q116 352 122 352 Q127 352 132.5 352.5 Q138 353 144 353 Q151 353 154 352 L158 352 Q160 352 160 351 Q159 350 159 348 L158 347 Z M171 379 L172 379 Q170 377 168 377 L150 377 L131 377 L114 377 Q108 378 102.5 378 Q97 378 91 378 Q88 378 85 378.5 Q82 379 79 379 Q77 379 76 380 L76 381 L82 381 Q87 382 90.5 382 Q94 382 99 382 Q102 383 110 383 Q116 383 122.5 383.5 Q129 384 135 384 Q140 384 145.5 384.5 Q151 385 157 385 L167 385 Q167 385 171 385 Q173 385 173 383 Q172 382 172 380 L171 379 Z " />
<glyph glyph-name="bracketleft" unicode="&#x5b;" horiz-adv-x="174" d="M143 523 Q145 523 144.5 520 Q144 517 142 517 L124 517 Q122 515 122 514 Q119 511 115 503 Q112 496 109 489.5 Q106 483 104 477 Q101 471 98.5 465 Q96 459 93 453 Q88 441 82.5 428.5 Q77 416 72 403 Q68 395 65 387.5 Q62 380 59 372 Q53 355 46 340 Q44 334 41 327.5 Q38 321 36 314 Q33 307 30.5 300.5 Q28 294 26 287 Q23 279 20 271.5 Q17 264 14 256 L2 226 Q1 223 0.5 220.5 Q0 218 -1 215 Q-2 214 -2 213 Q-2 212 -3 211 L-3 208 Q-3 204 -1 203 L0 203 L20 203 Q22 203 21.5 200 Q21 197 18 197 L16 197 L13 197 L9 197 L6 197 L2 197 L0 197 L-2 197 L-5 197 Q-6 198 -6.5 198 Q-7 198 -8 199 Q-9 200 -9 200.5 Q-9 201 -10 202 L-10 205 Q-11 206 -11 207 Q-11 208 -10 209 L-10 212 Q-9 214 -8.5 217 Q-8 220 -6 223 Q-2 234 2 244 Q6 254 10 265 Q14 275 17 284 Q20 293 24 303 Q27 312 30.5 320.5 Q34 329 37 338 Q41 347 44.5 356 Q48 365 52 375 Q56 384 60 393.5 Q64 403 68 413 Q72 421 75.5 430 Q79 439 83 447 Q87 455 90.5 464 Q94 473 98 481 Q101 489 104 496 Q107 503 111 511 Q113 515 116 518 Q117 521 120 521 Q120 521 128 523 L143 523 L143 523 Z " />
<glyph glyph-name="bracketright" unicode="&#x5d;" horiz-adv-x="184" d="M149 514 Q148 512 147.5 508.5 Q147 505 145 502 Q134 475 121 448 Q116 437 110.5 425 Q105 413 100 402 L79 354 Q74 343 70.5 331.5 Q67 320 62 309 Q60 302 57.5 295.5 Q55 289 53 283 Q48 271 44 259.5 Q40 248 36 237 Q34 231 32 225.5 Q30 220 28 214 Q27 212 26.5 210 Q26 208 25 206 L23 202 Q20 197 18 197 L17 197 L-4 197 Q-7 197 -6.5 200 Q-6 203 -3 203 L16 203 Q17 204 17 206 Q19 210 20 214 Q21 218 23 223 Q26 234 31 248 Q35 259 38.5 270.5 Q42 282 47 293 Q52 307 57 319.5 Q62 332 67 346 Q69 352 72 358.5 Q75 365 78 372 L102 426 Q110 444 118 461.5 Q126 479 134 497 Q138 503 141 513 Q141 514 141.5 514.5 Q142 515 142 517 L141 517 L120 517 Q117 517 117.5 520 Q118 523 121 523 L136 523 Q141 523 143 522 Q145 522 146 521 Q147 521 149 519 L149 514 Z " />
<glyph glyph-name="braceleft" unicode="&#x7b;" horiz-adv-x="182" d="M30 247 L30 248 L39 275 Q44 288 49.5 300.5 Q55 313 60 325 Q64 333 67.5 342 Q71 351 75 359 Q77 362 79 368 Q80 370 80 373 Q80 374 78 374 Q77 375 76 375 Q75 375 74 376 Q70 376 68 377 Q66 379 66 381 Q66 381 66 385 L70 389 Q74 394 77.5 397.5 Q81 401 84 406 Q88 411 91 415 Q94 419 97 424 Q102 430 105.5 436.5 Q109 443 113 449 Q118 457 122 463.5 Q126 470 131 478 Q135 485 139 491.5 Q143 498 148 505 Q150 508 153 511 Q156 514 159 517 Q166 522 172 522 Q174 524 176 522 Q177 522 177 520 Q177 519 176 519 Q175 518 175 518 L174 519 Q173 520 171 520 Q166 518 162 514 Q155 508 148 496 Q143 489 139 482 Q135 475 130 467 L118 446 Q114 441 110.5 435 Q107 429 103 424 Q99 417 95 411.5 Q91 406 86 400 Q83 396 80 393 Q77 390 74 386 L71 383 L71 381 Q75 379 76 379 Q78 378 79 378 Q80 378 82 377 Q84 377 84 376 Q87 375 85 369 Q83 362 80 355.5 Q77 349 74 342 Q69 331 64.5 321 Q60 311 56 300 Q52 292 49.5 285 Q47 278 44 270 Q42 266 41 262 Q40 258 38 253 Q36 246 34 236 Q32 231 31.5 227 Q31 223 30 218 Q30 214 31 212 Q31 210 33 206 Q35 204 36 203 Q37 202 39 201 Q40 199 42 201 Q43 202 46 202 Q47 202 46 201 Q45 197 39 197 Q35 197 29 203 Q25 206 24 211 L24 218 Q24 221 24.5 224 Q25 227 25 230 Q26 232 26 235 Q28 239 30 247 Z " />
<glyph glyph-name="braceright" unicode="&#x7d;" horiz-adv-x="154" d="M114 508 Q116 516 116 518 Q116 521 113 521 L111 521 L111 522 L112 522 Q115 524 118 521 Q120 520 120 517 Q120 510 119 506 Q117 501 115.5 496 Q114 491 112 486 Q105 468 99 455 Q96 449 93 443.5 Q90 438 87 432 Q82 424 79 416 Q76 408 79 402 Q80 399 83 398 Q85 396 86 395.5 Q87 395 89 393 Q92 393 89 390 Q88 387 84 383 Q81 382 77 380 Q71 374 69 370 Q67 366 65.5 362.5 Q64 359 62 355 Q60 349 57.5 342.5 Q55 336 53 330 Q51 325 49 321 Q47 317 45 312 Q44 308 43 304.5 Q42 301 41 297 Q39 293 38 289 Q37 285 35 280 Q33 274 32 270 L26 255 Q25 250 21 240 Q19 235 16.5 230 Q14 225 10 220 Q8 216 2 210 Q-1 208 -4 205 Q-7 202 -10 200 Q-12 199 -12.5 198.5 Q-13 198 -15 197 Q-20 197 -21 200 Q-21 201 -20 201 Q-17 201 -15 203 Q-10 207 -6 210.5 Q-2 214 1 219 Q6 225 10 235 Q13 242 15.5 248 Q18 254 20 260 Q22 265 23.5 270.5 Q25 276 27 281 Q29 286 30 289.5 Q31 293 33 298 Q36 306 39 313.5 Q42 321 45 329 Q47 335 49.5 341.5 Q52 348 55 353 Q57 358 59 362.5 Q61 367 64 372 Q68 380 76 385 Q80 387 81 388 Q82 389 82 390 Q84 390 82 392 Q81 392 79 394 Q73 398 72 404 Q70 409 72 414 Q75 422 78.5 428 Q82 434 85 441 Q89 448 92 454.5 Q95 461 98 468 Q105 481 110 497 Q112 502 114 508 Z " />
<glyph glyph-name="plus" unicode="&#x2b;" horiz-adv-x="226" d="M143 354 Q138 353 133.5 353.5 Q129 354 124 353 L107 353 Q107 353 105 351 Q100 339 95.5 327.5 Q91 316 86 304 Q84 298 81 292 Q78 286 76 279 Q75 276 71 270 Q69 266 67 268 Q66 268 66 270 Q66 273 68 279 Q70 287 73.5 295 Q77 303 80 311 Q82 318 85 325 Q88 332 90 339 Q92 342 92.5 345 Q93 348 95 351 Q95 352 94 352 Q87 351 81 351 Q75 351 68 349 Q60 347 58 347 Q54 345 54 348 Q53 350 55 351 Q57 352 58.5 352 Q60 352 62 353 Q68 354 73.5 354.5 Q79 355 85 355 Q92 355 95 356 Q97 356 97 358 Q99 362 103 372 Q106 380 109 389 Q112 398 116 407 Q117 409 118 411.5 Q119 414 120 416 Q121 418 121.5 418 Q122 418 123 419 L129 419 Q133 419 130 416 Q130 414 128 406 Q123 394 118 382.5 Q113 371 108 359 Q107 356 109 356 Q118 357 127 357 Q136 357 146 357 Q148 357 149 356 Q151 356 151 355 Q149 354 149 354 L143 354 Z " />
<glyph glyph-name="colon" unicode="&#x3a;" horiz-adv-x="160" d="M74 379 Q76 379 76 378 Q77 377 78 377 Q80 377 80 375 Q80 373 77 370 Q75 369 71 371 Q69 375 70 377 Q70 379 74 379 Z M55 330 L57 330 Q59 330 59 327 Q59 322 55 321 Q52 321 52 321 Q49 326 50 328 Q50 332 55 330 Z " />
<glyph glyph-name="semicolon" unicode="&#x3b;" horiz-adv-x="138" d="M47 331 Q51 331 49 327 Q47 321 44 315.5 Q41 310 39 304 Q38 301 37 298 Q36 295 36 292 Q36 289 34 291 Q31 292 31 297 Q32 300 32.5 302.5 Q33 305 34 308 Q36 313 38 318 Q40 323 42 328 Q43 331 47 331 Z M66 379 Q68 379 68 378 Q70 377 70 377 Q72 377 72 375 Q72 371 69 370 Q66 369 64 371 Q61 374 62 377 Q62 379 66 379 Z " />
<glyph glyph-name="greater" unicode="&#x3e;" horiz-adv-x="224" d="M138 347 Q134 339 128 337 Q125 335 121 334 Q117 333 113 331 L77 319 Q72 317 67.5 316 Q63 315 58 313 Q54 311 52 311 L50 311 Q47 311 49 315 Q49 315 51 317 Q54 319 57 319.5 Q60 320 63 322 L78 328 Q83 330 87.5 331.5 Q92 333 97 335 Q101 336 109 340 Q115 342 118 344 Q120 345 120.5 345.5 Q121 346 123 347 Q128 352 124 357 Q120 362 116 365.5 Q112 369 107 373 Q102 377 98.5 379.5 Q95 382 90 386 Q88 388 87 388.5 Q86 389 84 391 Q84 391 82 393 Q80 393 80 396 Q80 397 81 397 Q85 397 87 396 Q92 395 97 390 Q102 386 106.5 383 Q111 380 116 376 Q126 368 134 358 Q136 356 138 352 L138 347 Z " />
<glyph glyph-name="less" unicode="&#x3c;" horiz-adv-x="232" d="M67 353 Q69 355 70.5 356.5 Q72 358 74 360 Q79 364 85 367 Q91 370 96 372 Q108 378 120 384 Q132 390 143 395 Q147 397 149 397 Q155 399 157 398 Q157 397 155 395 Q151 393 148 392 Q140 389 133 385 Q126 381 118 377 Q113 375 107.5 372 Q102 369 97 366 Q90 363 85 358 Q83 357 82.5 356.5 Q82 356 80 355 Q78 353 78 351 Q78 347 81 346 Q87 340 90 338 Q94 335 97.5 332.5 Q101 330 105 328 Q110 325 114 322.5 Q118 320 123 318 L124 317 Q126 317 124 315 Q124 314 123 314 Q123 312 121 312 Q116 312 113 315 Q106 318 100 321.5 Q94 325 87 328 L78 334 Q71 339 69 343 Q67 345 67 350 L67 353 Z " />
<glyph glyph-name="period" unicode="&#x2e;" horiz-adv-x="158" d="M59 311 Q66 309 65 306 Q63 303 60.5 301.5 Q58 300 56 304 Q54 306 55 308.5 Q56 311 59 311 Z " />
<glyph glyph-name="comma" unicode="&#x2c;" horiz-adv-x="174" d="M71 310 Q74 309 75 309 Q76 309 74 305 Q71 300 68.5 294 Q66 288 64 282 Q61 276 61 270 Q61 269 59 269 Q54 271 56 275 Q56 281 59 286 Q61 291 63 296 Q65 301 67 306 Q68 310 71 310 Z " />
<glyph glyph-name="b" unicode="b" horiz-adv-x="443" d="M443 381 Q444 381 444 380 L444 378 Q443 378 442.5 377.5 Q442 377 440 377 Q432 375 424 373.5 Q416 372 408 370 Q380 364 353 358 Q326 352 298 346 Q288 344 278.5 341.5 Q269 339 259 336 L258 336 Q243 333 221 328 Q199 323 176.5 318 Q154 313 134.5 309 Q115 305 107 304 L106 304 L104 303 L100 303 Q99 301 98 298.5 Q97 296 96 294 Q93 288 90 282 Q87 276 83 271 Q79 266 75.5 260.5 Q72 255 67 250 Q65 248 62.5 245 Q60 242 58 240 Q56 238 53.5 236 Q51 234 48 232 Q42 227 35.5 223 Q29 219 21 216 Q16 214 11 213 Q6 212 1 214 Q-13 217 -15 232 Q-16 242 -11 254 Q1 283 31 294 Q48 300 63 303 Q66 304 68.5 304 Q71 304 74 305 L76 305 L86 307 Q93 324 95 334.5 Q97 345 96 353 Q97 355 96.5 356 Q96 357 96 359 Q96 361 95 361 Q94 363 94 366 Q94 367 93 368 Q89 374 83 376 Q77 378 72 378 Q66 378 59 375 Q56 373 53.5 372.5 Q51 372 48 370 Q30 360 12 344 L-8 324 Q-12 320 -14 319 Q-16 317 -20 319 Q-22 320 -22 324 Q-20 328 -20 331 Q-14 345 -8.5 360 Q-3 375 3 390 Q22 438 41 484 Q60 530 80 578 Q91 604 102.5 628.5 Q114 653 125 679 L129 687 Q130 689 131 690.5 Q132 692 133 694 Q133 694 134 693 Q135 692 135 691 Q135 688 134 683.5 Q133 679 131 674 Q129 669 127 663 L-9 331 L-6 334 Q12 352 28 364 Q36 369 44 373.5 Q52 378 62 380 Q67 381 72.5 381.5 Q78 382 83 381 Q107 376 109 351 Q110 343 108.5 335 Q107 327 105 319 Q104 317 104 315 Q104 313 103 311 L103 310 L107 310 L133 315 Q160 321 187 326.5 Q214 332 240 338 Q283 347 325.5 356 Q368 365 411 375 Q419 377 427 378 Q435 379 443 381 Z M52 248 Q60 259 68 272.5 Q76 286 83 300 L82 300 Q79 300 76.5 299.5 Q74 299 71 299 Q70 298 68 298 Q66 298 64.5 297.5 Q63 297 61 297 Q51 295 42 292.5 Q33 290 25 285 Q13 278 4.5 268.5 Q-4 259 -8 245 Q-11 238 -9 230 Q-9 223 -3 219 Q4 214 14 218 Q24 222 32 229 Q42 237 52 248 Z " />
<glyph glyph-name="c" unicode="c" horiz-adv-x="480" d="M480 381 Q483 378 480 378 Q451 374 422 368.5 Q393 363 365 357 Q331 349 297.5 341.5 Q264 334 230 324 Q192 313 154.5 300 Q117 287 80 273 Q66 268 51.5 263 Q37 258 22 255 Q14 253 6.5 252 Q-1 251 -9 251 Q-27 252 -37 261.5 Q-47 271 -50 285 Q-53 299 -49 316 Q-45 333 -36 348 Q-35 349 -35 349.5 Q-35 350 -34 351 Q-28 361 -19 369 Q-11 376 0 381 Q11 386 25 386 L26 386 Q30 386 36 384 Q50 379 50 364 Q50 359 49.5 355.5 Q49 352 48 348 Q48 345 45 345 Q43 346 43 349 Q43 352 43.5 355 Q44 358 44 360 Q44 367 43 371 Q42 381 30 383 Q25 383 21.5 382 Q18 381 14 379 Q1 373 -7 363 Q-29 337 -35 303 Q-38 290 -35 277 Q-30 257 -10 256 Q11 256 35 264 L104 288 Q141 302 177.5 314 Q214 326 252 336 Q281 343 310 349 Q339 355 368 362 Q389 367 410 370.5 Q431 374 452 378 Q459 379 465.5 380 Q472 381 480 381 Z " />
<glyph glyph-name="a" unicode="a" horiz-adv-x="371" d="M371 381 Q372 381 372 380 Q372 378 371 378 Q370 378 356 372 Q342 366 324.5 358.5 Q307 351 291 344 Q275 337 271 335 L256 329 Q230 318 203.5 306 Q177 294 151 282 Q139 277 126.5 272 Q114 267 101 263 Q88 259 76 258 Q65 257 53.5 259 Q42 261 34 270 Q28 277 26.5 286.5 Q25 296 26.5 306 Q28 316 31 325.5 Q34 335 37 342 Q39 345 39.5 347.5 Q40 350 41 352 L42 353 Q40 352 38 350 Q27 341 17 332 Q7 323 -4 315 Q-8 312 -11.5 309 Q-15 306 -19 304 Q-25 300 -34 296 Q-43 292 -48 296 Q-55 301 -52 311 Q-49 321 -48 324 Q-45 331 -39.5 340.5 Q-34 350 -26.5 359 Q-19 368 -10.5 375 Q-2 382 7 383 Q18 383 26 375 Q34 367 35 356 Q37 356 39 358 Q41 359 42 360 Q43 361 45 362 Q55 366 53 356 Q53 353 51 347 Q48 337 45.5 327.5 Q43 318 41 308 Q40 302 39.5 295.5 Q39 289 41 283 Q44 268 56 264 Q66 262 71 263 Q90 265 106 272 Q123 279 139 285.5 Q155 292 171 299 Q190 307 208.5 315 Q227 323 245 331 Q249 333 269 340.5 Q289 348 312 357 Q338 368 371 381 Z M29 350 Q31 351 31 354 Q25 373 17 377 Q9 381 -13 359 Q-14 358 -18 353.5 Q-22 349 -27.5 341 Q-33 333 -37.5 322 Q-42 311 -43 299 Q-39 301 -36.5 301.5 Q-34 302 -31 304 Q-15 315 0 326.5 Q15 338 29 350 Z " />
<glyph glyph-name="quotedblleft" unicode="&#x201c;" horiz-adv-x="155" d="M117 746 Q121 746 120 742 Q112 727 108 712 L103 702 Q101 700 101 700 Q99 698 98 700 Q95 700 97 702 L100 712 Q102 720 105 727 Q108 734 111 742 Q114 746 117 746 Z M114 693 L117 701 Q120 711 123.5 720.5 Q127 730 131 740 L131 741 Q133 745 138 745 Q139 744 139 742 L136 735 L121 698 L118 692 Q117 691 116 691 Q114 691 114 693 Z " />
<glyph glyph-name="quotedblright" unicode="&#x201d;" horiz-adv-x="158" d="M117 746 Q121 746 120 742 Q112 727 108 712 L103 702 Q101 700 101 700 Q99 698 98 700 Q95 700 97 702 L100 712 Q102 720 105 727 Q108 734 111 742 Q114 746 117 746 Z M114 693 L117 701 Q120 711 123.5 720.5 Q127 730 131 740 L131 741 Q133 745 138 745 Q139 744 139 742 L136 735 L121 698 L118 692 Q117 691 116 691 Q114 691 114 693 Z " />
<glyph glyph-name="quoteright" unicode="&#x2019;" horiz-adv-x="155" d="M113 693 L115 701 Q119 711 122 720.5 Q125 730 130 740 L130 741 Q132 745 137 745 Q138 744 138 742 L135 735 L120 698 L117 692 Q116 691 114 691 Q113 691 113 693 Z " />
<glyph glyph-name="quoteleft" unicode="&#x2018;" horiz-adv-x="155" d="M113 693 L115 701 Q119 711 122 720.5 Q125 730 130 740 L130 741 Q132 745 137 745 Q138 744 138 742 L135 735 L120 698 L117 692 Q116 691 114 691 Q113 691 113 693 Z " />
</font>
</svg>
